<?xml version="1.0" encoding="UTF-8"?>
<svg width="54px" height="52px" viewBox="0 0 54 52" version="1.1" xmlns="http://www.w3.org/2000/svg" xmlns:xlink="http://www.w3.org/1999/xlink">
    <!-- Generator: Sketch 58 (84663) - https://sketch.com -->
    <title>adero</title>
    <desc>Created with Sketch.</desc>
    <g id="Page-1" stroke="none" stroke-width="1" fill="none" fill-rule="evenodd">
        <g id="Logos" transform="translate(-549.000000, -72.000000)" fill="#FFFFFF" fill-rule="nonzero">
            <g id="adero" transform="translate(549.000000, 72.000000)">
                <path d="M47.1681889,24.874676 C47.2375644,26.0263056 48.233037,26.9006547 49.3849317,26.823487 C50.5361718,26.7463193 51.4059833,25.7470632 51.322209,24.5967416 C50.5499161,13.164807 42.2883442,3.62805857 31.0756968,1.22605095 C19.8637037,-1.17530271 8.41609592,4.13815003 3.02117102,14.2490785 C-2.37309938,24.3600068 -0.408333573,36.8186638 7.83622167,44.7819763 C16.0820859,52.7452888 28.610904,54.2834108 38.5401051,48.5527294 C39.5355777,47.9778955 39.8765647,46.7059367 39.3019264,45.7112583 C38.727288,44.715926 37.4536589,44.3752111 36.4588409,44.9500449 C17.7124095,55.7711775 -3.49423322,35.2805419 6.70003464,16.1965815 C16.8943025,-2.88737893 45.7348654,3.31481009 47.1694979,24.8995266 L47.1681889,24.874676 Z" id="Fill-1"></path>
                <path d="M37.9242341,26.8691332 C38.2252975,20.1176149 32.9913761,14.4013207 26.2351211,14.1011515 C19.4782118,13.8003284 13.7566985,19.0294198 13.4562895,25.7809381 C13.1552262,32.5324564 18.3891476,38.2487506 25.1460571,38.5495738 C31.9029665,38.849743 37.6238253,33.6206515 37.9242341,26.8691332 M17.6194725,26.3250357 C17.6194725,21.8708909 21.2328876,18.2597049 25.6905891,18.2597049 C30.1482906,18.2597049 33.7617057,21.8708909 33.7617057,26.3250357 C33.7617057,30.7791805 30.1482906,34.3897125 25.6905891,34.3897125 C21.2328876,34.3897125 17.6194725,30.7791805 17.6194725,26.3250357" id="Fill-4"></path>
                <path d="M53.6957666,37.293964 C53.6957666,33.2701271 50.4187572,29.9944244 46.3910527,29.9944244 C42.3633482,29.9944244 39.0856843,33.2701271 39.0856843,37.293964 C39.0856843,41.3184549 42.3633482,44.5915418 46.3910527,44.5915418 C50.4187572,44.5915418 53.6957666,41.3184549 53.6957666,37.293964 M46.4388301,40.8273284 C44.4851905,40.8541409 42.8803918,39.2937841 42.853558,37.3410494 C42.826724,35.3889686 44.3889812,33.7847963 46.3426208,33.7586378 C48.2962603,33.7318253 49.9017136,35.292182 49.9285474,37.2449168 C49.9547269,39.1969976 48.3924697,40.8011698 46.4388301,40.8273284" id="Fill-6"></path>
            </g>
        </g>
    </g>
</svg>