<?xml version="1.0" encoding="UTF-8"?>
<svg width="70px" height="48px" viewBox="0 0 70 48" version="1.1" xmlns="http://www.w3.org/2000/svg" xmlns:xlink="http://www.w3.org/1999/xlink">
    <!-- Generator: Sketch 58 (84663) - https://sketch.com -->
    <title>af-gruppen</title>
    <desc>Created with Sketch.</desc>
    <g id="Page-1" stroke="none" stroke-width="1" fill="none" fill-rule="evenodd">
        <g id="Logos" transform="translate(-443.000000, -76.000000)" fill="#FFFFFF">
            <g id="af-gruppen" transform="translate(443.000000, 76.000000)">
                <path d="M64.2856152,-0.000117225262 C67.345007,-0.000117225262 69.8480927,2.51846752 69.8480927,5.59563064 L69.8480927,5.59563064 L69.8480927,42.0374827 C69.8480927,45.1272622 67.3433315,47.6320234 64.2535521,47.6320234 L64.2535521,47.6320234 L5.59448238,47.6320234 C2.5047029,47.6320234 -5.82519378e-05,45.1272622 -5.82519378e-05,42.0374827 L-5.82519378e-05,42.0374827 L-5.82519378e-05,5.59563064 C-5.82519378e-05,2.51846752 2.50069743,-0.000117225262 5.56008921,-0.000117225262 L5.56008921,-0.000117225262 Z M30.5331609,10.544002 L25.0667991,10.5469326 C21.8390592,10.5469326 19.0284032,12.3422375 17.5686097,14.9962175 L17.5686097,14.9962175 L6.03006583,35.8429719 C5.96657123,35.9619555 5.93103754,36.0979368 5.93103754,36.2421239 C5.93103754,36.7092665 6.30676254,37.0884903 6.77161301,37.0884903 L6.77161301,37.0884903 L11.4457485,37.087318 C11.7632216,37.087318 12.0381707,36.910894 12.1808879,36.65124 L12.1808879,36.65124 L22.6295381,17.7668365 C23.110699,16.9046447 24.0275846,16.3232074 25.080197,16.3232074 L25.080197,16.3232074 L29.110066,16.326138 C30.1842319,16.326138 31.0545158,17.2018107 31.0545158,18.2820415 L31.0545158,18.2820415 L31.0521857,36.2321598 C31.0521857,36.7069221 31.4331534,37.0920071 31.9044115,37.0920071 L31.9044115,37.0920071 L35.945931,37.0920071 C36.4177717,37.0920071 36.800487,36.7069221 36.800487,36.2321598 L36.800487,36.2321598 L36.800487,16.8495489 C36.800487,13.3667863 33.993326,10.544002 30.5331609,10.544002 L30.5331609,10.544002 Z M60.7776836,10.5402508 L44.1683085,10.5437676 C40.7081434,10.5437676 37.901565,13.367138 37.901565,16.8493144 L37.901565,16.8493144 L37.90273,36.2319253 C37.90273,36.7072738 38.2848628,37.0917726 38.757286,37.0917726 L38.757286,37.0917726 L42.7982229,37.0917726 C43.2694811,37.0917726 43.6504487,36.7072738 43.6504487,36.2319253 L43.6504487,36.2319253 L43.6492837,18.281807 C43.6492837,17.2021624 44.5195677,16.3259036 45.5925684,16.3259036 L45.5925684,16.3259036 L60.7776836,16.3288342 C61.2477767,16.3288342 61.6310743,15.9443354 61.6310743,15.4695731 L61.6310743,15.4695731 L61.6310743,11.3989258 C61.6310743,10.9247496 61.2477767,10.5402508 60.7776836,10.5402508 L60.7776836,10.5402508 Z M29.1077361,17.4355579 L25.0836921,17.4355579 C24.4405907,17.4355579 23.8807897,17.7913366 23.5883649,18.3182641 L23.5883649,18.3182641 L13.8905823,35.8428547 C13.8282527,35.9618383 13.791554,36.0984057 13.791554,36.2425927 C13.791554,36.7097355 14.167279,37.088373 14.6309645,37.088373 L14.6309645,37.088373 L19.3062649,37.0872008 C19.6237381,37.0872008 19.8986871,36.9107767 20.0414045,36.6511228 L20.0414045,36.6511228 L27.2477516,23.6250517 C27.3910514,23.3683284 27.6648355,23.1948351 27.9782309,23.1948351 L27.9782309,23.1948351 L29.1077361,23.1948351 C29.5801592,23.1948351 29.962292,22.8103361 29.962292,22.3355738 L29.962292,22.3355738 L29.962292,18.294233 C29.962292,17.8200567 29.5801592,17.4355579 29.1077361,17.4355579 L29.1077361,17.4355579 Z M60.6960726,17.4354993 L45.6041606,17.4354993 C45.1329023,17.4354993 44.7507696,17.8199982 44.7507696,18.2941743 L44.7507696,18.2941743 L44.7507696,22.3355153 C44.7507696,22.8102776 45.1329023,23.1947764 45.6041606,23.1947764 L45.6041606,23.1947764 L60.6960726,23.1947764 C61.1673307,23.1947764 61.5494634,22.8102776 61.5494634,22.3355153 L61.5494634,22.3355153 L61.5494634,18.2941743 C61.5494634,17.8199982 61.1673307,17.4354993 60.6960726,17.4354993 L60.6960726,17.4354993 Z" id="Combined-Shape"></path>
            </g>
        </g>
    </g>
</svg>