<svg xmlns="http://www.w3.org/2000/svg" width="60" height="60" viewBox="0 0 60 60">
    <g fill="none" fill-rule="nonzero">
        <rect width="60" height="60" fill="#E7F7FF" rx="6"/>
        <g stroke="#008FFF" stroke-linecap="round" stroke-width="1.5">
            <path d="M47 30c0 9.389-7.611 17-17 17s-17-7.611-17-17 7.611-17 17-17 17 7.611 17 17z"/>
            <path d="M34 30a4 4 0 1 1-8 0 4 4 0 0 1 8 0z"/>
            <path d="M24 19c2-2 6.407-2.344 6.575-2.001 1.402 2.849 1.21 6.323-.575 9.001M17.66 27.826c-.315-2.81 2.165-6.469 2.538-6.387 3.101.682 5.697 3 6.676 6.065M20.603 38.288c-2.393-1.507-3.705-5.728-3.408-5.97 2.467-1.997 5.898-2.58 8.905-1.432M30.614 42.515c-2.67.93-6.788-.678-6.79-1.06-.023-3.175 1.662-6.22 4.435-7.854M40.164 37.328c-.94 2.668-4.765 4.882-5.065 4.646-2.495-1.964-3.824-5.18-3.371-8.366M42.068 26.628c1.499 2.4.843 6.77.47 6.857-3.09.725-6.433-.244-8.64-2.585M34.894 18.465c2.81.325 5.816 3.565 5.652 3.91-1.362 2.868-4.204 4.876-7.411 5.14"/>
            <path d="M48 50H12a2 2 0 0 1-2-2V12a2 2 0 0 1 2-2h36a2 2 0 0 1 2 2v36a2 2 0 0 1-2 2zM46 13v2M46 45v2M14 13v2M14 45v2"/>
        </g>
    </g>
</svg>
