<?xml version="1.0" encoding="UTF-8"?>
<svg width="60px" height="60px" viewBox="0 0 60 60" version="1.1" xmlns="http://www.w3.org/2000/svg" xmlns:xlink="http://www.w3.org/1999/xlink">
    <!-- Generator: Sketch 52.4 (67378) - http://www.bohemiancoding.com/sketch -->
    <title>Group 26</title>
    <desc>Created with Sketch.</desc>
    <g id="Page-1" stroke="none" stroke-width="1" fill="none" fill-rule="evenodd">
        <g id="IOTEmbeded-" transform="translate(-75.000000, -1340.000000)" fill-rule="nonzero">
            <g id="Group-26" transform="translate(75.000000, 1340.000000)">
                <g id="smart-hotel-systems-copy" fill="#E7F7FF">
                    <rect id="Rectangle-Copy-16" x="0" y="0" width="60" height="60" rx="6"></rect>
                </g>
                <g id="Group-33" transform="translate(10.000000, 13.000000)" stroke="#008FFF" stroke-linecap="round" stroke-width="1.5">
                    <path d="M39.1304348,33.9130435 L0.869565217,33.9130435 C0.389565217,33.9130435 0,33.5234783 0,33.0434783 L0,0.869565217 C0,0.389565217 0.389565217,0 0.869565217,0 L39.1304348,0 C39.6104348,0 40,0.389565217 40,0.869565217 L40,33.0434783 C40,33.5234783 39.6104348,33.9130435 39.1304348,33.9130435 Z" id="Stroke-1"></path>
                    <path d="M0,5.2173913 L40,5.2173913" id="Stroke-3"></path>
                    <path d="M2.60869565,2.60869565 L4.34782609,2.60869565" id="Stroke-5"></path>
                    <path d="M6.08695652,2.60869565 L7.82608696,2.60869565" id="Stroke-7"></path>
                    <path d="M9.56521739,2.60869565 L11.3043478,2.60869565" id="Stroke-9"></path>
                    <path d="M11.3043478,8.69565217 L11.3043478,13.9130435 L16.5217391,13.9130435 C16.5217391,11.0313043 14.186087,8.69565217 11.3043478,8.69565217 Z" id="Stroke-11"></path>
                    <path d="M14.7826087,15.6521739 C14.7826087,18.533913 12.4469565,20.8695652 9.56521739,20.8695652 C6.68347826,20.8695652 4.34782609,18.533913 4.34782609,15.6521739 C4.34782609,12.7704348 6.68347826,10.4347826 9.56521739,10.4347826" id="Stroke-13"></path>
                    <path d="M20,10.4347826 L35.6521739,10.4347826" id="Stroke-15"></path>
                    <path d="M20,13.9130435 L35.6521739,13.9130435" id="Stroke-17"></path>
                    <path d="M3.47826087,26.0869565 L16.5217391,26.0869565" id="Stroke-19"></path>
                    <path d="M3.47826087,29.5652174 L11.3043478,29.5652174" id="Stroke-21"></path>
                    <path d="M20,17.3913043 L28.6956522,17.3913043" id="Stroke-23"></path>
                    <polyline id="Stroke-25" points="27.826087 31.3043478 27.826087 25.2173913 31.3043478 25.2173913 31.3043478 31.3043478"></polyline>
                    <polyline id="Stroke-27" points="31.3043478 31.3043478 31.3043478 26.9565217 34.7826087 26.9565217 34.7826087 31.3043478"></polyline>
                    <polyline id="Stroke-29" points="20.8695652 31.3043478 20.8695652 27.826087 24.3478261 27.826087 24.3478261 31.3043478"></polyline>
                    <polyline id="Stroke-31" points="24.3478261 31.3043478 24.3478261 21.7391304 27.826087 21.7391304 27.826087 31.3043478"></polyline>
                </g>
            </g>
        </g>
    </g>
</svg>