<svg xmlns="http://www.w3.org/2000/svg" width="60" height="60" viewBox="0 0 60 60">
    <g fill="none" fill-rule="nonzero">
        <rect width="60" height="60" fill="#E7F7FF" rx="6"/>
        <g stroke="#008FFF" stroke-linecap="round" stroke-width="1.5">
            <path d="M13.947 34.513h3M13.947 39.214h3M18.685 39.712v-5.697a.874.874 0 0 0-.869-.879.874.874 0 0 0-.869.879v5.697c0 .485.39.879.87.879s.868-.394.868-.88z"/>
            <path d="M18.685 39.5h1.567c1.44 0 2.606-1.18 2.606-2.637 0-1.456-1.167-2.636-2.606-2.636h-1.567M30.037 28.208H11.144s3.906-16.762 30.07-17.768c1.996-.077 3.661 1.526 3.661 3.547v9.906s-3.003.266-4.148 2.99M11.144 30.539h18.603"/>
            <path d="M29.11 15.869c2.997-1.099 6.797-1.963 11.448-2.08a1.06 1.06 0 0 1 1.081 1.064v6.312H20.361M22.858 14.892v-1.388c0-.686.55-1.242 1.228-1.242h.835M38.168 27.26a3.308 3.308 0 0 0-2.37.99 3.398 3.398 0 0 0-.984 2.397M38.167 24.713c-1.499 0-3 .578-4.147 1.738a5.954 5.954 0 0 0-1.719 4.196M38.855 46.24h8.127M38.855 33.648h8.127M37.116 43.111V31.006c0-.812.65-1.47 1.452-1.47h8.701c.802 0 1.452.658 1.452 1.47v16.628c0 .68-.545 1.233-1.218 1.233h-9.168a1.226 1.226 0 0 1-1.22-1.233v-4.523zM44.069 31.551h-2.3"/>
            <path d="M42.781 47.58c0 .077.062.14.138.14a.138.138 0 0 0 .137-.14.138.138 0 0 0-.137-.139.138.138 0 0 0-.138.14zM42.919 40.524v-2.986M41.476 38.972a2.232 2.232 0 0 0-.763 1.686c0 1.232.987 2.231 2.206 2.231 1.218 0 2.206-.999 2.206-2.23 0-.654-.278-1.24-.72-1.647M28.691 38.175c1.945-1.727 3.798-2.728 6.123-3.53"/>
            <path d="M22.858 36.864h1.33c6.674 0 9.694 7.157 5.874 9.964-2.474 1.817-5.307-.705-4.804-3.725.23-1.383 1.026-2.579 1.998-3.604"/>
        </g>
    </g>
</svg>
