<svg xmlns="http://www.w3.org/2000/svg" width="60" height="60" viewBox="0 0 60 60">
    <g fill="none" fill-rule="nonzero">
        <rect width="60" height="60" fill="#E7F7FF" rx="6"/>
        <g stroke="#008FFF" stroke-linecap="round" stroke-width="1.5">
            <path d="M25.76 12.314l.577 2.15M18.41 16.667l1.575 1.574M14.22 24.111l2.15.576M14.314 32.654l2.15-.577M18.667 40.004l1.574-1.574M42.004 39.748l-1.574-1.575M46.194 32.303l-2.15-.576M46.1 23.76l-2.15.577M41.748 16.41l-1.575 1.575M34.303 12.22l-.576 2.15M28.679 34.257c-2.547-.588-4.04-3.366-3.796-4.964.652-4.274 4.792-5.144 6.28-8.367 2.878 1.56 4.998 5.066 4.123 8.642-.588 2.408-3.542 3.647-4.747 4.042M29.643 37.752c-2.346-4.858.03-9.02 1.27-12.505M34.22 49.667h-1.703l-1.702 1.702h-1.702l-1.702-1.702h-1.702M24.006 43.71h11.915M24.006 47.114h11.915"/>
            <path d="M35.07 42.007v-1.702c0-1.808.763-3.597 2.04-4.878 1.923-1.93 3.067-4.946 3.067-7.888 0-5.64-4.573-10.212-10.213-10.212-5.64 0-10.213 4.572-10.213 10.212 0 2.942 1.144 5.958 3.067 7.888 1.277 1.28 2.04 3.07 2.04 4.878v1.702"/>
        </g>
    </g>
</svg>
