<?xml version="1.0" encoding="UTF-8"?>
<svg width="90px" height="34px" viewBox="0 0 90 34" version="1.1" xmlns="http://www.w3.org/2000/svg" xmlns:xlink="http://www.w3.org/1999/xlink">
    <!-- Generator: Sketch 58 (84663) - https://sketch.com -->
    <title>eurostar</title>
    <desc>Created with Sketch.</desc>
    <g id="Page-1" stroke="none" stroke-width="1" fill="none" fill-rule="evenodd">
        <g id="Logos" transform="translate(-317.000000, -81.000000)" fill="#FFFFFF">
            <g id="eurostar" transform="translate(317.000000, 81.000000)">
                <path d="M89.7479953,10.0003931 C87.9636007,11.9433426 86.0505273,13.7452297 83.9343944,15.3266139 C81.5028871,17.1433496 78.8943535,18.6141112 75.9444123,19.4270763 C74.378214,19.8577434 72.7667351,20.1031927 71.1431336,20.1583737 C66.7621063,20.3120575 62.4755426,19.6891554 58.2648473,18.5027461 C55.7299507,17.7885247 53.2039798,17.0394089 50.6586699,16.3608243 C48.5210819,15.790692 46.3419849,15.3887927 44.1414269,15.1588238 C42.5452156,14.9917762 40.9482605,14.9501999 39.3483302,14.9806397 C36.8007888,15.0281554 34.3514301,15.5805263 31.9489313,16.3986884 C28.7996495,17.4700205 25.7507818,18.7937802 22.6676989,20.0321599 C20.8219657,20.7729751 18.9713315,21.5015663 17.1159184,22.2178853 C16.8652552,22.3151441 16.7648411,22.4584339 16.757403,22.7049219 C16.7016175,24.5372488 16.6815347,26.3666059 17.1545964,28.1610686 C17.2810437,28.6391961 17.3204655,28.6674086 17.8262547,28.5983622 C18.9732061,28.4417087 20.0941243,28.1662657 21.2172739,27.8737467 C21.5519874,27.7913366 22.2868694,27.5693488 22.9607592,27.3243456 C24.5517638,26.7459896 27.6735247,25.444503 27.6735247,25.444503 C27.6735247,25.444503 31.3047938,23.6908741 31.7562851,23.4488407 L31.7495908,23.4466134 L33.4067943,22.5764809 C33.4261333,22.5668292 33.4529104,22.5519805 33.4692742,22.55792 C33.8106819,22.6937854 33.8553104,23.0687145 34.0717584,23.3077783 C34.1982057,23.4473558 34.0814279,23.5542663 33.9810139,23.6426159 C33.6150605,23.9648323 24.8306917,30.7766633 22.3195969,31.9987095 C20.3819779,32.9408581 18.3543582,33.503623 16.1787207,33.4204704 C15.4111111,33.3915154 14.6479644,33.306878 13.9004377,33.1264665 C12.6158818,32.8168716 11.7820734,31.9675272 11.1974406,30.8316034 C10.4960299,29.4692372 10.1568536,28.0059 9.99395973,26.495047 C9.94338081,26.0213741 9.89205808,25.5462165 9.87718193,25.0710588 C9.86825623,24.7889339 9.79090023,24.7339938 9.52015424,24.8126918 C8.1426224,25.2121212 6.75542106,25.5759138 5.33846741,25.8090381 C4.0992838,26.0139498 2.85638115,26.2277708 1.60380901,25.8959028 C1.12777208,25.7696891 0.664379895,25.6167477 0.328922627,25.2217728 C-0.00281560199,24.8312526 -0.0920725246,24.3679739 0.099829859,23.9923023 C0.157846859,23.8787099 0.220326705,23.7680873 0.375782512,23.8185728 C0.77520724,23.9477563 1.17611958,23.8482701 1.56661862,23.7962998 C4.40201353,23.4213706 7.13253155,22.6373604 9.8065202,21.6402717 C9.99470354,21.5704829 10.0475139,21.4494662 10.0713157,21.2675699 C10.410492,18.6304447 11.1483493,16.1031997 12.1755477,13.6553952 C13.2711764,11.0420278 14.7781308,8.69148212 16.6406252,6.55475736 C18.1170835,4.86126564 19.7423033,3.34373076 21.630831,2.12094213 C23.5134083,0.902608103 25.5819375,0.216599182 27.8215424,0.0398999144 C29.8357736,-0.11898094 31.7518222,0.178735053 33.4901008,1.25674907 C35.0201132,2.20483716 35.9037568,3.58205204 36.0919401,5.38096937 C36.1983046,6.39364921 36.3522728,7.41004121 36.0368983,8.41678158 C36.0302041,8.43831216 36.0279726,8.46058518 36.0212784,8.48137333 C35.9178891,8.80952911 34.5098611,11.129635 34.1714287,11.5260947 C34.1074612,11.7206124 33.9051455,11.7970831 33.8151448,12.0027373 C34.0256423,12.0183284 34.2019248,11.9656156 34.3759758,11.916615 C36.3381404,11.3635017 38.3337765,10.9766937 40.3636277,10.7962822 C42.0699225,10.6448257 43.7836554,10.6529925 45.4936693,10.7554484 C49.3964282,10.9900575 53.1794341,11.9114179 56.9683905,12.7904597 C59.6765943,13.4185587 62.3996742,13.9672174 65.1629198,14.2879488 C66.7293788,14.4705876 68.3003006,14.6005135 69.8786606,14.6547112 C70.8017259,14.6858934 71.7240474,14.7237575 72.6448813,14.6933177 C74.3310934,14.6383776 76.0165616,14.5611645 77.697567,14.3866925 C79.6768392,14.1810384 81.604045,13.774927 83.4576137,13.0443721 C85.2174627,12.3516812 86.7318552,11.2669853 88.186743,10.0894851 C88.6097684,9.74753532 89.0266156,9.39804024 89.4370837,9.04116848 C89.58287,8.91495472 89.672127,8.9275761 89.788161,9.07680531 C90.0827088,9.45841633 90.0708079,9.64922185 89.7479953,10.0003931 L89.7479953,10.0003931 Z M29.6736236,3.89016211 C29.5382506,3.71420527 29.3604805,3.57759743 29.1775038,3.44841394 C28.8770055,3.23533541 28.573532,3.21751699 28.2321243,3.34744293 C27.3038523,3.69935659 26.5012838,4.24578794 25.7470628,4.87834162 C23.8116752,6.50130212 22.3880272,8.53482857 21.1057028,10.6752655 C19.740102,12.952864 18.6258186,15.3714812 17.78237,17.8887532 C17.7466673,17.9949213 17.7131959,18.1018318 17.6804684,18.2087422 L19.5057725,17.436611 L22.9815858,15.7653923 L22.9637344,15.7520285 C23.5074578,15.4899493 24.0511812,15.229355 24.5941609,14.9650485 C26.233513,14.1669321 27.8780718,13.3777249 29.2771741,12.1764668 C29.6654417,11.843114 30.0284198,11.4845184 30.3594142,11.0939982 C30.4271007,11.0145578 30.5156139,10.9885726 30.9827251,10.1615012 C31.0757011,9.99668091 31.1411561,9.45915877 31.1716522,9.10353293 C31.3375214,7.17914427 30.8577654,5.43071244 29.6736236,3.89016211 L29.6736236,3.89016211 Z" id="Shape"></path>
                <path d="M44.191262,23.8059514 L44.191262,27.2538144 C44.191262,27.4149226 44.2120886,27.5738034 44.2537419,27.7326843 C44.2953951,27.8908227 44.3645692,28.0318851 44.4605204,28.156614 C44.5564716,28.2813429 44.6844065,28.3823139 44.8428376,28.4602695 C45.0012686,28.5374826 45.1976338,28.5768316 45.4311894,28.5768316 C45.6654889,28.5768316 45.8618541,28.5374826 46.0202851,28.4602695 C46.1787162,28.3823139 46.3059073,28.2813429 46.4026023,28.156614 C46.4991236,28.0305599 46.5691975,27.8863784 46.608637,27.7326843 C46.6502902,27.5738034 46.6711169,27.4149226 46.6711169,27.2538144 L46.6711169,23.8059514 L47.6536868,23.8059514 L47.6536868,27.292421 C47.6536868,27.6250314 47.5964136,27.9242322 47.482611,28.1915084 C47.3680647,28.4587846 47.211865,28.6859694 47.014756,28.8723203 C46.8123159,29.0621727 46.573468,29.2091565 46.3126016,29.3044168 C46.0303452,29.4075191 45.7317378,29.45883 45.4311894,29.4558734 C45.130888,29.458773 44.8325347,29.4074625 44.5505211,29.3044168 C44.2886972,29.2088498 44.0486901,29.0619308 43.8446476,28.8723203 C43.6414935,28.6815783 43.4819178,28.4493674 43.3767926,28.1915084 C43.2610644,27.9060554 43.2039024,27.6003239 43.2086921,27.292421 L43.2086921,23.8059514 L44.191262,23.8059514 Z M58.0900525,23.6663738 C58.521461,23.6663738 58.9186543,23.7339353 59.28312,23.8683158 C59.646842,24.0034388 59.9614726,24.1949868 60.2262682,24.4444445 C60.4918075,24.6931599 60.6985861,24.9953305 60.8466038,25.3509563 C60.9946215,25.7065822 61.0690023,26.1045267 61.0690023,26.5455325 C61.0690023,26.9761441 60.9946215,27.3696341 60.8466038,27.7245175 C60.7053781,28.0700135 60.4941888,28.3826738 60.2262682,28.6429082 C59.955273,28.903674 59.6345409,29.1074222 59.28312,29.2420524 C58.9024431,29.387589 58.497675,29.4601313 58.0900525,29.4558734 C57.6860647,29.4600324 57.2849696,29.3874697 56.9081421,29.2420524 C56.5589734,29.1073222 56.2406953,28.9035257 55.972432,28.6429082 C55.7068342,28.381663 55.4972897,28.0691898 55.3565592,27.7245175 C55.2047281,27.3501623 55.1291243,26.9493693 55.1341607,26.5455325 C55.1341607,26.1045267 55.2085415,25.7065822 55.3565592,25.3509563 C55.504577,24.9953305 55.7098679,24.6931599 55.972432,24.4444445 C56.2418608,24.1909146 56.5602487,23.9948791 56.9081421,23.8683158 C57.2867889,23.7307891 57.6871367,23.6623854 58.0900525,23.6663738 Z M64.5701051,23.6663738 C64.8505206,23.6663738 65.1353989,23.7153745 65.4239963,23.8141182 C65.7033025,23.9074697 65.95978,24.0584917 66.1767297,24.2573512 L65.5370551,24.9582088 C65.4191259,24.8122287 65.2682275,24.6962109 65.0967209,24.6196589 C64.8124027,24.4797408 64.4871576,24.4465385 64.1803498,24.5261123 C64.0697083,24.5529087 63.9641887,24.5975463 63.8679506,24.6582655 C63.7746874,24.7179694 63.696124,24.7979104 63.638114,24.8921322 C63.5762146,24.9967247 63.5452674,25.1166809 63.5488571,25.2381064 C63.5488571,25.3628353 63.5741466,25.4690033 63.6262131,25.557353 C63.6801244,25.647633 63.7535678,25.7247456 63.8411735,25.7830529 C63.9319181,25.8454173 64.0427454,25.899615 64.172168,25.9463883 C64.3023343,25.9931617 64.4451454,26.039935 64.601345,26.0867083 C64.7783712,26.1438757 64.9613479,26.2084675 65.1510189,26.281226 C65.3406898,26.3539845 65.5147408,26.4497585 65.6731719,26.5685479 C65.8323467,26.6880798 65.9625131,26.8387939 66.0636709,27.0199477 C66.1648288,27.201844 66.2154077,27.4275439 66.2154077,27.6970475 C66.2154077,27.9932786 66.1611097,28.2509031 66.05177,28.471406 C65.948612,28.6842331 65.7995016,28.871608 65.6151549,29.0200647 C65.4252649,29.1696463 65.2079903,29.2808568 64.9754803,29.347478 C64.7247057,29.4205813 64.4646554,29.4570911 64.2034079,29.4558734 C63.8448926,29.4558734 63.4938154,29.3897967 63.15092,29.2576435 C62.8245029,29.1370912 62.534577,28.9348758 62.3089297,28.6703783 L63.0103404,28.016294 C63.1457134,28.2033874 63.3264586,28.3511317 63.5525762,28.4602695 C63.7786937,28.5686648 64.0010922,28.623605 64.2190278,28.623605 C64.3335742,28.623605 64.450352,28.6094987 64.5701051,28.5805438 C64.6898581,28.5523313 64.7977102,28.5040731 64.8936614,28.4365116 C64.9896126,28.3689501 65.0677124,28.2850551 65.1279608,28.1833417 C65.1910826,28.0678959 65.2219131,27.9376211 65.2172178,27.8061852 C65.2221929,27.6780718 65.1868156,27.5516238 65.1160599,27.4446199 C65.0432184,27.343618 64.9502903,27.2586965 64.8430825,27.1951621 C64.7152059,27.1193797 64.5792348,27.0581189 64.4377073,27.0125234 L63.9460504,26.8491879 C63.7764255,26.7958573 63.6098168,26.7334015 63.4469555,26.6620946 C63.2828615,26.5908508 63.1313986,26.4935721 62.9984394,26.3740302 C62.8625629,26.2502919 62.7525936,26.100909 62.6748831,25.9345094 C62.5915766,25.7607798 62.5506672,25.5447316 62.5506672,25.2848797 C62.5506672,25.0049821 62.6086842,24.7636911 62.725462,24.5610067 C62.8400386,24.3619133 62.9972553,24.1905365 63.185879,24.0591214 C63.3755499,23.9269681 63.5912542,23.8282244 63.8329917,23.7636327 C64.0747292,23.6982985 64.3201857,23.6663738 64.5701051,23.6663738 Z M41.4547935,23.8059514 L41.4547935,24.6619777 L38.7800611,24.6619777 L38.7800611,26.0629504 L41.3142139,26.0629504 L41.3142139,26.8877945 L38.7800611,26.8877945 L38.7800611,28.4446784 L41.5946294,28.4446784 L41.5946294,29.3162958 L37.7974911,29.3162958 L37.7974911,23.8059514 L41.4547935,23.8059514 Z M51.7104139,23.8059514 C51.9707466,23.8059514 52.2228974,23.8334215 52.4668664,23.8876191 C52.7115791,23.9425592 52.9287709,24.0316513 53.1184419,24.1563802 C53.3081129,24.2811091 53.4598496,24.4444445 53.574396,24.6463866 C53.6889424,24.849071 53.7462156,25.0955591 53.7462156,25.3858507 C53.7462156,25.7852802 53.6331568,26.1112086 53.4070393,26.3628937 C53.1809217,26.6145788 52.8729854,26.7838538 52.4824863,26.8722034 L53.9567132,29.3162958 L52.7710837,29.3162958 L51.4924783,26.9813412 L50.5084207,26.9813412 L50.5084207,29.3162958 L49.5258508,29.3162958 L49.5258508,23.8059514 L51.7104139,23.8059514 Z M71.5648726,23.8059514 L71.5648726,24.6619777 L69.8727101,24.6619777 L69.8727101,29.3162958 L68.8901401,29.3162958 L68.8901401,24.6619777 L67.1979776,24.6619777 L67.1979776,23.8059514 L71.5648726,23.8059514 Z M75.0198593,23.8059514 L77.3985563,29.3162958 L76.2754067,29.3162958 L75.7606918,28.055643 L73.3663748,28.055643 L72.8672798,29.3162958 L71.7679321,29.3162958 L74.1696871,23.8059514 L75.0198593,23.8059514 Z M80.8312288,23.8059514 C81.0908176,23.8059514 81.3429685,23.8334215 81.5876812,23.8876191 C81.8316501,23.9425592 82.048842,24.0316513 82.2385129,24.1563802 C82.4281839,24.2811091 82.5806644,24.4444445 82.6952108,24.6463866 C82.8090134,24.849071 82.8662866,25.0955591 82.8662866,25.3858507 C82.8662866,25.7852802 82.7532278,26.1112086 82.5271103,26.3628937 C82.3009928,26.6145788 81.9930564,26.7838538 81.6033011,26.8722034 L83.0767842,29.3162958 L81.8918985,29.3162958 L80.6125493,26.9813412 L79.6284917,26.9813412 L79.6284917,29.3162958 L78.6459218,29.3162958 L78.6459218,23.8059514 L80.8312288,23.8059514 Z M58.0974906,24.5298244 C57.8118684,24.5298244 57.5530233,24.5817948 57.3216992,24.6857356 C57.090375,24.7896763 56.8910345,24.9322236 56.7251654,25.1133775 C56.5560842,25.2991045 56.4249531,25.5159917 56.3391292,25.7518706 C56.2459414,26.0060243 56.199575,26.2749059 56.2022686,26.5455325 C56.2022686,26.8410212 56.2476408,27.112752 56.3391292,27.3584976 C56.4298737,27.6049856 56.5600401,27.819549 56.7288844,28.0007029 C56.8977288,28.1825992 57.097813,28.3236617 57.3291372,28.4246327 C57.5604614,28.5263461 57.8170751,28.5768316 58.0974906,28.5768316 C58.3779061,28.5768316 58.6360073,28.5263461 58.869563,28.4246327 C59.0986589,28.327162 59.3046812,28.1827322 59.4742786,28.0007029 C59.6431229,27.819549 59.7725455,27.6049856 59.8640338,27.3584976 C59.9547784,27.112752 60.0001506,26.8410212 60.0001506,26.5455325 C60.0001506,26.2604379 59.9547784,25.995389 59.8640338,25.7518706 C59.7776465,25.5162607 59.6465778,25.2994766 59.4779976,25.1133775 C59.3095241,24.9307943 59.1048616,24.7851657 58.877001,24.6857356 C58.6311297,24.5793405 58.3654484,24.5262011 58.0974906,24.5298244 Z M74.5676242,24.9737999 L73.7018321,27.2144654 L75.4177964,27.2144654 L74.5676242,24.9737999 Z M51.6642979,24.6307955 L50.5084207,24.6307955 L50.5084207,26.1795126 L51.5780162,26.1795126 C51.7185958,26.1795126 51.8591755,26.1691185 51.9990113,26.1490728 C52.139591,26.1282846 52.2660383,26.0889356 52.3776094,26.0317682 C52.4890748,25.974712 52.5842617,25.8904279 52.6543059,25.786765 C52.7316275,25.6649707 52.7697805,25.5224851 52.7636456,25.3784264 C52.7690444,25.2477061 52.7337024,25.1185308 52.6624878,25.0086943 C52.5953539,24.9136325 52.5073226,24.8351601 52.4051303,24.7792822 C52.2946056,24.7198687 52.1745377,24.6801712 52.0503341,24.6619777 C51.9226579,24.6416261 51.7935912,24.6312007 51.6642979,24.6307955 Z M80.7843689,24.6307955 L79.6284917,24.6307955 L79.6284917,26.1795126 L80.698831,26.1795126 C80.8386668,26.1795126 80.9792465,26.1691185 81.1198261,26.1490728 C81.2604058,26.1282846 81.3861093,26.0889356 81.4976805,26.0317682 C81.6092939,25.9749285 81.7045304,25.8906005 81.7743769,25.786765 C81.8516985,25.6649707 81.8898515,25.5224851 81.8837166,25.3784264 C81.8895129,25.2476615 81.8541384,25.1183675 81.7825588,25.0086943 C81.7156046,24.9134729 81.6275323,24.834964 81.5252013,24.7792822 C81.4146766,24.7198687 81.2946087,24.6801712 81.1704051,24.6619777 C81.0427357,24.6415694 80.9136646,24.6311436 80.7843689,24.6307955 Z M84.4372084,23.7614054 L84.4372084,24.0078934 L84.0995197,24.0078934 L84.0995197,24.9544966 L83.8109224,24.9544966 L83.8109224,24.0078934 L83.4732337,24.0078934 L83.4732337,23.7614054 L84.4372084,23.7614054 Z M85.131181,23.7614054 L85.4034146,24.5268547 L85.4101089,24.5268547 L85.6704416,23.7614054 L86.0877177,23.7614054 L86.0877177,24.9544966 L85.804327,24.9544966 L85.8110212,24.1103493 L85.8058146,24.1103493 L85.4956468,24.9544966 L85.2925873,24.9544966 L84.9906014,24.1103493 L84.9853947,24.1103493 L84.992089,24.9544966 L84.7205992,24.9544966 L84.7205992,23.7614054 L85.131181,23.7614054 Z" id="Combined-Shape"></path>
            </g>
        </g>
    </g>
</svg>