<?xml version="1.0" encoding="UTF-8"?>
<svg width="70px" height="42px" viewBox="0 0 70 42" version="1.1" xmlns="http://www.w3.org/2000/svg" xmlns:xlink="http://www.w3.org/1999/xlink">
    <!-- Generator: Sketch 58 (84663) - https://sketch.com -->
    <title>euro-accident</title>
    <desc>Created with Sketch.</desc>
    <g id="Page-1" stroke="none" stroke-width="1" fill="none" fill-rule="evenodd">
        <g id="Logos" transform="translate(-211.000000, -79.000000)">
            <g id="euro-accident" transform="translate(211.000000, 79.000000)">
                <path d="M37.899332,35.8928571 C37.9046887,35.8929653 38.3276271,35.9073482 38.6750844,35.9489829 C38.9624001,35.9833 39.3008903,36.0799069 39.4144606,36.1138632 L39.445967,36.1234161 L40.1330898,36.0113809 L40.1333333,39.5595228 C40.1333333,40.5705432 39.220619,41.25 37.8622001,41.25 C37.5181212,41.25 36.8134121,41.2088502 36.382275,41.1490092 L36.2161002,41.1222842 L36.1921167,41.1177422 L36.1921167,40.3489601 L36.2386228,40.3746979 C36.5842539,40.5656769 37.4462011,40.7456253 37.8622001,40.7456253 C38.6858193,40.7456253 39.2551462,40.3233667 39.319276,39.6822478 L39.3253188,39.5595228 L39.3253188,38.5857033 C38.9742092,39.0316813 38.4247788,39.2952236 37.8371208,39.2952236 C36.7542085,39.2952236 36.0266667,38.6018165 36.0266667,37.5698165 C36.0266667,36.6169495 36.7057973,35.961074 37.7341127,35.8978686 L37.899332,35.8928571 L37.9005494,35.8928571 Z M67.5133365,35.9550637 C67.8234908,36.0001578 68.0961606,36.0888809 68.1950856,36.1234371 L68.2264473,36.1346454 L68.6828987,36.0425843 L68.8829232,36.0194271 L68.8826761,37.7123565 L68.8819929,37.7597351 C68.8800159,37.9082135 68.8762945,38.1847376 68.8872261,38.5281224 C68.8992624,38.9061294 69.0227345,39.2868029 69.0484107,39.3622194 L69.0530603,39.37563 L69.0666667,39.4134307 L68.1209693,39.4144524 L68.1289935,39.3797166 C68.1296913,39.3771057 68.1919082,39.1076196 68.2015606,38.9438166 C68.2094685,38.812479 68.2034213,38.7472075 68.1988858,38.699531 C68.1977229,38.6864767 68.1965599,38.674444 68.1958622,38.6627519 C68.1950481,38.6492435 68.19342,38.6349406 68.1916756,38.6212052 C67.866752,39.1432635 67.2984264,39.4642857 66.6896308,39.4642857 C65.6550853,39.4642857 64.96,38.7364235 64.96,37.6531439 C64.96,36.6002865 65.6790417,35.8928571 66.7490567,35.8928571 C66.7524292,35.8928571 67.0910754,35.8935382 67.5133365,35.9550637 Z M24.9651292,35.8928571 L23.0996339,37.6268667 C23.231185,37.765744 23.9801946,38.5542128 24.2142453,38.7459465 C24.426742,38.9201766 24.5960129,39.0559448 24.7173727,39.1496813 C24.8585148,39.2585031 25.0512271,39.375877 25.0986909,39.4043687 L25.109566,39.4108536 L25.2,39.4642857 L24.0443887,39.4642857 L24.0357201,39.4516186 C24.0351344,39.4508125 23.9771488,39.3675552 23.7582093,39.1273411 C23.5503847,38.8995232 22.395899,37.8021029 22.2498581,37.6634143 L22.2347704,37.6490917 L22.2133333,37.6288243 L23.9840602,35.8928571 L24.9651292,35.8928571 Z M14.031278,35.8928571 C14.3254423,35.8928571 14.6261523,35.9195751 14.9617725,35.9761056 L15.2204764,36.0241416 L15.2443407,36.0289542 L15.2443407,36.7750257 L15.1977078,36.7481645 C14.8700604,36.5592403 14.3994705,36.4510118 13.9067208,36.4510118 C13.3832884,36.4510118 13.0034073,36.6082621 13.0034073,36.824831 C13.0034073,37.1356382 13.554722,37.254947 14.0880166,37.3703385 C14.7990762,37.5240073 15.4933333,37.7287125 15.4933333,38.3816649 C15.4933333,39.0798339 14.7972499,39.4642857 13.5332927,39.4642857 C13.2235435,39.4642857 12.8383846,39.4019566 12.3860202,39.2785671 L12.1542755,39.2117899 L12.1333333,39.2055222 L12.1333333,38.4817232 L12.1799662,38.5086963 C12.6162207,38.761416 13.1547509,38.906243 13.6577282,38.906243 C14.2352205,38.906243 14.6232594,38.7277275 14.6232594,38.4620249 C14.6232594,38.1712517 14.1828651,38.0521668 13.650788,37.9371111 C12.9165947,37.7784058 12.1333333,37.5500851 12.1333333,36.844865 C12.1333333,36.2221314 12.7896024,35.8928571 14.031278,35.8928571 Z M28.56,35.8928571 L28.56,36.6117516 L27.9526721,36.6117516 C27.2424053,36.6117516 26.7651948,37.0507165 26.7651948,37.7039989 L26.7643957,37.8108768 C26.7634746,37.9647704 26.7624203,38.2623596 26.7651948,38.5536634 C26.7685921,38.9280585 26.8881348,39.3399795 26.9109478,39.4151915 L26.914677,39.4272796 L26.9264543,39.4642857 L25.9466667,39.4642857 L25.9508567,39.4322743 C25.9514607,39.4279355 26.00074,39.044561 26.0116835,38.8437383 L26.0138204,38.7780838 L26.0138204,35.9437121 L26.7050622,35.9437121 L26.752285,36.6858773 C27.0651474,36.2330531 27.5383298,35.9481571 28.0521218,35.9001001 L28.207358,35.8928571 L28.56,35.8928571 Z M5.9733933,35.8928571 C7.20144769,35.8928571 8.02666667,36.6105005 8.02666667,37.6785714 C8.02666667,38.7466423 7.20144769,39.4642857 5.9733933,39.4642857 C4.74521898,39.4642857 3.92,38.7466423 3.92,37.6785714 C3.92,36.6105005 4.74521898,35.8928571 5.9733933,35.8928571 Z M11.3866667,35.8928571 L11.3866667,36.6117516 L10.7814369,36.6117516 C10.0736238,36.6117516 9.59806193,37.0507165 9.59806193,37.7039989 C9.59794907,37.7093342 9.58745375,38.172932 9.58745375,38.5559337 C9.58745375,38.8999892 9.73117792,39.3337315 9.75858141,39.4134176 L9.76305279,39.426258 L9.77682083,39.4642857 L8.77333333,39.4642857 L8.78021736,39.430231 C8.78091956,39.4272039 8.83494402,39.1577038 8.84694079,38.8814769 L8.8492833,38.7780838 L8.8492833,35.9437121 L9.53813707,35.9437121 L9.58530955,36.6859908 C9.89709119,36.2330635 10.3686388,35.948158 10.8806559,35.9001002 L11.0353558,35.8928571 L11.3866667,35.8928571 Z M30.2611456,35.8928571 L30.2607841,38.3801466 C30.2610371,38.447586 30.2614058,38.5161407 30.2619263,38.5835902 C30.2647371,38.9439876 30.3846501,39.3354981 30.409648,39.413382 L30.4141745,39.4272546 L30.4266667,39.4642857 L29.3066667,39.4640557 L29.313173,39.4304747 C29.3140839,39.4259896 29.3991867,38.9874819 29.3976252,38.8075017 C29.3963239,38.6533014 29.3971915,38.5815201 29.3975168,38.5618764 L29.3976252,35.8928571 L30.2611456,35.8928571 Z M55.3800032,35.9550637 C55.6901575,36.0001578 55.9628273,36.0888809 56.0617523,36.1234371 L56.093114,36.1346454 L56.5495653,36.0425843 L56.7495899,36.0194271 L56.7493427,37.7123565 L56.7486595,37.7597351 C56.7466825,37.9082135 56.7429611,38.1847376 56.7538927,38.5281224 C56.7659291,38.9061294 56.8894012,39.2868029 56.9150774,39.3622194 L56.919727,39.37563 L56.9333333,39.4134307 L55.9876359,39.4144524 L55.9956602,39.3797166 C55.9963579,39.3771057 56.0585749,39.1076196 56.0682272,38.9438166 C56.0761352,38.812479 56.0700879,38.7472075 56.0655525,38.699531 C56.0643895,38.6864767 56.0632266,38.674444 56.0625289,38.6627519 C56.0617148,38.6492435 56.0600867,38.6349406 56.0583423,38.6212052 C55.7335349,39.1432635 55.1650931,39.4642857 54.5562975,39.4642857 C53.5217519,39.4642857 52.8266667,38.7364235 52.8266667,37.6531439 C52.8266667,36.6002865 53.5457083,35.8928571 54.6157234,35.8928571 C54.6192122,35.8928571 54.9577421,35.8935382 55.3800032,35.9550637 Z M18.7932926,35.9550637 C19.1034557,36.0001578 19.376044,36.0888809 19.4750275,36.1234371 L19.5064235,36.1346454 L19.9628877,36.0425843 L20.162918,36.0194271 L20.1626854,37.7123565 L20.1621039,37.7597351 C20.1600105,37.9082135 20.1562891,38.1847376 20.1672209,38.5281224 C20.1792577,38.9064359 20.3027333,39.2868642 20.3284102,39.3622286 L20.33306,39.37563 L20.3466667,39.4134307 L19.4009425,39.4144524 L19.4089669,39.3797166 C19.4096647,39.3771057 19.4717671,39.1076196 19.481536,38.9438166 C19.4894441,38.8125925 19.4833968,38.747321 19.4788612,38.699531 C19.4776982,38.6864767 19.4765353,38.674444 19.4758375,38.6627519 C19.4749071,38.6492435 19.4733953,38.6349406 19.4716508,38.6212052 C19.1468343,39.1432635 18.5783764,39.4642857 17.9695635,39.4642857 C16.9351049,39.4642857 16.24,38.7364235 16.24,37.6531439 C16.24,36.6002865 16.9589457,35.8928571 18.0289911,35.8928571 C18.0323637,35.8928571 18.3710195,35.8935382 18.7932926,35.9550637 Z M33.5104934,35.8928571 C34.4697261,35.8928571 35.1142272,36.3136596 35.1142272,36.9401523 L35.1137333,36.9969606 C35.1118227,37.2254387 35.1052755,38.0853736 35.1102013,38.5315278 C35.1155835,38.9947748 35.2378091,39.3518236 35.261144,39.4157276 L35.264962,39.4259174 L35.28,39.4642857 L34.259313,39.4642857 L34.2640494,39.4319338 C34.2646809,39.4280995 34.3150852,39.087205 34.3262783,38.8578667 L34.328464,38.7779703 L34.328464,37.0418623 C34.328464,36.6627201 33.9753678,36.407991 33.4499864,36.407991 C32.6651704,36.407991 32.0267082,37.0122347 32.0267082,37.7549674 L32.0272081,37.8736964 C32.0276028,38.0020783 32.0278923,38.2296141 32.0267082,38.5604743 C32.0250031,39.0524964 32.130527,39.3568534 32.1525983,39.4150389 L32.1566031,39.4252363 L32.1731803,39.4642857 L31.1733333,39.4642857 L31.1781881,39.4318202 C31.1788196,39.4281877 31.2280077,39.101487 31.2389305,38.8627037 L31.2410634,38.7780838 L31.2410634,35.9437121 L31.9637145,35.9437121 L32.014512,36.6645364 C32.3618061,36.1798246 32.9147769,35.8928571 33.5104934,35.8928571 Z M44.9853886,35.6743421 L44.9853886,37.1545826 L46.4927536,37.1545826 L46.4927536,37.8947595 L44.9853886,37.8947595 L44.9853886,39.375 L44.231884,39.375 L44.231884,37.8947595 L42.7246377,37.8947595 L42.7246377,37.1545826 L44.231884,37.1545826 L44.231884,35.6743421 L44.9853886,35.6743421 Z M62.7754352,35.625 C63.1024045,35.625 63.4364739,35.6530539 63.8093684,35.7124108 L64.0968146,35.7628486 L64.1233315,35.7679019 L64.1233315,36.551277 L64.0716507,36.5230727 C63.7075847,36.3247023 63.184688,36.2110624 62.6371686,36.2110624 C62.0554207,36.2110624 61.6333152,36.3761752 61.6333152,36.6035725 C61.6333152,36.9299201 62.2460446,37.0551943 62.8386157,37.1763554 C63.6287105,37.3377076 64.4,37.5526481 64.4,38.2382482 C64.4,38.9713256 63.6266812,39.375 62.2222335,39.375 C61.8780552,39.375 61.4499859,39.3095545 60.9473974,39.1799955 L60.6899366,39.1098793 L60.6666667,39.1032983 L60.6666667,38.3433093 L60.7183475,38.3716311 C61.2030923,38.6369868 61.8016162,38.7890552 62.3605001,38.7890552 C63.0021816,38.7890552 63.4333515,38.6016139 63.4333515,38.3226261 C63.4333515,38.0173143 62.9440068,37.8923927 62.3526533,37.7714666 C61.5369886,37.6048261 60.6666667,37.3650893 60.6666667,36.6246083 C60.6666667,35.970738 61.3958809,35.625 62.7754352,35.625 Z M48.8418676,33.75 L48.8418676,36.4121593 C49.1887388,35.9424437 49.7343442,35.6647502 50.3200506,35.6647502 C51.2190835,35.6647502 51.8405246,36.024035 51.9105244,36.5697437 L51.9171204,36.6742065 L51.9171204,38.2315002 C51.9178634,38.6109162 52.0374508,38.9841284 52.0624786,39.0580076 L52.0670262,39.0711456 L52.08,39.1071429 L51.0695801,39.1071429 L51.073708,39.0763974 C51.0742322,39.0724099 51.1220036,38.721063 51.132613,38.515088 L51.1346847,38.445624 L51.1346847,36.7722417 C51.1346847,36.406798 50.7829778,36.1612723 50.2596636,36.1612723 C49.5239196,36.1612723 48.9172031,36.6966618 48.8483705,37.3790286 L48.8418676,37.5086 L48.8418676,38.2271237 C48.8418676,38.601419 48.9470505,38.983159 48.9690329,39.058795 L48.9730205,39.0722397 L48.9837533,39.1071429 L47.9733333,39.1071429 L47.9786408,39.0755221 C47.9793746,39.0713401 48.0426388,38.6958518 48.0566885,38.5067227 L48.0594319,38.445624 L48.0594319,33.75 L48.8418676,33.75 Z M21.9916168,33.75 L21.9913713,35.8332756 C21.9908802,36.8794951 21.9896525,37.9820356 21.9867061,38.2271237 C21.9814026,38.6618814 22.1481319,38.9915291 22.1830523,39.0556635 L22.1893938,39.0669878 L22.2133333,39.1071429 L21.0933333,39.1071429 L21.1020893,39.0594007 C21.1141359,38.9918415 21.1606118,38.7237799 21.1736448,38.5331812 L21.1770601,38.445624 L21.1770601,33.75 L21.9916168,33.75 Z M2.5283853,33.75 C2.88117724,33.75 3.16624427,33.7699499 3.39443711,33.8107907 L3.52461472,33.8378096 L3.54666667,33.8430131 L3.54666667,34.5231579 L3.50161936,34.497357 C3.23475535,34.3446117 2.84359851,34.2420588 2.5283853,34.2420588 C2.09058917,34.2420588 1.84185611,34.4744343 1.80344085,34.9161388 L1.79819443,35.0417764 L1.79819443,35.7443614 L3.30551028,35.7443614 L3.30551028,36.2364202 L1.79819443,36.2364202 L1.79737987,36.5236727 C1.7960808,37.0264581 1.79416813,37.9805785 1.7971331,38.2321909 C1.80052934,38.5386463 1.93927622,38.9695279 1.96828114,39.056275 L1.97354872,39.0718022 L1.98581291,39.1071429 L0.933333333,39.1071429 L0.939819202,39.0751628 C0.940526751,39.071477 1.0142298,38.7002918 1.01446565,38.4510644 L1.01530702,37.2401783 L1.01534871,37.1324668 L1.0159692,35.0529423 L1.0165883,35.0417764 L1.01588075,35.0417764 L1.02145613,34.8982831 C1.08070843,34.1561995 1.61051351,33.75 2.5283853,33.75 Z M58.9707361,33.75 L58.9703435,37.7091974 C58.9701316,37.8007567 58.9702022,37.9504149 58.9716153,38.224826 C58.9738761,38.6297464 59.1196897,38.986809 59.1502032,39.0570438 L59.155749,39.0695043 L59.1733333,39.1071429 L58.0533333,39.1071429 L58.0579807,39.0761786 C58.0586505,39.0716075 58.120751,38.6652996 58.1345428,38.4723234 L58.137236,38.4111585 L58.137236,33.75 L58.9707361,33.75 Z M38.0207671,36.2505075 L37.9330138,36.2501109 C37.2391247,36.2501109 36.7733333,36.7461866 36.7733333,37.4843695 C36.7733333,38.2413977 37.2452194,38.75 37.9474077,38.75 C38.6943337,38.75 39.3101959,38.2272988 39.3800657,37.5610974 L39.3866667,37.4345956 L39.3866667,36.738205 C39.3261086,36.6929762 39.0239666,36.4719315 38.7969063,36.385243 C38.6506333,36.3292613 38.4672733,36.2861387 38.2938983,36.2665174 C38.2288017,36.2591455 38.1607549,36.2550162 38.101526,36.2527298 L38.0207671,36.2505075 Z M54.6292619,36.25 C54.5801386,36.25 54.5286814,36.2516638 54.4745568,36.2553241 C53.9355342,36.2920382 53.5733333,36.7856271 53.5733333,37.4836395 C53.5733333,38.2411043 53.9776559,38.75 54.5795829,38.75 C55.2174495,38.75 55.7436672,38.2506702 55.8069527,37.6129267 L55.8133333,37.4836395 L55.8133333,36.7357137 C55.7773244,36.699665 55.6172847,36.5449332 55.4090108,36.4341253 C55.3098751,36.3814388 55.0632584,36.25 54.6292619,36.25 Z M5.97339752,36.25 C5.19179789,36.25 4.66666667,36.7523211 4.66666667,37.5 C4.66666667,38.2476789 5.19179789,38.75 5.97339752,38.75 C6.75499713,38.75 7.28,38.2476789 7.28,37.5 C7.28,36.7523211 6.75499713,36.25 5.97339752,36.25 Z M18.0424317,36.25 C17.9933108,36.25 17.9418561,36.2517747 17.8879566,36.2553241 C17.3488497,36.2920382 16.9866667,36.7856271 16.9866667,37.4836395 C16.9866667,38.2411043 17.3909691,38.75 17.9928663,38.75 C18.6307012,38.75 19.1569905,38.2506702 19.2202851,37.6129267 L19.2266667,37.4836395 L19.2266667,36.7357137 C19.1905483,36.699665 19.0305167,36.5449332 18.8222531,36.4341253 C18.7231223,36.3814388 18.4764067,36.25 18.0424317,36.25 Z M66.762484,36.25 C66.7133607,36.25 66.6619036,36.2517747 66.6078902,36.2553241 C66.0688676,36.2920382 65.7066667,36.7856271 65.7066667,37.4836395 C65.7066667,38.2411043 66.1109892,38.75 66.7129162,38.75 C67.3507828,38.75 67.8770005,38.2506702 67.9402861,37.6129267 L67.9466667,37.4836395 L67.9466667,36.7357137 C67.9106577,36.699665 67.750618,36.5449332 67.5423441,36.4341253 C67.4430973,36.3814388 67.1962584,36.25 66.762484,36.25 Z M17.5465388,34.4642857 C17.8553633,34.4642857 18.1066667,34.6245559 18.1066667,34.8214286 C18.1066667,35.0183989 17.8553633,35.1785714 17.5465388,35.1785714 C17.2378422,35.1785714 16.9866667,35.0183989 16.9866667,34.8214286 C16.9866667,34.6245559 17.2378422,34.4642857 17.5465388,34.4642857 Z M19.4132055,34.4642857 C19.72203,34.4642857 19.9733333,34.6245559 19.9733333,34.8214286 C19.9733333,35.0183989 19.72203,35.1785714 19.4132055,35.1785714 C19.1045088,35.1785714 18.8533333,35.0183989 18.8533333,34.8214286 C18.8533333,34.6245559 19.1045088,34.4642857 19.4132055,34.4642857 Z M5.22653884,34.4642857 C5.53536331,34.4642857 5.78666667,34.6245559 5.78666667,34.8214286 C5.78666667,35.0183989 5.53536331,35.1785714 5.22653884,35.1785714 C4.9178422,35.1785714 4.66666667,35.0183989 4.66666667,34.8214286 C4.66666667,34.6245559 4.9178422,34.4642857 5.22653884,34.4642857 Z M7.0932055,34.4642857 C7.40202997,34.4642857 7.65333333,34.6245559 7.65333333,34.8214286 C7.65333333,35.0183989 7.40202997,35.1785714 7.0932055,35.1785714 C6.78438104,35.1785714 6.53333333,35.0183989 6.53333333,34.8214286 C6.53333333,34.6245559 6.78438104,34.4642857 7.0932055,34.4642857 Z M29.8665521,34.1071429 C30.1754624,34.1071429 30.4266667,34.3474265 30.4266667,34.6427258 C30.4266667,34.9381565 30.1754624,35.1785714 29.8665521,35.1785714 C29.5578709,35.1785714 29.3066667,34.9381565 29.3066667,34.6427258 C29.3066667,34.3474265 29.5578709,34.1071429 29.8665521,34.1071429 Z M54.1332055,34.4642857 C54.44203,34.4642857 54.6933333,34.6245559 54.6933333,34.8214286 C54.6933333,35.0183989 54.44203,35.1785714 54.1332055,35.1785714 C53.8245088,35.1785714 53.5733333,35.0183989 53.5733333,34.8214286 C53.5733333,34.6245559 53.8245088,34.4642857 54.1332055,34.4642857 Z M55.9998721,34.4642857 C56.3086966,34.4642857 56.56,34.6245559 56.56,34.8214286 C56.56,35.0183989 56.3086966,35.1785714 55.9998721,35.1785714 C55.6911755,35.1785714 55.44,35.0183989 55.44,34.8214286 C55.44,34.6245559 55.6911755,34.4642857 55.9998721,34.4642857 Z" id="Combined-Shape" fill="#FFFFFF" fill-rule="nonzero"></path>
                <path d="M70,22.6371952 L70,30.9375 L0,30.9375 L0,22.6371952 L70,22.6371952 Z M24.230422,24.375 C22.8037954,24.375 21.6231884,25.1915808 21.6231884,26.6591758 C21.6231884,27.8845062 22.4958526,28.8157895 24.1255827,28.8157895 C24.6987916,28.8157895 25.1393077,28.7138317 25.33488,28.6241594 L25.1438503,27.7221545 C24.8589792,27.7836966 24.6556365,27.8074638 24.2843359,27.8159602 C23.5126856,27.8336421 23.0285363,27.5178945 23.0285363,26.6563053 C23.0285363,25.6997622 23.5809446,25.3953815 24.2843359,25.3578363 C24.6612551,25.3376284 24.9564068,25.4062892 25.1732579,25.4891873 L25.3913043,24.5662857 C25.2023068,24.4775319 24.7828303,24.375 24.230422,24.375 Z M16.3173048,24.375 C14.8908268,24.375 13.7101449,25.1915808 13.7101449,26.6591758 C13.7101449,27.8845062 14.5828644,28.8157895 16.2124589,28.8157895 C16.7857041,28.8157895 17.2263678,28.7138317 17.4219525,28.6241594 L17.1781888,27.7036689 C16.9683774,27.7803669 16.6318425,27.8321495 16.2815592,27.85385 C15.5960559,27.8962176 15.0818688,27.5071017 15.0818688,26.6456273 C15.0818688,25.6889694 15.6842843,25.3915926 16.4011098,25.3422211 C16.8555217,25.310876 17.2230203,25.4904503 17.2230203,25.4904503 L17.4782609,24.5662857 C17.2892514,24.4775319 16.8698677,24.375 16.3173048,24.375 Z M31.4202899,24.375 L29.9130434,24.375 L29.9130434,28.8157895 L31.4202899,28.8157895 L31.4202899,24.375 Z M8.02877901,24.375 L6.13782619,24.3752363 L4.66666667,28.8157895 L6.03551414,28.7996055 L6.3503591,27.7849763 L7.84348747,27.7769434 L8.18720578,28.7996055 L9.56521739,28.8157895 L8.02877901,24.375 Z M57.4202898,24.375 L56.1682685,24.375 L56.1682685,25.6667475 C56.1913681,26.3917622 56.1945066,26.4496211 56.2332988,27.1610011 L56.2114547,27.1610011 C55.9539699,26.7083263 55.812485,26.4768907 55.5178401,25.9803475 L54.6282559,24.3779641 L52.8985507,24.375 L52.8985507,28.8157895 L54.1984032,28.8157895 L54.1984032,27.4782766 C54.1984032,26.7538546 54.1951391,26.4204545 54.1657626,25.8341589 L54.1878577,25.8274008 C54.452624,26.3569046 54.6978057,26.7762631 54.9359572,27.1874407 C55.173983,27.5986183 55.8414851,28.8157895 55.8414851,28.8157895 L57.4202898,28.8157895 L57.4202898,24.375 Z M65.3333333,24.375 L61.5652174,24.375 L61.5652174,25.4040111 L62.7744025,25.4040111 L62.7744025,28.8157895 L64.1236635,28.8157895 L64.1236635,25.4040111 L65.3333333,25.4040111 L65.3333333,24.375 Z M44.9855073,24.375 L44.9855073,28.8121153 L48.3768116,28.8157895 L48.3690793,27.8275514 L46.3226856,27.8269588 L46.3226856,26.9824882 L48.1618287,26.9818956 L48.1618287,26.0770972 L46.3226856,26.078875 L46.3226856,25.3019621 L48.2646301,25.3019621 L48.2729961,24.3765408 L44.9855073,24.375 Z M37.6429665,24.375 C37.0861252,24.375 36.3465549,24.428241 35.942029,24.4866081 L35.942029,28.7547429 C36.2163697,28.7868972 36.8332965,28.8157895 37.40485,28.8157895 C38.3586756,28.8157895 39.1397865,28.6346302 39.6537272,28.2523901 C40.1237784,27.8969452 40.4637681,27.3207307 40.4637681,26.4853012 C40.4637681,25.7149958 40.1452905,25.1774597 39.6392622,24.840888 C39.1690874,24.5241214 38.5687275,24.375 37.6429665,24.375 Z M37.942007,25.4868508 C38.7296223,25.5006695 39.2068897,25.7590234 39.1999248,26.618987 C39.1999248,27.6082935 38.761141,27.8922948 37.8080228,27.8857724 C37.6771077,27.8857724 37.5387556,27.9019126 37.4492754,27.8835614 L37.4492754,25.4868508 C37.5804265,25.4881774 37.6928081,25.4825394 37.942007,25.4868508 Z M7.13313273,25.4851974 C7.20916105,25.7373189 7.27182604,25.8822802 7.36264486,26.1350828 L7.68115942,26.9654605 L6.55072464,26.9654605 L6.85405948,26.1350828 C6.93774254,25.8886372 6.98587651,25.7373189 7.06138587,25.4851974 L7.13313273,25.4851974 Z" id="Combined-Shape" fill="#FFFFFE"></path>
                <path d="M32.5655394,0.754573171 L32.5668449,17.22336 C31.6482389,20.497321 24.5091033,20.7507622 24.5091033,20.7507622 C18.3570359,20.7507622 16.5389132,17.3552138 16.4724949,17.2270799 L16.4705882,17.22336 L16.4705882,0.773514048 L21.8519106,0.773514048 L21.8217652,16.4274765 C21.8217652,16.4274765 21.9897015,17.9838056 24.4529663,17.9838056 C26.8368856,17.9838056 27.0256026,16.5802823 27.0352972,16.4897324 L27.0357446,16.4851546 L27.0804881,0.773514048 L32.5655394,0.754573171 Z M62.0186117,0 C69.0105276,0 69.9687514,3.95182312 69.999225,4.08578322 L70,4.08926762 L70.000152,16.6475745 C69.9990342,16.7618678 69.6961177,20.3658155 62.0609727,20.3734756 C54.9714557,20.3805057 53.6173739,16.8463964 53.5337183,16.6067877 L53.5294118,16.5940291 L53.5294118,4.08926762 C53.811699,3.4591592 54.9062652,0 62.0186117,0 Z M36.7261908,0.773723814 C39.1777566,0.801980018 43.6577386,1.03639737 47.1463824,2.19866114 C48.5831476,2.67731882 50.1311806,3.71976658 50.7569585,5.40531586 C51.564865,7.58116484 50.8792465,11.1376871 48.5769857,13.0868801 C51.4220341,15.4263681 53.43618,19.7920388 53.5262625,19.9892699 L53.5294118,19.996189 L47.6062657,19.996189 C47.6062657,19.996189 46.8314197,17.1361276 44.6369904,15.2895301 C42.957157,15.5797197 40.6775485,15.6035007 40.2238821,15.6053154 L40.1434998,15.6054417 L40.1434998,19.996189 L34.8128342,19.996189 L34.8312012,0.793127216 L35.0168845,0.783789329 C35.1216351,0.776634325 35.2957059,0.778210852 35.395361,0.770813304 C35.684136,0.749348291 36.1437825,0.748014307 36.7261908,0.773723814 Z M14.5989305,0.754573171 L14.5989305,3.63600023 L5.32005243,3.63866867 L5.32005243,7.92830285 L12.8084708,7.92806026 L12.8084708,10.8506055 L5.36493328,10.8506055 L5.36493328,17.1080909 L14.5989305,17.1080909 L14.5989305,19.996189 L0,19.996189 L0,0.754573171 L14.5989305,0.754573171 Z M61.8632464,2.6410061 C59.8433687,2.6410061 59.1443851,3.91938283 59.1443851,3.91938283 L59.1443851,3.91938283 L59.2429834,16.2153199 C59.2429834,16.2153199 59.6580917,17.7879435 61.7647638,17.7309574 C63.8721301,17.6737293 64.37438,16.272427 64.37438,16.272427 L64.37438,16.272427 L64.3850267,3.91938283 C64.3850267,3.91938283 63.8830084,2.6410061 61.8632464,2.6410061 Z M40.0534759,4.15015244 L40.0534759,12.8276182 C40.4200951,12.8348547 44.1467854,12.5386473 45.3622074,9.62404031 C45.9570577,8.19746138 45.6841463,6.5244723 44.5537374,5.48425086 C43.6485409,4.65131325 42.2971462,4.28347642 40.0534759,4.15015244 Z" id="Combined-Shape" fill="#FFFFFE" fill-rule="nonzero"></path>
            </g>
        </g>
    </g>
</svg>