<svg xmlns="http://www.w3.org/2000/svg" width="60" height="60" viewBox="0 0 60 60">
    <g fill="none" fill-rule="nonzero">
        <rect width="60" height="60" fill="#E7F7FF" rx="6"/>
        <g stroke="#008FFF" stroke-width="1.5">
            <path stroke-linecap="round" d="M42.537 30.755s-.819.354-2.257.354c-1.438 0-2.256-.354-2.256-.354"/>
            <path stroke-linecap="round" d="M42.576 43.648v3.43l2.435 1.797v-6.346l-.665-.68a3.213 3.213 0 0 1-.803-3.053c1.689-6.604-3.263-11.075-3.263-11.075s-4.968 4.486-3.253 11.108a3.207 3.207 0 0 1-.768 3.018l-.647.682v6.346l2.435-1.796v-3.43M40.28 42.962v5.912"/>
            <path stroke-linecap="round" d="M42.056 35.879c0 .96-.781 1.737-1.744 1.737a1.74 1.74 0 0 1-1.744-1.737c0-.96.78-1.737 1.744-1.737a1.74 1.74 0 0 1 1.744 1.737"/>
            <path stroke-linecap="square" stroke-linejoin="round" d="M15.513 29.876a5.12 5.12 0 0 0 4.944 3.775 5.12 5.12 0 0 0 4.944-3.775L26.758 49.8H14.157l1.356-19.924z"/>
            <path stroke-linecap="round" d="M18.13 28.545a2.323 2.323 0 0 1 2.328-2.318 2.323 2.323 0 0 1 2.327 2.318 2.323 2.323 0 0 1-2.327 2.32 2.323 2.323 0 0 1-2.328-2.32zM22.785 12.475a2.323 2.323 0 0 1 2.328-2.319 2.323 2.323 0 0 1 2.328 2.319 2.323 2.323 0 0 1-2.328 2.318 2.323 2.323 0 0 1-2.328-2.318zM36.006 13.76h-6.844M28.665 10.156h11.647"/>
            <path stroke-linecap="round" stroke-linejoin="round" d="M25.657 16.67l-2.872 7.592a4.88 4.88 0 0 0-2.328-.588c-.842 0-1.635.213-2.327.588l3.54-9.314"/>
            <path stroke-linecap="round" d="M37.929 13.76v3.21h4.765v-4.44a2.378 2.378 0 0 0-2.382-2.374M38.423 19.125c0 1.039.846 1.881 1.889 1.881a1.885 1.885 0 0 0 1.888-1.881M40.28 22.702v3.36M37.458 21.436l-2.745 3.637 1.373 4.414M43.113 21.436l2.746 3.637-1.373 4.414"/>
        </g>
    </g>
</svg>
