<?xml version="1.0" encoding="UTF-8"?>
<svg width="50px" height="55px" viewBox="0 0 50 55" version="1.1" xmlns="http://www.w3.org/2000/svg" xmlns:xlink="http://www.w3.org/1999/xlink">
    <!-- Generator: Sketch 58 (84663) - https://sketch.com -->
    <title>hadi</title>
    <desc>Created with Sketch.</desc>
    <g id="Page-1" stroke="none" stroke-width="1" fill="none" fill-rule="evenodd">
        <g id="Logos" transform="translate(-652.000000, -72.000000)" fill="#FFFFFF" fill-rule="nonzero">
            <g id="hadi" transform="translate(652.000000, 72.000000)">
                <path d="M35.623529,13.4146341 L30.754337,13.4146341 C30.4374619,13.4146341 30.1767768,13.6656693 30.1583538,13.9787685 L30.1583538,23.247617 L13.841126,27.6208165 C13.5961005,27.6958491 13.4146341,27.9227998 13.4146341,28.1942142 L13.4164764,28.1969931 C13.4164764,28.2016248 13.4146341,28.2053301 13.4146341,28.2099617 L13.4146341,33.4085204 C13.4146341,33.4122257 13.4146341,34.5154835 13.4146341,35.794744 C13.4146341,37.5677378 13.4146341,39.6788417 13.4146341,39.6788417 C13.4330571,39.991941 13.6928211,40.2439024 14.0106174,40.2439024 C14.0253558,40.2439024 18.8705978,40.2439024 18.8798094,40.2439024 C19.1966845,40.2439024 19.4573696,39.991941 19.4757926,39.6788417 L19.4757926,32.4368012 L30.1583538,29.5586968 L35.7994683,28.0385909 L35.8077587,28.027475 C36.0380459,27.9505896 36.205695,27.743092 36.2158276,27.4874251 L36.2195122,27.4827935 L36.2195122,22.259224 C36.2195122,22.2564449 36.2195122,21.3616111 36.2195122,20.2490899 C36.2195122,20.2444582 36.2195122,17.8211814 36.2195122,15.9889026 C36.2195122,15.2339444 36.2195122,14.5864404 36.2195122,14.2427724 C36.2195122,14.0797384 36.2195122,13.9787685 36.2195122,13.9787685 C36.2010892,13.6656693 35.9404041,13.4146341 35.623529,13.4146341" id="Fill-40"></path>
                <path d="M46.2856153,38.0344352 C46.2856153,39.1391213 45.6870535,40.1702247 44.7242324,40.7230395 L36.5891043,45.393664 C36.5891043,41.3588708 36.5891043,33.0081601 36.5891043,33.0081601 C36.5891043,32.6713771 36.3140125,32.3987432 35.975365,32.3987432 C35.9393186,32.3987432 35.903272,32.40063 35.8691228,32.4062902 C35.8691228,32.4062902 35.856791,32.4100637 35.8378192,32.4157239 C35.8378192,32.4157239 30.8007937,33.7543658 30.7296494,33.7836102 C30.7277521,33.7845537 30.7268036,33.785497 30.7249064,33.7864403 C30.5038843,33.8788906 30.3473666,34.093979 30.3473666,34.3477455 C30.3473666,34.3562357 30.3473666,48.8699822 30.3473666,48.8699822 C30.3473666,48.9039435 30.3615955,48.9341313 30.3672871,48.966206 L26.3775075,51.2576515 C25.4146864,51.8104663 24.2175628,51.8104663 23.2547416,51.2576515 L4.90991403,40.7239828 C3.9461442,40.1702247 3.34853101,39.1391213 3.34853101,38.0344352 L3.34853101,16.9661545 C3.34853101,15.8605249 3.9461442,14.830365 4.90896544,14.2775502 L13.1048034,9.5710776 C13.1048034,9.63145327 13.1048034,9.72296015 13.1048034,9.84654161 C13.1048034,11.9059182 13.1048034,22.2858176 13.1048034,22.2858176 L13.1048034,24.3329303 C13.1048034,24.352741 13.1048034,24.3687784 13.1048034,24.3687784 C13.1048034,24.7055613 13.3789466,24.9791387 13.7185427,24.9791387 C13.7545891,24.9791387 13.7896871,24.9763086 13.824785,24.969705 C13.824785,24.969705 13.8371166,24.9659315 13.8551399,24.9602713 C13.8551399,24.9602713 18.8931139,23.6216294 18.9642584,23.5933283 C18.9661555,23.5923848 18.9671041,23.5914415 18.9690012,23.5904982 C19.1900233,23.4980479 19.3465411,23.2829595 19.3465411,23.029193 C19.3465411,23.029193 19.3465411,23.0131558 19.3465411,22.9933449 C19.3465411,22.9905149 19.3465411,22.0792195 19.3465411,20.9462322 C19.3465411,20.9424588 19.3465411,12.7068392 19.3465411,8.50695631 C19.3465411,7.07020391 19.3465411,6.1041931 19.3465411,6.1041931 C19.3465411,6.06834504 19.335158,6.03438372 19.3218776,6.00136578 L23.2547416,3.7419948 C24.2175628,3.19012337 25.4146864,3.19012337 26.3775075,3.7419948 L44.7242324,14.2775502 C45.6870535,14.830365 46.2856153,15.8605249 46.2856153,16.9661545 L46.2856153,38.0344352 Z M46.3984978,11.3936683 L28.0508245,0.85811291 C26.0549862,-0.286194817 23.5763144,-0.286194817 21.5814246,0.85905628 L3.23469992,11.3936683 C1.23981021,12.5408061 0,14.674709 0,16.9661545 L0,38.0344352 C0,40.323994 1.23886161,42.4597835 3.23469992,43.605978 L21.5814246,54.14059 C22.5783952,54.714159 23.6977342,55 24.8161246,55 C25.934515,55 27.053854,54.714159 28.0517731,54.14059 L46.3994464,43.605978 C48.3943361,42.4597835 49.6341463,40.323994 49.6341463,38.0344352 L49.6341463,16.9661545 C49.6341463,14.674709 48.3943361,12.5398628 46.3984978,11.3936683 L46.3984978,11.3936683 Z" id="Fill-38"></path>
            </g>
        </g>
    </g>
</svg>