<?xml version="1.0" encoding="UTF-8"?>
<svg width="70px" height="57px" viewBox="0 0 70 57" version="1.1" xmlns="http://www.w3.org/2000/svg" xmlns:xlink="http://www.w3.org/1999/xlink">
    <!-- Generator: Sketch 58 (84663) - https://sketch.com -->
    <title>harley-davidson</title>
    <desc>Created with Sketch.</desc>
    <g id="Page-1" stroke="none" stroke-width="1" fill="none" fill-rule="evenodd">
        <g id="Logos" transform="translate(-81.000000, -70.000000)" fill="#FFFFFF">
            <path d="M151,88.0407879 L136.137402,88.0407879 C136.228962,86.3241685 137.547773,84.9658168 139.161512,84.9658168 L139.161512,77.7966321 C125.432846,77.2783893 119.006942,72.4446498 116.049742,70 C113.092541,72.4446498 106.64991,77.2783893 92.9203632,77.7966321 L92.9203632,84.9658168 C94.5341022,84.9658168 95.8529134,86.3241685 95.9444731,88.0407879 L81,88.0407879 L81,107.864293 L94.8897763,107.864293 C94.8897763,108.497488 94.5790016,110.373124 90.8470652,110.821438 C93.404573,113.356133 108.310309,127 116.049742,127 C123.789174,127 138.734527,113.356133 141.292035,110.821438 C137.802203,110.411441 137.249324,108.758046 137.249324,107.864293 L151,107.864293 L151,88.0407879 Z M94.4372603,83.7415761 L94.4399014,79.269936 C106.863843,78.5744752 112.994818,74.5521066 116.049742,72.0796767 C119.326521,74.5865923 125.218033,78.5744752 137.641974,79.269936 L137.635811,83.7415761 C135.945479,84.3996773 134.725271,86.0042183 134.668046,88.0407879 L133.17668,88.0407879 C133.225101,85.7350386 134.393367,83.845033 136.117154,82.74245 L136.121556,80.7173756 C126.08873,79.9548594 119.538693,76.6001714 116.049742,74.0108734 C113.003622,76.4239114 106.878809,79.6569417 95.9612003,80.7173756 L95.9647219,82.74245 C97.6893889,83.845033 98.8567745,85.7350386 98.9051955,88.0407879 L97.4138295,88.0407879 C97.3566047,86.0042183 96.1275924,84.3996773 94.4372603,83.7415761 L94.4372603,83.7415761 Z M131.824414,86.2178378 L131.824414,88.0407879 L130.200991,88.0407879 L130.200991,86.6086752 C130.200991,86.1613196 129.700054,85.9563215 129.474676,85.9563215 L127.919923,85.9563215 L127.919923,88.0407879 L126.2965,88.0407879 L126.2965,80.3466548 L130.200991,81.2231652 C130.753871,81.3524864 131.824414,81.7442818 131.824414,82.9005092 L131.824414,84.1486984 C131.824414,84.596054 131.772472,84.9878494 131.254808,85.2675663 C131.496032,85.4160462 131.824414,85.9189621 131.824414,86.2178378 L131.824414,86.2178378 Z M124.914301,81.6331614 L124.914301,86.3299161 C124.931909,86.9075509 124.620254,88.0407879 123.20372,88.0407879 L121.07936,88.0407879 C120.370653,88.0407879 119.455057,87.6336655 119.455057,86.2551972 L119.455057,79.3963834 C119.455057,78.5754332 120.232433,78.0533587 121.096968,78.3895938 L123.930035,79.564022 C124.620254,79.8619397 124.931909,80.5142934 124.914301,81.6331614 L124.914301,81.6331614 Z M113.097823,79.4893031 L113.097823,77.5504428 L116.049742,75.8165807 L119.144282,77.6443205 L119.144282,79.5822227 L117.002314,78.3330756 L117.002314,88.0407879 L115.240671,88.0407879 L115.240671,78.2219552 L113.097823,79.4893031 L113.097823,79.4893031 Z M112.890933,79.3963834 L112.890933,86.2551972 C112.890933,87.6336655 111.975337,88.0407879 111.26663,88.0407879 L109.14227,88.0407879 C107.725736,88.0407879 107.414081,86.9075509 107.431689,86.3299161 L107.431689,81.6331614 C107.414081,80.5142934 107.725736,79.8619397 108.416835,79.564022 L111.249903,78.3895938 C112.113557,78.0533587 112.890933,78.5754332 112.890933,79.3963834 L112.890933,79.3963834 Z M103.57914,88.0407879 L102.248884,84.9686907 L102.248884,88.0407879 L100.625461,88.0407879 L100.625461,81.5766432 L102.248884,81.2595667 L103.527197,84.2042586 L104.943731,80.6445725 L106.46415,80.2154177 L106.46415,88.0407879 L104.840726,88.0407879 L104.840726,84.8575702 L103.57914,88.0407879 L103.57914,88.0407879 Z M137.836538,111.491992 C133.759492,115.965548 121.440316,125.285297 116.049742,125.285297 C110.660047,125.285297 98.3796079,115.965548 94.3025619,111.491992 C96.4101948,110.485202 96.7553043,109.019562 96.8935242,107.864293 L98.5864975,107.864293 C98.4834929,108.944843 98.2757229,110.672 96.8935242,111.715191 C98.4834929,113.356133 110.383607,123.644354 116.049742,123.644354 C121.716756,123.644354 133.655607,113.356133 135.244696,111.715191 C133.863377,110.672 133.655607,108.944843 133.551722,107.864293 L135.244696,107.864293 C135.382916,109.019562 135.728905,110.485202 137.836538,111.491992 Z M102.100099,112.532309 C102.19342,112.598407 105.84084,115.666672 105.84084,115.666672 L105.84084,117.533687 C105.84084,117.533687 100.709097,113.39924 100.55503,113.298657 C100.36927,113.165504 100.121883,112.69899 100.060256,112.365629 C99.9986291,112.031309 100.060256,109.363461 100.060256,109.063627 C100.060256,108.762835 100.36927,107.864293 100.802417,107.864293 L104.789664,107.864293 L104.789664,109.630725 L102.409113,109.630725 C102.038473,109.597197 101.821899,109.73035 101.821899,110.097239 L101.821899,112.064837 C101.821899,112.198948 101.976846,112.465254 102.100099,112.532309 L102.100099,112.532309 Z M105.746639,107.864293 L107.414961,107.864293 L108.31207,110.865503 L109.764699,107.864293 L111.340582,107.864293 L109.084164,113.133892 L109.084164,119.436146 C109.084164,119.736938 107.508282,118.802951 107.476588,118.569215 C107.414961,118.335479 107.476588,113.066837 107.476588,113.066837 L105.746639,107.864293 L105.746639,107.864293 Z M113.538894,119.297246 C113.631334,119.497454 115.671178,120.531066 115.671178,120.531066 L115.671178,122.598289 C115.671178,122.598289 112.395279,121.098163 112.085384,120.764802 C111.850611,120.520996 111.716852,120.183935 111.714744,119.830815 L111.714744,109.358671 C111.714744,108.725476 112.889173,107.864293 113.167373,107.864293 L115.578738,107.864293 L115.578738,109.759088 C115.578738,109.825185 114.187735,109.825185 113.847908,109.759088 C113.662147,109.726518 113.41476,109.992824 113.41476,110.92681 L113.41476,118.663093 C113.41476,118.829773 113.41476,119.130565 113.538894,119.297246 L113.538894,119.297246 Z M120.492146,118.797204 L120.492146,120.597163 C120.492146,120.597163 117.771767,121.898039 117.3395,122.131775 C117.092113,122.264928 116.813913,122.031192 116.813913,121.630775 L116.813913,107.864293 L118.668876,107.864293 L118.668876,119.597079 L120.492146,118.797204 L120.492146,118.797204 Z M124.477632,112.464296 L124.477632,113.998908 L122.746802,113.998908 L122.746802,117.701326 L124.849153,116.633229 L124.849153,118.268423 L122.067148,119.768549 C121.727321,119.93523 121.294173,119.768549 121.294173,119.435188 L121.294173,108.529099 C121.294173,108.096113 121.634,107.864293 121.912201,107.864293 L125.158167,107.864293 L125.158167,109.763877 L122.746802,109.763877 L122.746802,112.464296 L124.477632,112.464296 L124.477632,112.464296 Z M129.822427,112.593617 C129.822427,112.593617 127.102049,112.660673 126.607274,112.593617 C126.144194,112.526562 125.958433,112.426936 125.958433,112.060047 C125.958433,111.726686 125.92762,109.525352 125.958433,108.893115 C126.02006,108.258004 126.947982,107.929432 127.380249,107.864293 C127.782584,107.830765 131.459936,107.864293 131.459936,107.864293 L131.459936,109.592407 L127.535196,109.592407 C127.380249,109.592407 127.411063,111.026436 127.535196,111.026436 L131.058482,111.026436 C131.553257,111.026436 131.49075,111.159589 131.49075,111.393325 L131.49075,113.527604 C131.49075,113.76134 131.181736,114.028604 131.058482,114.160799 C130.966042,114.261382 125.803486,117.629481 125.803486,117.629481 L125.803486,116.128397 C125.803486,116.128397 129.914867,113.327395 129.94568,113.128145 C130.007307,112.828311 129.822427,112.593617 129.822427,112.593617 L129.822427,112.593617 Z M149.514797,106.198444 L82.5547534,106.198444 L82.5547534,89.9451624 L149.514797,89.9451624 L149.514797,106.198444 L149.514797,106.198444 Z M109.435437,81.0545687 L110.748966,80.4951347 C110.99019,80.3840143 111.26663,80.4951347 111.26663,80.9060888 L111.26663,85.6766045 C111.26663,85.993681 111.12841,86.2551972 110.765693,86.2551972 L109.573656,86.2551972 C109.194212,86.2551972 109.055992,86.0501991 109.055992,85.713964 L109.055992,81.9119204 C109.055992,81.5019243 109.090327,81.241366 109.435437,81.0545687 L109.435437,81.0545687 Z M123.289998,81.9119204 L123.289998,85.713964 C123.289998,86.0501991 123.152658,86.2551972 122.772333,86.2551972 L121.580297,86.2551972 C121.21758,86.2551972 121.07936,85.993681 121.07936,85.6766045 L121.07936,80.9060888 C121.07936,80.4951347 121.3558,80.3840143 121.597024,80.4951347 L122.910553,81.0545687 C123.255663,81.241366 123.289998,81.5019243 123.289998,81.9119204 L123.289998,81.9119204 Z M129.855001,82.8439911 C130.200991,82.91871 130.200991,83.2731459 130.200991,83.5902223 C130.200991,83.9063409 130.149049,84.2042586 129.838274,84.2042586 L127.919923,84.2042586 L127.919923,82.4148362 L129.855001,82.8439911 L129.855001,82.8439911 Z M84.1103872,91.4366671 L84.1103872,104.5211 L147.994378,104.5211 L147.994378,91.4366671 L84.1103872,91.4366671 L84.1103872,91.4366671 Z M90.0688081,102.992236 L88.6628391,102.992236 L88.6628391,98.617347 L87.5517979,98.617347 L87.5517979,102.992236 L86.1449485,102.992236 L86.1449485,92.8007663 L87.5517979,92.8007663 L87.5517979,96.8767793 L88.6628391,96.8767793 L88.6628391,92.8007663 L90.0688081,92.8007663 L90.0688081,102.992236 L90.0688081,102.992236 Z M93.3438266,102.992236 L93.0964395,100.34163 L92.0663933,100.34163 L91.7785086,102.992236 L90.5045968,102.992236 L91.5795425,92.8007663 L93.6889361,92.8007663 L94.7638817,102.992236 L93.3438266,102.992236 L93.3438266,102.992236 Z M99.2326974,95.9935633 C99.2326974,96.7512899 99.1050421,97.3452095 98.5997032,97.7772381 C98.6727748,97.867284 99.2150897,98.2571635 99.231817,98.9478346 L99.2326974,102.992236 L97.825848,102.992236 L97.8267284,99.5839033 C97.8267284,98.9679512 97.5846235,98.7715745 96.6875149,98.7715745 L96.6875149,102.992236 L95.2815459,102.992236 L95.2815459,92.8007663 L97.6048723,92.8007663 C98.7335211,92.8007663 99.2326974,93.2299212 99.2326974,94.5470817 L99.2326974,95.9935633 Z M102.880998,102.992236 L100.04617,102.992236 L100.04617,92.8007663 L101.453019,92.8007663 L101.453019,101.381947 L102.880998,101.381947 L102.880998,102.992236 L102.880998,102.992236 Z M106.285432,102.992236 L103.352882,102.992236 L103.352882,92.8007663 L106.259021,92.8007663 L106.259021,94.3928541 L104.758851,94.3928541 L104.758851,96.8825269 L106.192992,96.8825269 L106.192992,98.4928155 L104.758851,98.4928155 L104.758851,101.381947 L106.285432,101.381947 L106.285432,102.992236 L106.285432,102.992236 Z M109.548125,102.992236 L108.141276,102.992236 L108.141276,99.1854024 L106.69481,92.8007663 L108.141276,92.8007663 L108.899284,96.3614103 L109.680183,92.8007663 L110.993712,92.8007663 L109.548125,99.1135573 L109.548125,102.992236 L109.548125,102.992236 Z M113.133038,98.500479 L110.558803,98.500479 L110.558803,97.2149303 L113.133038,97.2149303 L113.133038,98.500479 L113.133038,98.500479 Z M117.564878,101.146295 C117.564878,102.119557 116.981185,102.992236 115.893034,102.992236 L113.889286,102.992236 L113.889286,92.8007663 L115.587541,92.8007663 C116.981185,92.8007663 117.564878,93.3161353 117.564878,95.1055577 L117.564878,101.146295 L117.564878,101.146295 Z M120.777389,102.992236 L120.529122,100.34163 L119.499956,100.34163 L119.212071,102.992236 L117.938159,102.992236 L119.013105,92.8007663 L121.122499,92.8007663 L122.197444,102.992236 L120.777389,102.992236 L120.777389,102.992236 Z M124.648426,102.992236 L123.075185,102.992236 L121.754613,92.8007663 L123.187873,92.8007663 L123.871049,98.9296338 L124.552464,92.8007663 L125.968998,92.8007663 L124.648426,102.992236 L124.648426,102.992236 Z M127.772899,102.992236 L126.36605,102.992236 L126.36605,92.8007663 L127.772899,92.8007663 L127.772899,102.992236 Z M132.283093,101.146295 C132.283093,102.119557 131.6994,102.992236 130.611249,102.992236 L128.608381,102.992236 L128.608381,92.8007663 L130.306637,92.8007663 C131.6994,92.8007663 132.283093,93.3161353 132.283093,95.1055577 L132.283093,101.146295 L132.283093,101.146295 Z M136.860195,96.2608272 L135.453346,96.2608272 L135.453346,94.8392518 C135.453346,94.321967 135.169863,94.2089306 134.890782,94.2089306 C134.599376,94.2089306 134.332621,94.321967 134.332621,94.8392518 L134.332621,95.9676991 C134.332621,96.6976455 136.842588,97.9889417 136.842588,99.0196797 L136.842588,101.474867 C136.842588,102.807354 135.753556,103.193402 134.877577,103.193402 C134.015683,103.193402 132.943379,102.807354 132.943379,101.474867 L132.943379,99.2582055 L134.349348,99.2582055 L134.349348,101.066787 C134.349348,101.583113 134.599376,101.697108 134.890782,101.697108 C135.169863,101.697108 135.436619,101.583113 135.436619,101.066787 L135.436619,99.9938995 C135.436619,98.5617868 132.925771,98.1652018 132.925771,96.5051006 L132.925771,94.3181352 C132.925771,92.9866057 134.015683,92.600558 134.877577,92.600558 C135.753556,92.600558 136.860195,92.9866057 136.860195,94.3181352 L136.860195,96.2608272 L136.860195,96.2608272 Z M141.426733,101.474867 C141.426733,102.807354 140.293683,103.193402 139.430909,103.193402 C138.568135,103.193402 137.461496,102.807354 137.461496,101.474867 L137.461496,94.3181352 C137.461496,92.9866057 138.568135,92.600558 139.430909,92.600558 C140.293683,92.600558 141.426733,92.9866057 141.426733,94.3181352 L141.426733,101.474867 Z M146.254745,102.992236 L144.53448,102.992236 L143.416395,97.190982 L143.416395,102.992236 L142.003383,102.992236 L142.003383,92.8007663 L143.905007,92.8007663 L144.824125,97.9831941 L144.824125,92.8007663 L146.254745,92.8007663 L146.254745,102.992236 Z M92.2336658,98.6192629 L92.5611676,94.6620338 L92.6544881,94.6620338 L92.9282867,98.6192629 L92.2336658,98.6192629 Z M96.6875149,94.204141 L97.2439159,94.204141 C97.562614,94.204141 97.7747859,94.4493723 97.7747859,94.836378 L97.7747859,96.3652421 C97.7747859,96.7369208 97.6682597,97.190982 97.1778873,97.190982 L96.6875149,97.190982 L96.6875149,94.204141 L96.6875149,94.204141 Z M115.296135,94.409139 L115.628039,94.409139 C115.985474,94.409139 116.158028,94.5097222 116.158028,95.1678235 L116.158028,100.626136 C116.158028,101.284238 115.985474,101.384821 115.628039,101.384821 L115.296135,101.384821 L115.296135,94.409139 L115.296135,94.409139 Z M119.667228,98.6192629 L119.99473,94.6620338 L120.08717,94.6620338 L120.361849,98.6192629 L119.667228,98.6192629 L119.667228,98.6192629 Z M130.01435,94.409139 L130.346254,94.409139 C130.704569,94.409139 130.877124,94.5097222 130.877124,95.1678235 L130.877124,100.626136 C130.877124,101.284238 130.704569,101.384821 130.346254,101.384821 L130.01435,101.384821 L130.01435,94.409139 L130.01435,94.409139 Z M138.868345,100.862746 L138.868345,94.8756533 C138.868345,94.3602844 139.151828,94.2462901 139.444115,94.2462901 C139.736401,94.2462901 140.019884,94.3602844 140.019884,94.8756533 L140.019884,100.862746 C140.019884,101.377157 139.736401,101.49211 139.444115,101.49211 C139.151828,101.49211 138.868345,101.377157 138.868345,100.862746 Z" id="harley-davidson"></path>
        </g>
    </g>
</svg>