<svg xmlns="http://www.w3.org/2000/svg" width="60" height="60" viewBox="0 0 60 60">
    <g fill="none" fill-rule="nonzero">
        <rect width="60" height="60" fill="#E7F7FF" rx="6"/>
        <g stroke="#008FFF" stroke-linecap="round" stroke-width="1.5">
            <path d="M27.39 37.943H12.803a2.383 2.383 0 0 1-2.384-2.383V10.42h25.144a2.381 2.381 0 0 1 2.383 2.38v10.872M34.708 49.354h14.813V34.542H34.708zM37.666 34.542V30.33M42.115 34.542V30.33M46.563 34.542V30.33M47.804 29.09a1.24 1.24 0 1 1-2.482 0 1.24 1.24 0 0 1 2.482 0zM43.355 29.09a1.24 1.24 0 1 1-2.481 0 1.24 1.24 0 0 1 2.481 0zM38.907 29.09a1.24 1.24 0 1 1-2.482 0 1.24 1.24 0 0 1 2.482 0zM34.686 46.142h-4.212M34.686 41.693h-4.212M29.233 40.453a1.24 1.24 0 1 1 0 2.481 1.24 1.24 0 0 1 0-2.481zM29.233 44.901a1.24 1.24 0 1 1 0 2.482 1.24 1.24 0 0 1 0-2.482z"/>
            <path d="M37.395 40.834v5.834h9.44v-9.44h-6.019a3.422 3.422 0 0 1-3.421 3.422v.184zM27.488 24.418c-.227-.515-1.2-1.295-1.2-1.295a9.469 9.469 0 0 1-.965-.931 1.92 1.92 0 0 1-.37-.65c-.154-.477-.07-.858.075-1.138a1.399 1.399 0 0 1 1.147-.75c.913-.06 1.313.863 1.313.863s.4-.923 1.313-.863c.486.032.923.318 1.147.75.145.28.229.661.074 1.138a1.855 1.855 0 0 1-.369.65M18.117 17.755s1.595 1.552 5.163 1.06M22.095 21.868c-2.415-.078-3.44-.423-4.286-.937-.624-.38-.955-1.128-.688-1.83l.01-.019M16.168 21.861c-.216.67.032 1.45.651 1.81 1.12.652 2.339 1.046 4.572 1.151M15.448 25.091s-.084.875 1.106 1.49c0 0 1.585.898 4.55.898"/>
            <path d="M16.37 26.477l-.236.548s-1.057 2.605.352 4.316c.809.982 2.213 1.19 3.183.366.83-.703 1.99-1.513 3.472-1.513M30.248 17.755s-.174-1.303-1.785-2.262a2.29 2.29 0 0 0-2.195-.068c-.59.296-1.384.612-2.085.612-.701 0-1.496-.316-2.086-.612a2.29 2.29 0 0 0-2.194.068c-1.612.959-1.786 2.262-1.786 2.262M32.637 23.693s.085.874-1.106 1.49c0 0-1.06.6-3.069.819M32.23 27.025s1.058 2.605-.35 4.316c-.81.983-2.214 1.19-3.184.366-.829-.703-1.99-1.513-3.472-1.513"/>
            <path d="M23.141 25.8v5.145c0 .288.233.52.521.52h1.041a.52.52 0 0 0 .52-.52V25.8M25.302 14.231s-.134-.26-.191-.704a.455.455 0 0 0-.448-.402h-.96a.455.455 0 0 0-.448.402c-.058.444-.191.704-.191.704M23.311 33.222h1.743M23.304 34.784h1.744"/>
        </g>
    </g>
</svg>
