<svg xmlns="http://www.w3.org/2000/svg" width="447" height="371" viewBox="0 0 447 371">
    <defs>
        <filter id="a" width="137.2%" height="148.5%" x="-18.7%" y="-24.5%" filterUnits="objectBoundingBox">
            <feOffset dy="7" in="SourceAlpha" result="shadowOffsetOuter1"/>
            <feGaussianBlur in="shadowOffsetOuter1" result="shadowBlurOuter1" stdDeviation="13.5"/>
            <feColorMatrix in="shadowBlurOuter1" result="shadowMatrixOuter1" values="0 0 0 0 0 0 0 0 0 0.560784314 0 0 0 0 1 0 0 0 0.3 0"/>
            <feMerge>
                <feMergeNode in="shadowMatrixOuter1"/>
                <feMergeNode in="SourceGraphic"/>
            </feMerge>
        </filter>
    </defs>
    <g fill="none" fill-rule="evenodd">
        <path fill="#FF6B71" d="M203.558 75.299c-5.138-2.191-7.347-5.6-8.284-8.242a2.176 2.176 0 0 1-.072-.225l-.622-3.598c-.01-1.28.441-2.39 1.28-3.202.802-.775 1.91-1.199 3.11-1.199 1.883 0 3.551 1.2 4.164 2.976l.424 1.253.432-1.253a4.388 4.388 0 0 1 4.156-2.976c1.208 0 2.307.424 3.11 1.2.847.81 1.289 1.92 1.289 3.219 0 .08.216 8.115-8.987 12.047M234.268 45h-61.466c-1.118 0-2.029.91-2.029 2.029v45.494l.667-.668c4.616-4.626 10.745-7.169 17.271-7.169h45.558c1.117 0 2.028-.91 2.028-2.029V47.03c0-1.118-.91-2.029-2.028-2.029M96.137 237.696a7.185 7.185 0 0 1-5.111 2.11 7.185 7.185 0 0 1-5.111-2.11 7.246 7.246 0 0 1 0-10.235 7.156 7.156 0 0 1 5.11-2.12c1.93 0 3.75.75 5.112 2.12a7.246 7.246 0 0 1 0 10.235m4.804-15.041a13.927 13.927 0 0 0-9.915-4.103c-3.75 0-7.265 1.451-9.916 4.103a13.946 13.946 0 0 0-4.11 9.919 13.93 13.93 0 0 0 4.11 9.92 13.92 13.92 0 0 0 9.916 4.111c3.74 0 7.265-1.46 9.915-4.112a13.93 13.93 0 0 0 4.11-9.92c0-3.741-1.46-7.267-4.11-9.918"/>
        <path fill="#E7F7FF" d="M394.098 124.003a.446.446 0 0 1-.451-.451v-7.936h-28.872v7.936c0 .252-.207.45-.45.45a2.474 2.474 0 0 0-2.47 2.472v11.542a2.466 2.466 0 0 0 2.47 2.462c.243 0 .45.207.45.45v7.945h28.872v-7.944c0-.244.198-.451.45-.451 1.362 0 2.462-1.1 2.462-2.462v-11.542c0-1.362-1.1-2.471-2.461-2.471"/>
        <path fill="#FF6B71" d="M215.105 182.292a6.793 6.793 0 0 1-6.788 6.79c-3.74 0-6.787-3.048-6.787-6.79s3.046-6.79 6.787-6.79a6.793 6.793 0 0 1 6.788 6.79M298.106 182.292a6.793 6.793 0 0 1-6.787 6.79c-3.741 0-6.788-3.048-6.788-6.79s3.047-6.79 6.788-6.79a6.793 6.793 0 0 1 6.787 6.79M377.629 291.846h12.277v-12.273h-12.277z"/>
        <path fill="#E7F7FF" d="M181.708 301.224h31.513v-31.516h-31.513z"/>
        <g stroke="#008FFF" stroke-linejoin="round" stroke-width="2.24" filter="url(#a)" transform="translate(46 42)">
            <path d="M165.219 19.12c.001-2.919-2.166-4.848-4.839-4.848a4.837 4.837 0 0 0-4.575 3.283 4.838 4.838 0 0 0-4.575-3.283c-2.672 0-4.84 1.93-4.838 4.849 0 0-.338 8.485 9.413 12.546 9.752-4.061 9.414-12.546 9.414-12.546z"/>
            <path d="M147.092 22.97h-6.482l-3.33-7.199-3.504 7.198h-5.588M164.519 22.97h6.48l3.331-7.199 3.505 7.198h5.588"/>
            <path d="M188.922 2.93v35.609a2.476 2.476 0 0 1-2.473 2.478h-45.463a23.87 23.87 0 0 0-16.911 7.028l-1.438 1.444V2.93A2.476 2.476 0 0 1 125.11.45h61.339a2.476 2.476 0 0 1 2.473 2.48zM78.922 89.908c1.801-1.352 4.009-2.046 6.258-2.046h1.059c2.25 0 4.457.694 6.258 2.046M97.222 69.414a11.436 11.436 0 0 0-6.073 3.273c-1.44 1.48-3.378 2.365-5.44 2.365-2.062 0-4-.885-5.44-2.365a11.414 11.414 0 0 0-8.732-3.46c-5.792.258-10.56 4.944-10.92 10.743a11.487 11.487 0 0 0 4.518 9.892M106.558 89.647a11.481 11.481 0 0 0 4.243-9.677c-.055-.9-.217-1.774-.473-2.608M68.17 110.18v-3.323M75.951 107v3.18"/>
            <path d="M68.17 96.816V87.68a3.894 3.894 0 0 1 3.89-3.898 3.894 3.894 0 0 1 3.891 3.898v9.137M75.388 101.837a3.33 3.33 0 0 1-3.327 3.334 3.33 3.33 0 0 1-3.327-3.334 3.33 3.33 0 0 1 3.327-3.334 3.33 3.33 0 0 1 3.327 3.334zM102.96 101.837a3.33 3.33 0 0 1-3.328 3.334 3.33 3.33 0 0 1-3.327-3.334 3.33 3.33 0 0 1 3.327-3.334 3.33 3.33 0 0 1 3.327 3.334zM68.17 116.426h12.08s.228-5.242-4.299-6.246h-7.78v6.246zM95.742 110.18v-3.323M103.523 107v3.18M95.742 96.816V87.68a3.894 3.894 0 0 1 3.89-3.898 3.894 3.894 0 0 1 3.89 3.898v9.137M95.742 116.426h12.08s.228-5.242-4.3-6.246h-7.78v6.246zM61.023 77.577a4.496 4.496 0 0 1-2.438-4 4.49 4.49 0 0 1 4.486-4.495c1.368 0 2.593.614 3.416 1.582M59.317 71.118s-4.85-6.713 3.218-11.774M120.928 58.14a6.835 6.835 0 0 0-.635-.018c-2.34.046-4.672-.417-6.707-1.573a9.277 9.277 0 0 0-5.125-1.192c-4.795.27-8.648 4.25-8.783 9.06-.149 5.284 4.082 9.614 9.321 9.614a9.27 9.27 0 0 0 4.373-1.09c2.12-1.13 4.469-1.757 6.868-1.691l.182.002c3.757 0 6.775-3.168 6.54-6.983-.2-3.238-2.805-5.885-6.034-6.129zM97.984 53.759l4.112 4.12M97.984 50.221c.975.977.975 2.56 0 3.538a2.493 2.493 0 0 1-3.531 0 2.505 2.505 0 0 1 0-3.538 2.493 2.493 0 0 1 3.53 0zM107.055 51.414v4.077M109.475 48.989a2.423 2.423 0 0 1-2.42 2.425 2.422 2.422 0 0 1-2.42-2.425 2.422 2.422 0 0 1 2.42-2.425 2.423 2.423 0 0 1 2.42 2.425zM275.39 76.097l1.025 2.821M265.906 77.773v3.002M256.422 76.097l-1.024 2.821M242.854 39.369v3.936M238.792 39.369v3.936M236.565 43.305v2.564a4.262 4.262 0 0 0 4.259 4.267 4.262 4.262 0 0 0 4.257-4.267v-2.564h-8.516z"/>
            <path d="M240.823 50.137c0 14.085 11.565 25.311 25.699 24.977 12.77-.303 23.432-10.411 24.393-23.173 1.114-14.764-10.511-27.087-25.008-27.087-8.2 0-15.479 3.94-20.056 10.036h-12.14c-3.88 0-7.026-3.153-7.026-7.041V17.216c0-5.012 4.055-9.075 9.057-9.075h60.363c5.002 0 9.056 4.063 9.056 9.075v9.955c0 4.075 3.296 7.377 7.362 7.377 4.067 0 7.363-3.302 7.363-7.377v-3.992c0-3.694 2.989-6.69 6.675-6.69 3.687 0 6.676 2.995 6.676 6.688v38.307"/>
            <path d="M270.245 41.337l-8.589 8.606h8.589l-8.677 8.694M265.906 22.202v-3.003M275.39 23.877l1.025-2.82M283.73 28.702l1.926-2.3M289.921 36.094l2.595-1.501M293.215 45.162l2.95-.52M293.215 54.812l2.95.521M289.921 63.88l2.595 1.502M283.73 71.272l1.926 2.3M248.082 71.272l-1.926 2.3M241.892 63.88l-2.595 1.502M238.598 54.812l-2.95.521M248.082 28.702l-1.926-2.3M256.422 23.877l-1.024-2.82M33.297 198.616c-5.64-5.651-5.64-14.815 0-20.466 5.64-5.652 14.785-5.652 20.426-.001 5.64 5.652 5.64 14.816 0 20.467-5.641 5.652-14.785 5.652-20.426 0zm-2.861 15.664c10.864 5.509 24.47 3.715 33.548-5.38 11.309-11.332 11.309-29.703 0-41.033-11.307-11.332-29.641-11.332-40.95 0-10.367 10.388-11.229 26.696-2.585 38.069l9.987 8.344z"/>
            <path d="M48.294 193.177a6.756 6.756 0 0 1-9.568 0 6.788 6.788 0 0 1 0-9.588 6.755 6.755 0 0 1 9.568 0 6.788 6.788 0 0 1 0 9.588zM14.354 160.396c0 .62-.502 1.123-1.12 1.123-.62 0-1.12-.503-1.12-1.123a1.121 1.121 0 1 1 2.24 0zM19.07 219.364a1.028 1.028 0 1 1-2.054 0 1.028 1.028 0 1 1 2.054 0zM74.906 160.396a1.121 1.121 0 0 1-2.24 0 1.121 1.121 0 1 1 2.24 0zM14.354 235.038c0-.62-.502-1.123-1.12-1.123-.62 0-1.12.503-1.12 1.123a1.121 1.121 0 1 0 2.24 0zM74.906 235.038a1.121 1.121 0 0 0-2.24 0 1.121 1.121 0 1 0 2.24 0z"/>
            <path d="M109.246 242.022H15.343c-5.015 0-9.079-4.073-9.079-9.097v-70.417c0-5.023 4.064-9.096 9.079-9.096h56.334c5.013 0 9.078 4.073 9.078 9.096v64.487"/>
            <path fill="#FFF" d="M22.338 222.693a5.383 5.383 0 0 1-7.57.909 5.408 5.408 0 0 1-.906-7.585c1.469-1.873 11.417-8.982 15.366-11.77.483-.34 1.11.153.894.703-1.77 4.504-6.315 15.87-7.784 17.743z"/>
            <path d="M30.93 242.022v-11.834M39.317 242.022v-7.989M47.702 242.022v-7.989M56.088 242.022v-11.834M201.97 96.625h-79.378a3.451 3.451 0 0 0-3.448 3.455v76.083a3.451 3.451 0 0 0 3.448 3.455h79.377V96.625z"/>
            <path d="M201.97 96.625h-79.378a3.451 3.451 0 0 0-3.448 3.455v76.083a3.451 3.451 0 0 0 3.448 3.455h79.377V96.625zM281.347 96.625H201.97v82.993h79.378a3.451 3.451 0 0 0 3.448-3.455V100.08a3.451 3.451 0 0 0-3.448-3.455"/>
            <path d="M281.347 96.625H201.97v82.993h79.378a3.451 3.451 0 0 0 3.448-3.455V100.08a3.451 3.451 0 0 0-3.448-3.455zM312.386 65.863v-4.588M316.541 65.863v-4.588M320.696 65.863v-4.588M324.85 65.863v-4.588M329.005 65.863v-4.588M333.16 65.863v-4.588M337.314 65.863v-4.588M341.469 65.863v-4.588M345.624 65.863v-4.588M349.778 65.863v-4.588M312.386 110.332v4.589M316.541 110.332v4.589M320.696 110.332v4.589M324.85 110.332v4.589M329.005 110.332v4.589M333.16 110.332v4.589M337.314 110.332v4.589M341.469 110.332v4.589M345.624 110.332v4.589M349.778 110.332v4.589M353.272 69.364h4.58M353.272 73.527h4.58M353.272 77.69h4.58M353.272 81.853h4.58M353.272 86.016h4.58M353.272 90.18h4.58M353.272 94.342h4.58M353.272 98.505h4.58M353.272 102.668h4.58M353.272 106.832h4.58M308.893 69.364h-4.58M308.893 73.527h-4.58M308.893 77.69h-4.58M308.893 81.853h-4.58M308.893 86.016h-4.58M308.893 90.18h-4.58M308.893 94.342h-4.58M308.893 98.505h-4.58M308.893 102.668h-4.58M308.893 106.832h-4.58M353.272 110.332V65.863h-44.38v44.47h6.232z"/>
            <path d="M345.939 79.413v-8.388h-29.713v8.388a2.912 2.912 0 0 0-2.91 2.916v11.538a2.913 2.913 0 0 0 2.91 2.916v8.388h29.713v-8.388a2.914 2.914 0 0 0 2.91-2.916V82.329a2.913 2.913 0 0 0-2.91-2.916z"/>
            <path d="M332.387 93.952v-16.31c0-.857-.7-1.556-1.553-1.556-.854 0-1.553.699-1.553 1.555v16.311a3.275 3.275 0 0 0-1.716 2.883 3.272 3.272 0 0 0 3.269 3.275 3.272 3.272 0 0 0 3.269-3.275 3.275 3.275 0 0 0-1.716-2.883zM334.841 79.749h5.476M334.841 85.504h5.476M334.841 91.259h5.476"/>
            <path d="M345.939 79.413v-8.388h-29.713v8.388a2.912 2.912 0 0 0-2.91 2.916v11.538a2.913 2.913 0 0 0 2.91 2.916v8.388h29.713v-8.388a2.914 2.914 0 0 0 2.91-2.916V82.329a2.913 2.913 0 0 0-2.91-2.916zM154.588 130.992c-1.969-2.903-3.289-4.88-4.921-6.545-1.922-1.961-5.376-.889-6.936 1.372-1.399 2.025-2.273 4.236-2.775 5.8l14.632-.627zm-3.176 8.744c-3.495.257-5.862.414-8.119.998-2.656.687-3.455 4.22-2.282 6.705 1.051 2.226 2.524 4.09 3.625 5.308l6.776-13.011zm5.969 7.127c-1.526 3.162-2.574 5.295-3.199 7.546-.734 2.649 1.92 5.108 4.654 5.333 2.45.2 4.798-.145 6.4-.492l-7.855-12.387zm9.144-1.613c1.968 2.903 3.288 4.88 4.921 6.547 1.923 1.96 5.375.887 6.936-1.373 1.398-2.025 2.273-4.236 2.775-5.8l-14.632.626zm3.175-8.743c3.495-.257 5.863-.414 8.12-.998 2.656-.688 3.455-4.22 2.282-6.705-1.051-2.226-2.525-4.091-3.625-5.308l-6.777 13.01zm-5.968-7.126c1.526-3.162 2.575-5.296 3.198-7.546.734-2.649-1.92-5.109-4.654-5.333-2.45-.201-4.797.145-6.4.491l7.856 12.388zM160.556 145.36c-3.984 0-7.223-3.248-7.223-7.238s3.24-7.238 7.223-7.238c3.984 0 7.223 3.248 7.223 7.238s-3.239 7.237-7.223 7.237zM243.382 145.36c-3.984 0-7.223-3.248-7.223-7.238s3.24-7.238 7.223-7.238c3.984 0 7.223 3.248 7.223 7.238s-3.239 7.237-7.223 7.237zm-5.968-14.368c-1.969-2.903-3.288-4.88-4.921-6.545-1.922-1.961-5.375-.889-6.936 1.372-1.399 2.025-2.273 4.236-2.775 5.8l14.632-.627zm-3.176 8.744c-3.495.257-5.862.414-8.119.998-2.656.687-3.455 4.22-2.282 6.705 1.052 2.226 2.524 4.09 3.625 5.308l6.776-13.011zm5.969 7.127c-1.526 3.162-2.574 5.295-3.199 7.546-.734 2.649 1.92 5.108 4.654 5.333 2.45.2 4.798-.145 6.4-.492l-7.855-12.387zm9.144-1.613c1.968 2.903 3.288 4.88 4.921 6.547 1.923 1.96 5.375.887 6.936-1.373 1.398-2.025 2.274-4.236 2.775-5.8l-14.632.626zm3.176-8.743c3.494-.257 5.862-.414 8.12-.998 2.656-.688 3.454-4.22 2.281-6.705-1.051-2.226-2.525-4.091-3.625-5.308l-6.776 13.01zm-5.969-7.126c1.526-3.162 2.575-5.296 3.198-7.546.734-2.649-1.92-5.109-4.654-5.333-2.45-.201-4.797.145-6.4.491l7.856 12.388z"/>
            <path d="M160.557 170.476c-17.833 0-32.289-14.485-32.289-32.354 0-17.87 14.456-32.355 32.289-32.355 17.832 0 32.288 14.485 32.288 32.355 0 17.869-14.456 32.354-32.288 32.354zM243.382 170.476c-17.832 0-32.288-14.485-32.288-32.354 0-17.87 14.456-32.355 32.288-32.355 17.833 0 32.289 14.485 32.289 32.355 0 17.869-14.456 32.354-32.289 32.354zM346.869 255.25h-22.477a2.496 2.496 0 0 1-2.493-2.498v-22.523a2.495 2.495 0 0 1 2.493-2.498h22.477a2.495 2.495 0 0 1 2.493 2.498v22.523a2.496 2.496 0 0 1-2.493 2.498z"/>
            <path d="M329.056 248.078h13.149v-13.175h-13.149zM335.63 227.731v-77.785c0-5.964-4.825-10.799-10.776-10.799h-39.8M321.098 241.49H204.336M204.488 232.37l-9.102 9.12 9.243 9.262M133.554 257.45h32.34v-32.407h-32.34zM174.595 228.25h6.935M174.595 241.246h6.935M174.595 254.242h6.935M118.324 228.25h6.935M118.324 241.246h6.935M118.324 254.242h6.935M136.754 216.773v-6.95M149.724 216.773v-6.95M162.694 216.773v-6.95M136.754 273.157v-6.949M149.724 273.157v-6.949M162.695 273.157v-6.949"/>
            <path d="M158.77 232.182h-9.549c.043.328.1.653.1.993 0 4.234-3.426 7.667-7.652 7.667-.339 0-.663-.058-.99-.1v9.568M118.573 8.18H15.483C7.181 8.18.45 16.432.45 26.614c0 10.182 6.73 18.435 15.033 18.435h12.394c10.006 0 18.118 9.947 18.118 22.218 0 12.27-8.112 22.217-18.118 22.217H16.395C7.59 89.485.45 98.239.45 109.039c0 10.799 7.14 19.554 15.945 19.554h84.545c5.401 0 9.78 4.388 9.78 9.8v42.424c0 5.413 4.379 9.8 9.78 9.8h162.87c5.401 0 9.78-4.387 9.78-9.8v-27.405"/>
            <path d="M333.237 119.714c0 3.763-3.044 6.813-6.8 6.813h-22.676c-5.86 0-10.611-4.76-10.611-10.633V97.418c0-6.868-5.557-12.436-12.41-12.436H122.668"/>
        </g>
        <g stroke="#F9FBFD" stroke-linecap="round" stroke-linejoin="round" stroke-width="10">
            <path d="M441.301 126v210c0 16.569-13.431 30-30 30H310M5 245V35C5 18.431 18.431 5 35 5h101.301"/>
        </g>
    </g>
</svg>
