<svg xmlns="http://www.w3.org/2000/svg" xmlns:xlink="http://www.w3.org/1999/xlink" width="570" height="333" viewBox="0 0 570 333">
    <defs>
        <filter id="a" width="128.8%" height="153.5%" x="-14.3%" y="-26.7%" filterUnits="objectBoundingBox">
            <feOffset dy="8" in="SourceAlpha" result="shadowOffsetOuter1"/>
            <feGaussianBlur in="shadowOffsetOuter1" result="shadowBlurOuter1" stdDeviation="15"/>
            <feColorMatrix in="shadowBlurOuter1" result="shadowMatrixOuter1" values="0 0 0 0 0 0 0 0 0 0.560784314 0 0 0 0 1 0 0 0 0.3 0"/>
            <feMerge>
                <feMergeNode in="shadowMatrixOuter1"/>
                <feMergeNode in="SourceGraphic"/>
            </feMerge>
        </filter>
        <path id="b" d="M0 257.455h488.674V0H0z"/>
    </defs>
    <g fill="none" fill-rule="evenodd" filter="url(#a)" transform="translate(28 22)">
        <g transform="translate(19 13)">
            <path fill="#1CCE9E" d="M436.315 46.727c-1.903 1.881-2.934 4.468-2.934 7.141v.06l.113 4.289v1.263c0 4.303-3.493 7.794-7.804 7.794h-3.333c-4.311 0-7.804-3.491-7.804-7.794l.113-5.552v-.06c0-2.746-1.158-5.333-3.087-7.294a17.386 17.386 0 0 1-4.95-13.712c.698-8.504 7.638-15.34 16.154-15.925 10.205-.705 18.701 7.36 18.701 17.408 0 4.841-1.982 9.223-5.17 12.382M35.361 4.588v23.28L24.164 39.059H0V4.59z"/>
            <mask id="c" fill="#fff">
                <use xlink:href="#b"/>
            </mask>
            <path fill="#1CCE9E" d="M281.91 59.925h37.257v-4.78H281.91z" mask="url(#c)"/>
            <path fill="#64DAF8" d="M271.685 42.603l-6.134 9.708a.998.998 0 0 1-.739.46c-.033.006-.073.006-.106.006a.997.997 0 0 1-.706-.293l-4.524-4.521 1.41-1.41 3.64 3.637 5.469-8.65 1.69 1.063zm-.034-21.172l27.89-16.85V0h-45.048v56.54h20.332v-7.474a1 1 0 0 1 .998-.997h23.718v-8.086l-27.89-16.85a.985.985 0 0 1-.479-.85c0-.353.18-.672.48-.852z" mask="url(#c)"/>
            <path fill="#1CCE9E" d="M281.91 98.053h37.257v-4.78H281.91zM161.55 168.192H74.38l4.69-8.458h77.788z" mask="url(#c)"/>
            <path fill="#FFF" d="M161.144 58.542H74.787c-3.619 0-6.56 2.94-6.56 6.556v60.192c0 3.61 2.941 6.556 6.56 6.556h86.357c3.62 0 6.567-2.946 6.567-6.556V65.098c0-3.617-2.948-6.556-6.567-6.556" mask="url(#c)"/>
            <path fill="#F66262" d="M196.399 116.333a3.741 3.741 0 0 1-3.74 3.737 3.741 3.741 0 0 1-3.739-3.737 3.741 3.741 0 0 1 3.74-3.737 3.741 3.741 0 0 1 3.739 3.737M183.91 137.877a3.746 3.746 0 0 1-3.738 3.737 3.741 3.741 0 0 1-3.74-3.737 3.741 3.741 0 0 1 3.74-3.737 3.746 3.746 0 0 1 3.739 3.737M204.914 142.89a3.747 3.747 0 0 1-3.739 3.744 3.747 3.747 0 0 1-3.739-3.743 3.746 3.746 0 0 1 3.74-3.737 3.746 3.746 0 0 1 3.738 3.737M59.505 137.877a3.741 3.741 0 0 1-3.739 3.737 3.741 3.741 0 0 1-3.739-3.737 3.741 3.741 0 0 1 3.74-3.737 3.741 3.741 0 0 1 3.738 3.737M38.501 142.89a3.751 3.751 0 0 1-3.739 3.744 3.747 3.747 0 0 1-3.739-3.743 3.746 3.746 0 0 1 3.74-3.737 3.75 3.75 0 0 1 3.738 3.737M47.01 116.333a3.741 3.741 0 0 1-3.738 3.737 3.741 3.741 0 0 1-3.74-3.737 3.741 3.741 0 0 1 3.74-3.737 3.741 3.741 0 0 1 3.739 3.737" mask="url(#c)"/>
            <path fill="#1CCE9E" d="M232.764 149.367h1.996v-1.17h-1.996zM237.647 157.925h-45.879a2.018 2.018 0 0 0-2.016 2.015v91.922a3.606 3.606 0 0 0 3.606 3.598h42.7a3.6 3.6 0 0 0 3.599-3.598V159.94c0-1.11-.898-2.015-2.01-2.015" mask="url(#c)"/>
            <path fill="#64DAF8" d="M187.756 190.62v32.144c-8.057-.532-14.457-7.54-14.457-16.071 0-8.532 6.4-15.54 14.457-16.072" mask="url(#c)"/>
            <path fill="#FFF" d="M310.068 229.247c-16.267 0-29.507-13.225-29.507-29.49 0-16.258 13.24-29.49 29.507-29.49 16.273 0 29.506 13.232 29.506 29.49 0 16.265-13.233 29.49-29.506 29.49m34.862-29.437v-.173c-.02-5.638 2.062-10.911 5.848-14.848l1.27-1.317-6.879-11.909-1.776.44c-5.25 1.296-10.978.438-15.795-2.361l-.146-.087c-4.937-2.833-8.483-7.281-10-12.52l-.505-1.756h-13.759l-.512 1.762c-1.51 5.24-5.05 9.681-9.973 12.507l-.066.04a.352.352 0 0 0-.067.04c-4.843 2.806-10.578 3.67-15.82 2.374l-1.784-.439-6.88 11.91 1.272 1.316c3.785 3.93 5.86 9.23 5.848 14.915v.173c.02 5.638-2.063 10.912-5.849 14.848l-1.27 1.317 6.879 11.909 1.776-.439c5.243-1.297 10.978-.439 15.795 2.36l.146.087c4.937 2.833 8.483 7.281 10 12.521l.505 1.755h13.759l.512-1.762c1.51-5.24 5.05-9.681 9.973-12.507l.067-.04.565.824-.499-.858c4.844-2.812 10.585-3.677 15.821-2.38l1.783.439 6.88-11.91-1.265-1.316c-3.792-3.93-5.868-9.23-5.854-14.915" mask="url(#c)"/>
            <path fill="#1CCE9E" d="M313.412 194.165v10.912h-10.924v-7.767a6.488 6.488 0 0 0 3.147-3.145h7.777z" mask="url(#c)"/>
            <path fill="#F66262" d="M343.777 118.367l10.532 4.17c.38.153.632.518.632.93v8.346c0 .412-.253.778-.632.93l-10.532 4.176a1.025 1.025 0 0 1-.845-.053l-9.627-5.2h-29.952v2.86a.996.996 0 0 1-.998.997h-35.82c-3.074 0-5.575-2.5-5.575-5.566v-4.628a5.58 5.58 0 0 1 5.575-5.572h35.82c.552 0 .998.446.998.998v2.865h29.952l9.627-5.206a.99.99 0 0 1 .845-.047" mask="url(#c)"/>
            <path fill="#1CCE9E" d="M420.886 227.153a5.521 5.521 0 0 1 5.515 5.512 5.523 5.523 0 0 1-5.515 5.52 5.523 5.523 0 0 1-5.515-5.52 5.521 5.521 0 0 1 5.515-5.512M420.886 173.013a5.521 5.521 0 0 1-5.515-5.513 5.521 5.521 0 0 1 5.515-5.512 5.521 5.521 0 0 1 5.515 5.512 5.521 5.521 0 0 1-5.515 5.513M452.854 129.705c-1.99 2.274-4.025 3.817-7.578 5.013a7.35 7.35 0 0 1-5.661-.398 7.11 7.11 0 0 1-1.817-1.304c-2.122-2.074-4.983-3.225-8.057-3.225H388.16a6.193 6.193 0 0 0-4.923 2.407 7.308 7.308 0 0 1-4.964 2.767c-3.685.418-6.267-.133-8.988-1.324l6.114-1.363a4.854 4.854 0 0 0 3.64-3.47l.16-.58a7.189 7.189 0 0 0-1.578-6.695l-.266-.306c-1.157-1.297-2.994-1.895-4.697-1.51l-6.167 1.37c1.982-2.274 4.018-3.817 7.571-5.014a7.35 7.35 0 0 1 5.662.4 7.11 7.11 0 0 1 1.816 1.303c2.122 2.074 4.983 3.225 8.057 3.225h41.588c1.93 0 3.72-.871 4.923-2.408a7.28 7.28 0 0 1 4.957-2.766c3.686-.419 6.267.133 8.988 1.324l-6.114 1.363a4.872 4.872 0 0 0-3.64 3.471l-.159.578a7.202 7.202 0 0 0 1.577 6.696l.266.306a4.909 4.909 0 0 0 3.406 1.623h.32c.36-.007.678-.047.971-.113l6.174-1.37z" mask="url(#c)"/>
            <path fill="#1CCE9E" d="M445.276 134.718a7.35 7.35 0 0 1-5.661-.398 7.11 7.11 0 0 1-1.817-1.304c-2.122-2.074-4.983-3.225-8.057-3.225H388.16a6.193 6.193 0 0 0-4.924 2.407 7.308 7.308 0 0 1-4.963 2.767c-3.685.418-6.267-.133-8.988-1.324l6.114-1.363a4.854 4.854 0 0 0 3.64-3.47l.16-.58a7.189 7.189 0 0 0-1.578-6.695l-.266-.306c-1.157-1.297-2.994-1.895-4.697-1.51l-6.167 1.37c1.982-2.274 4.018-3.817 7.57-5.014a7.35 7.35 0 0 1 5.663.4 7.11 7.11 0 0 1 1.816 1.303c2.122 2.074 4.983 3.225 8.057 3.225h41.588c1.93 0 3.72-.871 4.923-2.408a7.28 7.28 0 0 1 4.957-2.766c3.686-.419 6.267.133 8.988 1.324l-6.114 1.363a4.872 4.872 0 0 0-3.64 3.471l-.159.578a7.202 7.202 0 0 0 1.577 6.696l.266.306a4.909 4.909 0 0 0 3.406 1.623h.32c.359-.007.678-.047.971-.113l6.174-1.37c-1.99 2.274-4.025 3.817-7.578 5.013m10.372-6.563a1.422 1.422 0 0 0-1.583-.764l-7.817 1.742a3.44 3.44 0 0 1-.573.06h-.192a2.887 2.887 0 0 1-2.01-.958l-.266-.299a5.212 5.212 0 0 1-1.137-4.847l.16-.579a2.81 2.81 0 0 1 .784-1.323c.38-.36.852-.612 1.364-.725l7.75-1.729a1.399 1.399 0 0 0 1.105-1.21 1.407 1.407 0 0 0-.778-1.443c-2.874-1.436-5.509-2.394-9.022-2.394-.825 0-1.676.053-2.594.16-2.502.279-4.737 1.53-6.314 3.53a4.215 4.215 0 0 1-3.34 1.63h-41.588c-2.508 0-4.937-.971-6.66-2.66a9.152 9.152 0 0 0-2.315-1.656 9.402 9.402 0 0 0-7.199-.505c-4.637 1.563-7.019 3.73-9.567 6.955a1.42 1.42 0 0 0-.166 1.496c.286.586.945.911 1.59.765l7.81-1.742a2.918 2.918 0 0 1 2.775.898l.266.299a5.195 5.195 0 0 1 1.138 4.847l-.16.579a2.866 2.866 0 0 1-2.142 2.048l-7.758 1.729a1.415 1.415 0 0 0-.326 2.653c2.874 1.436 5.509 2.394 9.022 2.394.825 0 1.676-.054 2.595-.16 2.501-.28 4.743-1.53 6.32-3.53a4.195 4.195 0 0 1 3.34-1.63h41.581c2.549 0 4.917.944 6.66 2.66a9.394 9.394 0 0 0 2.315 1.656 9.474 9.474 0 0 0 4.205 1.004 9.242 9.242 0 0 0 2.994-.5c4.637-1.562 7.019-3.73 9.567-6.954.34-.426.406-1.004.166-1.497M453.486 205.595a5.517 5.517 0 0 1-5.515-5.512 5.521 5.521 0 0 1 5.515-5.513 5.521 5.521 0 0 1 5.515 5.513 5.517 5.517 0 0 1-5.515 5.512M486.066 100.374a4.174 4.174 0 0 1-.678 3.684 4.154 4.154 0 0 1-3.354 1.669h-9.247a4.15 4.15 0 0 1-3.347-1.67 4.153 4.153 0 0 1-.678-3.683l2.288-7.946a.998.998 0 0 1 .958-.718h10.805c.446 0 .838.292.958.718l2.295 7.946zM488.674 84.023v4.887a.996.996 0 0 1-.998.998h-20.531a.996.996 0 0 1-.998-.998v-4.887c0-.825.672-1.496 1.497-1.496h19.54c.825 0 1.49.671 1.49 1.496" mask="url(#c)"/>
        </g>
        <g stroke="#008FFF" stroke-linejoin="round" stroke-width="2">
            <path d="M17.615 87.265l.066 34.506v14.478c0 64.512 52.48 116.997 116.987 116.997h53.292M76.032 14.465C93.876 5.835 113.896.999 135.045.999M496.749 162.417v90.696c0 10.432-8.456 18.888-18.886 18.888H358.486M88.308 26.463c24.255-10.276 46.36-8.47 46.36-8.47 65.306 0 118.247 52.945 118.247 118.256v23.86M252.914 163.597v1.172"/>
            <path stroke-dasharray="2.1,6.3" stroke-linecap="round" d="M89.26 46.951c13.603-6.925 29-10.83 45.31-10.83 55.232 0 100.006 44.778 100.006 100.015v25.11"/>
            <path d="M234.576 164.767v.003M160.994 236.15h-.002M154.048 236.15H134.57c-55.232 0-100.006-44.778-100.006-100.014 0-17.107 4.294-33.212 11.865-47.293M452.761 187.448v8.059H427.6v-8.059M427.6 178.402v-8.059h25.161v8.06M452.761 252.704v8.058H427.6v-8.058M427.6 243.657V235.6h25.161v8.058M468.283 228.134h-8.058v-25.163h8.058M477.328 202.971h8.058v25.164h-8.058M412.078 202.971h8.058v25.164h-8.058"/>
            <path d="M403.033 228.134h-8.058v-25.163h17.103M449.335 248.18h23.47v-24.128M407.556 235.247v12.933h23.689"/>
            <path d="M431.245 182.925h-43.019a4.426 4.426 0 0 0-4.425 4.426v27.923c0 31.33-25.285 56.727-56.475 56.727s-56.474-25.397-56.474-56.727l-.066-34.541V136.75c0-56.2-34.147-104.423-82.824-125.05M472.805 206.588v-23.663h-23.47M477.328 215.553a4.523 4.523 0 1 1-9.045 0 4.523 4.523 0 0 1 9.045 0zM444.703 248.18a4.523 4.523 0 1 1-9.045.001 4.523 4.523 0 0 1 9.045 0zM444.703 182.925a4.523 4.523 0 1 1-9.045.001 4.523 4.523 0 0 1 9.045 0z"/>
            <path d="M452.761 174.373h28.596v28.598M426.977 174.373h-38.428a4.426 4.426 0 0 1-4.425-4.426v-14.78M452.761 256.733h28.596v-28.599M426.977 256.733H398.38v-28.599M400.702 215.76l6.853 6.855 6.855-12.816"/>
            <path d="M403.537 234.096l4-4 4.037 4.037M333.624 221.552h-12.925v-9.455a5.48 5.48 0 0 0 3.47-3.47h9.455v12.925zM341.067 207.837h3.878M341.067 215.09h3.878M341.067 222.342h3.878M309.604 207.837h3.877M309.604 215.09h3.877M309.604 222.342h3.877M319.909 201.432v-3.879M327.161 201.432v-3.879M334.413 201.432v-3.879M319.909 232.898v-3.878M327.161 232.898v-3.878M334.413 232.898v-3.878"/>
            <path d="M355.804 215.226c0 15.758-12.773 28.532-28.53 28.532-15.757 0-28.53-12.774-28.53-28.532 0-15.758 12.773-28.533 28.53-28.533 15.757 0 28.53 12.775 28.53 28.533z"/>
            <path d="M368.736 200.932l1.79-1.86-7.639-13.23-2.504.621c-5.12 1.268-10.5.395-15.06-2.256l-.156-.09c-4.594-2.64-8.072-6.858-9.54-11.95l-.715-2.477h-15.276l-.715 2.482c-1.466 5.083-4.933 9.301-9.52 11.937l-.068.04c-.022.013-.046.025-.068.039-4.576 2.655-9.961 3.548-15.096 2.276l-2.508-.621-7.638 13.23 1.788 1.857c3.675 3.818 5.589 8.939 5.578 14.238v.18c.016 5.276-1.917 10.37-5.576 14.171l-1.79 1.86 7.638 13.23 2.505-.62c5.12-1.269 10.499-.396 15.06 2.256l.156.09c4.594 2.64 8.071 6.858 9.54 11.95l.714 2.477h15.276l.716-2.483c1.466-5.083 4.932-9.301 9.52-11.936a3.56 3.56 0 0 1 .067-.04l.069-.04c4.575-2.655 9.96-3.547 15.095-2.275l2.508.621 7.639-13.23-1.789-1.858c-3.674-3.818-5.589-8.939-5.577-14.237v-.18c-.016-5.276 1.917-10.37 5.576-14.172zM121.53 104.427a4.82 4.82 0 0 1-4.82-4.82V92.07a4.82 4.82 0 0 1 9.638 0v7.538a4.819 4.819 0 0 1-4.819 4.82zM105.158 104.05V87.628l-4.6 4.601M155.709 104.427a4.82 4.82 0 0 1-4.82-4.82V92.07a4.82 4.82 0 0 1 9.639 0v7.538a4.82 4.82 0 0 1-4.819 4.82zM139.337 104.05V87.628l-4.6 4.601M173.517 104.05V87.628l-4.6 4.601M121.53 132.47a4.82 4.82 0 0 1-4.82-4.82v-7.538a4.82 4.82 0 0 1 9.638 0v7.538a4.819 4.819 0 0 1-4.819 4.82zM105.158 132.092V115.67l-4.6 4.601M155.709 132.47a4.82 4.82 0 0 1-4.82-4.82v-7.538a4.82 4.82 0 0 1 9.639 0v7.538a4.82 4.82 0 0 1-4.819 4.82zM139.337 132.092V115.67l-4.6 4.601M173.517 132.092V115.67l-4.6 4.601"/>
            <path d="M173.146 72.817h-79.32a7.565 7.565 0 0 0-7.566 7.567v60.27a7.565 7.565 0 0 0 7.565 7.565h86.424a7.565 7.565 0 0 0 7.565-7.565v-60.27a7.565 7.565 0 0 0-7.565-7.567h-7.103M111.136 148.22l-4.616 11.669h61.034l-4.616-11.67M179.736 168.737l8.837 15.947c1.328 2.397-.405 5.34-3.146 5.34h-96.78c-2.74 0-4.474-2.943-3.146-5.34l8.837-15.947h85.398z"/>
            <path d="M91.724 184.615l5.8-10.469h79.025l5.8 10.469zM348.135 37.509l-28.39 17.165-28.392-17.165 28.391-17.165zM279.358 62.52l4.525 4.526 6.138-9.723M354.77 22.486l9.004 9.006M363.774 22.486l-9.005 9.006M295.013 81.294h49.463V64.327h-49.463z"/>
            <path d="M300.103 76.204h39.283v-6.787h-39.283zM300.103 114.38h39.283v-6.787h-39.283z"/>
            <path d="M295.013 119.47h49.463v-16.966h-49.463zM319.744 54.674v9.403M348.135 37.509h21.025v54.016h-49.416v10.978M319.744 20.344V.999h-184.7"/>
            <path d="M319.744 14.196h-47.082V72.81h22.35M314.611 33.5a5.14 5.14 0 0 1 6.238-5.018 5.11 5.11 0 0 1 3.914 3.914 5.144 5.144 0 0 1-2.275 5.444c-1.772 1.124-2.744 3.17-2.744 5.27v.138M320.022 47.168a.278.278 0 1 1-.556 0 .278.278 0 0 1 .556 0zM460.262 130.187a8.324 8.324 0 0 0-5.635 3.146l-.014.018a5.247 5.247 0 0 1-4.129 2.01H408.87c-2.743 0-5.409-1.025-7.367-2.945a8.32 8.32 0 0 0-8.5-1.935c-4.414 1.489-6.66 3.54-9.11 6.638a.421.421 0 0 0 .42.672l7.82-1.742a3.873 3.873 0 0 1 3.738 1.206l.27.303a6.227 6.227 0 0 1 1.355 5.777l-.159.58a3.875 3.875 0 0 1-2.895 2.763l-7.763 1.73a.42.42 0 0 0-.096.787c3.533 1.766 6.439 2.67 11.067 2.143a8.322 8.322 0 0 0 5.634-3.145l.015-.02a5.245 5.245 0 0 1 4.128-2.009h41.615c2.742 0 5.408 1.025 7.366 2.945a8.32 8.32 0 0 0 8.5 1.935c4.414-1.488 6.661-3.54 9.11-6.637a.421.421 0 0 0-.42-.673l-7.82 1.743c-.257.057-.516.079-.774.083-.086.002-.173.01-.258.005a3.874 3.874 0 0 1-2.706-1.295l-.27-.302a6.226 6.226 0 0 1-1.355-5.777l.159-.58a3.87 3.87 0 0 1 2.896-2.764l7.762-1.73a.421.421 0 0 0 .097-.787c-3.533-1.765-6.439-2.669-11.067-2.143zM425.759 110.923c1.004-3.115.936-6.98.236-10.443a5.388 5.388 0 0 0-3.979-4.143 22.15 22.15 0 0 0-5.698-.653c-1.981.032-3.963.33-5.935.148-4.534-.418-7.32-3.473-5.4-8.226 1.005-2.29-.051-3.752-.78-5.059-2.15-3.855 1.005-4.723 1.054-7.41.022-1.2-.948-2.151-2.14-2.278-1.725-.183-3.212-.923-4.138-1.866-.804-.819-.928-2.092-.327-3.07 7.916-12.887 6.307-9.494 9.05-27.647 1.795-11.871 15.003-25.966 41.44-21.593 5.546.917 11.081 2.542 15.724 5.713 10.772 7.356 16.563 22.86 10.927 40.892-3.168 10.133-10.229 21.002-8.064 32.292l3.073 12.62"/>
            <path d="M433.047 74.377v1.264a7.805 7.805 0 0 0 7.805 7.805h3.34a7.805 7.805 0 0 0 7.806-7.805v-1.264l-.111-4.293v-.064c0-2.676 1.034-5.263 2.935-7.147a17.41 17.41 0 0 0 5.17-12.403c0-10.06-8.5-18.134-18.71-17.43-8.524.588-15.468 7.433-16.17 15.95a17.424 17.424 0 0 0 4.96 13.73c1.93 1.961 3.086 4.55 3.086 7.301v.063h9.365"/>
            <path d="M437.01 83.156v1.938a5.512 5.512 0 1 0 11.025 0v-1.956M442.522 28.904v-4.009M435.143 30.365l-1.371-3.767M428.708 34.262l-2.577-3.071M423.994 40.124l-3.471-2.005M449.901 30.365l1.371-3.767M456.336 34.262l2.577-3.071M461.05 40.124l3.472-2.005M255.215 272.001a4.603 4.603 0 0 0 4.602-4.603v-92.045a3.013 3.013 0 0 0-3.012-3.013h-45.912a3.013 3.013 0 0 0-3.014 3.013v92.045a4.603 4.603 0 0 0 4.603 4.603h42.733zM219.993 188.061h27.71M219.993 195.79h27.71M219.993 203.517h27.71M223.279 238.603h21.138M228.03 243.933a5.818 5.818 0 1 0 11.635 0M9.851 63.253h53.651V10.85H9.852z"/>
            <path d="M55.369 18.794H17.984v36.515h25.594l11.79-11.791zM20.053 68.79v5.679M31.135 68.79v5.679M42.217 68.79v5.679M53.3 68.79v5.679M20.053.999v5.679M31.135.999v5.679M42.217.999v5.679M53.3.999v5.679M73.352 20.427h-5.678M73.352 31.51h-5.678M73.352 42.593h-5.678M73.352 53.676h-5.678M5.679 20.427H0M5.679 31.51H0M5.679 42.593H0M5.679 53.676H0M487.139 94.984h19.22a4.513 4.513 0 0 1 4.512 4.514V128.6a4.513 4.513 0 0 1-4.513 4.513h-19.22a4.513 4.513 0 0 1-4.512-4.513V99.498a4.513 4.513 0 0 1 4.513-4.514z"/>
            <path d="M496.749 120.069h4.626a3.199 3.199 0 0 0 3.073-4.085l-2.293-7.955H491.342l-2.293 7.955a3.199 3.199 0 0 0 3.074 4.085h4.626zM499.35 115.717h-5.203M499.35 112.422h-5.203M505.42 133.113v14.082h-17.343v-14.082M501.794 140.154h-2.974M494.676 140.154h-2.972M490.87 94.984l1.235-6.79a2.59 2.59 0 0 1 2.548-2.127h4.191a2.59 2.59 0 0 1 2.548 2.126l1.235 6.791M507.023 104.228V99.33a.5.5 0 0 0-.499-.499h-19.551a.499.499 0 0 0-.498.5v4.896h20.548zM321.56 149.906v-13.79h-35.847a4.578 4.578 0 0 0-4.578 4.578v4.634a4.578 4.578 0 0 0 4.578 4.578h35.847z"/>
            <path d="M285.823 145.217h31.048v-4.412h-31.048zM321.56 146.04h31.23v-6.059h-31.23M352.79 146.04l9.854 5.332 10.543-4.18v-8.361l-10.543-4.181-9.854 5.331M207.88 239.3c-9.094 0-16.466-7.668-16.466-17.13 0-9.46 7.372-17.13 16.465-17.13M181.442 222.17h-13.937M183.869 210.662h-9.395M183.835 233.577h-9.167M159.793 222.17a3.856 3.856 0 1 0 7.713.001 3.856 3.856 0 0 0-7.713 0zM166.762 210.662a3.856 3.856 0 1 0 7.712 0 3.856 3.856 0 0 0-7.712 0zM166.955 233.577a3.856 3.856 0 1 0 7.713 0 3.856 3.856 0 0 0-7.713 0zM183.824 233.597c4.17 9.487 13.373 16.078 24.055 16.078M183.861 210.661a28.336 28.336 0 0 0-2.419 11.51M207.88 194.666c-8.375 0-15.84 4.05-20.685 10.372M62.288 126.946a4.74 4.74 0 1 1-.001 9.482 4.74 4.74 0 0 1 0-9.482zM74.79 148.52a4.74 4.74 0 1 1 0 9.481 4.74 4.74 0 0 1 0-9.482zM53.767 153.543a4.741 4.741 0 1 1 0 9.482 4.741 4.741 0 0 1 0-9.482z"/>
            <path d="M86.26 107.919H62.287v19.037M55.321 153.809l5.546-17.597M72.33 149.075l-7.774-13.224M211.787 126.946a4.74 4.74 0 1 0 0 9.482 4.74 4.74 0 0 0 0-9.482zM199.284 148.52a4.74 4.74 0 1 0 .001 9.481 4.74 4.74 0 0 0 0-9.482zM220.307 153.543a4.74 4.74 0 1 0 0 9.484 4.74 4.74 0 0 0 0-9.484z"/>
            <path d="M187.814 107.919h23.973v19.037M218.753 153.809l-5.546-17.597M201.744 149.075l7.775-13.224"/>
            <path stroke-dasharray="2.1,6.3" stroke-linecap="round" d="M442.523 90.606l.038 24.777a4.677 4.677 0 0 1-4.678 4.686h-50.937a3.146 3.146 0 0 1-3.146-3.147V57.726c0-31.33 25.285-56.727 56.474-56.727 31.19 0 56.475 25.397 56.475 56.727v28.34"/>
            <path d="M327.316.999h89.314M264.097 272.001h39.852M211.278 14.196h47.196v49.881M410.77 155.166h38.565"/>
            <path stroke-dasharray="2.1,6.3" stroke-linecap="round" d="M2.686 77.315l.072 67.265c0 70.063 56.995 127.063 127.051 127.063h69.599"/>
        </g>
    </g>
</svg>
