<svg xmlns="http://www.w3.org/2000/svg" width="525" height="407" viewBox="0 0 525 407">
    <defs>
        <filter id="a" width="127.3%" height="135.2%" x="-13.7%" y="-17.6%" filterUnits="objectBoundingBox">
            <feOffset dy="7" in="SourceAlpha" result="shadowOffsetOuter1"/>
            <feGaussianBlur in="shadowOffsetOuter1" result="shadowBlurOuter1" stdDeviation="13"/>
            <feColorMatrix in="shadowBlurOuter1" result="shadowMatrixOuter1" values="0 0 0 0 0 0 0 0 0 0.560784314 0 0 0 0 1 0 0 0 0.3 0"/>
            <feMerge>
                <feMergeNode in="shadowMatrixOuter1"/>
                <feMergeNode in="SourceGraphic"/>
            </feMerge>
        </filter>
    </defs>
    <g fill="none" fill-rule="evenodd" filter="url(#a)" transform="translate(27 17)">
        <path fill="#5FD6F8" d="M125.066 135.2a3.064 3.064 0 0 1-3.054-3.07c0-1.686 1.37-3.06 3.054-3.06a3.062 3.062 0 0 1 3.054 3.06c0 1.696-1.371 3.07-3.054 3.07zm-8.304-34.356c.72 0 1.302.582 1.302 1.304 0 .722-.582 1.304-1.302 1.304H70.048v8.253h46.714c.72 0 1.302.582 1.302 1.304 0 .722-.582 1.304-1.302 1.304H70.048v8.252h46.714c.72 0 1.302.592 1.302 1.305 0 .721-.582 1.304-1.302 1.304H68.747c-.72 0-1.302-.583-1.302-1.304V21.374c0-.722.582-1.304 1.302-1.304h54.566c.72 0 1.301.582 1.301 1.304v54.687c0 .722-.58 1.304-1.301 1.304H70.048v12.61h46.714c.72 0 1.302.59 1.302 1.303 0 .722-.582 1.305-1.302 1.305H70.048v8.26h46.714zm-59.945 2.678a1.301 1.301 0 1 1-2.603 0V21.374a1.301 1.301 0 1 1 2.603 0v82.148zM45.424 135.2a3.064 3.064 0 0 1-3.054-3.07c0-1.686 1.371-3.06 3.054-3.06a3.062 3.062 0 0 1 3.054 3.06c0 1.696-1.37 3.07-3.054 3.07zm-4.138-31.678V21.374a1.301 1.301 0 1 1 2.603 0v82.148a1.301 1.301 0 1 1-2.603 0zM29.113 135.2a3.064 3.064 0 0 1-3.055-3.07c0-1.686 1.371-3.06 3.055-3.06a3.062 3.062 0 0 1 3.054 3.06c0 1.696-1.371 3.07-3.054 3.07zm-17.345-32.4c-.72 0-1.301-.582-1.301-1.304 0-.722.581-1.305 1.301-1.305h7.375v-78.73c0-.713.582-1.304 1.302-1.304.711 0 1.301.591 1.301 1.304v78.73h6.065v-78.73c0-.713.581-1.304 1.302-1.304.72 0 1.301.591 1.301 1.304v80.035c0 .722-.581 1.304-1.301 1.304H11.768zm1.033 32.4a3.066 3.066 0 0 1 0-6.13 3.062 3.062 0 0 1 3.054 3.06c0 1.696-1.371 3.07-3.054 3.07zm-7.427 4.374h127.119v-127.4H5.373v127.4z"/>
        <path fill="#F66262" d="M59.671 291.009v12.4H47.298v-8.026a19.449 19.449 0 0 0 4.356-4.374h8.017z"/>
        <path fill="#1CCE9E" d="M260.072 346.2c-.6.861-1.614 1.461-2.638 1.548a2.751 2.751 0 0 1-2.247-.809c-.677-.687-1.206-1.443-1.9-2.46a4.498 4.498 0 0 1-1.987.33c-.547 1.13-.911 1.895-1.12 2.652-.017.043.01.104.052.174.148.209.46.374.738.4.876.078 1.718-.061 2.282-.174a1.286 1.286 0 0 1 1.544.991 1.31 1.31 0 0 1-.997 1.557c-.582.122-1.406.252-2.326.252-.234 0-.477-.009-.72-.026-1.05-.087-2.065-.661-2.655-1.513-.494-.713-.65-1.557-.425-2.357.252-.921.642-1.774 1.18-2.878a4.544 4.544 0 0 1-1.284-1.556c-1.25.086-2.091.156-2.855.347-.017.009-.06.018-.113.14-.112.234-.104.582.018.834.373.792.91 1.47 1.293 1.896.485.53.442 1.356-.087 1.843a1.293 1.293 0 0 1-1.84-.095c-.503-.557-1.214-1.444-1.726-2.522-.443-.957-.451-2.13-.018-3.06.374-.792 1.016-1.349 1.823-1.557.928-.235 1.856-.322 3.08-.418.086-.687.338-1.33.711-1.887-.711-1.043-1.189-1.739-1.744-2.304-.009-.009-.043-.044-.173-.035a1.092 1.092 0 0 0-.712.435c-.494.722-.807 1.53-.989 2.078a1.304 1.304 0 0 1-1.64.844 1.307 1.307 0 0 1-.833-1.644c.226-.722.642-1.782 1.32-2.756.598-.87 1.613-1.461 2.637-1.548a2.718 2.718 0 0 1 2.247.8c.677.687 1.206 1.452 1.9 2.47a4.498 4.498 0 0 1 1.987-.331c.547-1.14.911-1.896 1.12-2.66.008-.018.017-.062-.053-.166-.147-.218-.46-.383-.737-.409-.868-.07-1.718.061-2.282.183a1.3 1.3 0 0 1-1.545-1c-.156-.705.295-1.4.998-1.548.729-.165 1.857-.33 3.046-.235 1.05.087 2.065.67 2.655 1.513.494.722.65 1.557.425 2.357-.252.93-.642 1.774-1.18 2.887.538.408.98.939 1.284 1.556 1.25-.095 2.09-.156 2.854-.356.018-.009.061-.018.113-.13.113-.236.104-.592-.017-.844-.373-.792-.911-1.461-1.293-1.896a1.3 1.3 0 1 1 1.926-1.748c.503.557 1.215 1.452 1.727 2.53.442.957.451 2.122.017 3.062-.373.79-1.015 1.339-1.822 1.547-.928.244-1.857.322-3.08.418a4.478 4.478 0 0 1-.703 1.887c.703 1.043 1.18 1.739 1.736 2.304.008.009.043.044.173.035.252-.026.555-.209.712-.435.494-.722.815-1.522.989-2.07a1.295 1.295 0 0 1 1.63-.843c.686.217 1.068.948.842 1.635-.225.722-.642 1.782-1.318 2.765zm-7.714-18.617h-50.566v25.495h50.566c7.02 0 12.72-5.721 12.72-12.747 0-7.027-5.7-12.748-12.72-12.748zM260.072 298.452c-.6.87-1.614 1.461-2.638 1.548-.868.078-1.666-.209-2.247-.8-.677-.687-1.206-1.452-1.9-2.47a4.265 4.265 0 0 1-1.987.331c-.547 1.13-.911 1.896-1.12 2.66-.008.018-.017.062.052.166.148.218.46.383.738.409.876.07 1.718-.061 2.282-.183a1.294 1.294 0 0 1 1.544 1c.156.705-.295 1.4-.997 1.548-.582.13-1.415.26-2.326.26-.234 0-.477-.008-.72-.025-1.05-.087-2.065-.67-2.655-1.513-.494-.722-.65-1.557-.425-2.357.252-.93.642-1.774 1.18-2.887a4.388 4.388 0 0 1-1.284-1.556c-1.25.095-2.091.156-2.855.356-.017.009-.06.018-.113.13-.112.236-.104.592.018.844.373.792.91 1.47 1.293 1.896a1.3 1.3 0 1 1-1.926 1.748c-.504-.557-1.215-1.452-1.727-2.53-.443-.949-.451-2.122-.018-3.062.374-.79 1.016-1.339 1.823-1.547.928-.244 1.856-.322 3.08-.418.086-.695.338-1.33.711-1.887-.711-1.043-1.189-1.739-1.744-2.304-.009-.009-.052-.052-.173-.035a1.092 1.092 0 0 0-.712.435c-.494.722-.807 1.522-.989 2.07a1.3 1.3 0 1 1-2.473-.8c.226-.714.642-1.774 1.32-2.757.598-.861 1.613-1.461 2.637-1.548.867-.07 1.666.209 2.247.809.677.678 1.215 1.443 1.9 2.46a4.498 4.498 0 0 1 1.987-.33c.547-1.13.911-1.895 1.12-2.652.008-.017.017-.06-.053-.174-.147-.209-.46-.374-.737-.4-.868-.07-1.718.061-2.282.183a1.3 1.3 0 0 1-1.545-1 1.31 1.31 0 0 1 .998-1.557c.729-.156 1.857-.322 3.046-.226 1.05.087 2.065.661 2.655 1.513.494.713.65 1.557.425 2.357-.252.921-.642 1.774-1.18 2.878.538.417.98.948 1.284 1.556 1.25-.086 2.09-.156 2.854-.356.018 0 .061-.009.113-.13.113-.235.104-.583-.017-.835-.373-.792-.911-1.47-1.293-1.896a1.308 1.308 0 0 1 .087-1.843 1.3 1.3 0 0 1 1.84.095c.502.557 1.214 1.444 1.726 2.522.442.957.451 2.13.017 3.06-.373.8-1.015 1.349-1.822 1.557-.928.235-1.857.322-3.08.418a4.478 4.478 0 0 1-.703 1.887c.703 1.035 1.18 1.739 1.736 2.304.008.009.043.044.173.026.252-.017.555-.2.712-.426.494-.722.815-1.53.989-2.078a1.295 1.295 0 0 1 1.63-.844c.686.226 1.068.957.842 1.644-.225.713-.642 1.774-1.318 2.756zm-7.714-18.608h-50.566v25.495h50.566c7.02 0 12.72-5.721 12.72-12.748 0-7.026-5.7-12.747-12.72-12.747z"/>
        <path fill="#64DAF8" d="M439.866 304.922h2.603v-7.174h-2.603v7.174zm-8.581 0h2.603v-7.174h-2.603v7.174zm-8.573 0h2.603v-7.174h-2.603v7.174zm-8.58 0h2.602v-7.174h-2.603v7.174zm-8.574 0h2.603v-7.174h-2.603v7.174zm-8.58 0h2.603v-7.174h-2.603v7.174zm-8.573 0h2.603v-7.174h-2.603v7.174zm-8.572 0h2.603v-7.174h-2.603v7.174zm70.106-8.226V294.8h-77.576v1.896a4.829 4.829 0 0 1 3.496 4.634 4.832 4.832 0 0 1-3.496 4.644v1.73h77.576v-1.73a4.829 4.829 0 0 1-3.505-4.644c0-2.2 1.483-4.06 3.505-4.634zM439.866 269.33h2.603v-7.182h-2.603v7.182zm-8.581 0h2.603v-7.182h-2.603v7.182zm-8.573 0h2.603v-7.182h-2.603v7.182zm-8.58 0h2.602v-7.182h-2.603v7.182zm-8.574 0h2.603v-7.182h-2.603v7.182zm-8.58 0h2.603v-7.182h-2.603v7.182zm-8.573 0h2.603v-7.182h-2.603v7.182zm-8.572 0h2.603v-7.182h-2.603v7.182zm70.106-8.234V259.2h-77.576v1.896a4.832 4.832 0 0 1 3.496 4.643c0 2.2-1.483 4.061-3.496 4.635v1.73h77.576v-1.73a4.826 4.826 0 0 1-3.505-4.635 4.829 4.829 0 0 1 3.505-4.643zM439.866 233.73h2.603v-7.173h-2.603v7.173zm-8.581 0h2.603v-7.173h-2.603v7.173zm-8.573 0h2.603v-7.173h-2.603v7.173zm-8.58 0h2.602v-7.173h-2.603v7.173zm-8.574 0h2.603v-7.173h-2.603v7.173zm-8.58 0h2.603v-7.173h-2.603v7.173zm-8.573 0h2.603v-7.173h-2.603v7.173zm-8.572 0h2.603v-7.173h-2.603v7.173zm70.106-8.226v-1.895h-77.576v1.895a4.829 4.829 0 0 1 3.496 4.635 4.832 4.832 0 0 1-3.496 4.644v1.73h77.576v-1.73a4.829 4.829 0 0 1-3.505-4.644c0-2.2 1.483-4.06 3.505-4.635zM439.866 198.14h2.603v-7.183h-2.603v7.182zm-8.581 0h2.603v-7.183h-2.603v7.182zm-8.573 0h2.603v-7.183h-2.603v7.182zm-8.58 0h2.602v-7.183h-2.603v7.182zm-8.574 0h2.603v-7.183h-2.603v7.182zm-8.58 0h2.603v-7.183h-2.603v7.182zm-8.573 0h2.603v-7.183h-2.603v7.182zm-8.572 0h2.603v-7.183h-2.603v7.182zm70.106-8.227v-1.904h-77.576v1.904a4.821 4.821 0 0 1 0 9.27v1.73h77.576v-1.73a4.819 4.819 0 0 1-3.505-4.635 4.81 4.81 0 0 1 3.505-4.635z"/>
        <path fill="#1CCE9E" d="M401.064 22.235h20.165v-2.609h-20.165v2.609zm55.53-8.105h-90.886a4.19 4.19 0 0 0-4.183 4.192v9.4h99.25v-9.4a4.189 4.189 0 0 0-4.181-4.192zM401.064 141.896h20.165v-2.609h-20.165v2.609zm-39.54-8.096v9.4a4.19 4.19 0 0 0 4.184 4.191h90.886a4.189 4.189 0 0 0 4.182-4.191v-9.4h-99.251zM449.123 106.217v8.322c0 .826-.668 1.505-1.492 1.505h-8.303a1.503 1.503 0 0 1-1.501-1.505v-8.322c0-.826.668-1.504 1.5-1.504h8.304c.824 0 1.492.678 1.492 1.504M427.57 106.217v8.322c0 .826-.667 1.505-1.492 1.505h-8.303a1.503 1.503 0 0 1-1.501-1.505v-8.322c0-.826.668-1.504 1.501-1.504h8.303c.825 0 1.493.678 1.493 1.504M406.027 106.217v8.322c0 .826-.677 1.505-1.5 1.505h-8.304a1.503 1.503 0 0 1-1.502-1.505v-8.322c0-.826.669-1.504 1.502-1.504h8.304c.823 0 1.5.678 1.5 1.504M449.123 76.6v8.322c0 .826-.668 1.504-1.492 1.504h-8.303a1.503 1.503 0 0 1-1.501-1.504V76.6c0-.826.668-1.504 1.5-1.504h8.304c.824 0 1.492.678 1.492 1.504M427.57 76.6v8.322c0 .826-.667 1.504-1.492 1.504h-8.303a1.503 1.503 0 0 1-1.501-1.504V76.6c0-.826.668-1.504 1.501-1.504h8.303c.825 0 1.493.678 1.493 1.504M406.033 76.6v8.322c0 .826-.668 1.504-1.492 1.504h-8.303a1.503 1.503 0 0 1-1.501-1.504V76.6c0-.826.668-1.504 1.5-1.504h8.304c.824 0 1.492.678 1.492 1.504M384.475 46.983v8.322c0 .826-.677 1.504-1.501 1.504h-8.304a1.509 1.509 0 0 1-1.5-1.504v-8.322c0-.826.676-1.505 1.5-1.505h8.304c.824 0 1.5.679 1.5 1.505M406.027 46.983v8.322c0 .826-.677 1.504-1.5 1.504h-8.304a1.503 1.503 0 0 1-1.502-1.504v-8.322c0-.826.669-1.505 1.502-1.505h8.304c.823 0 1.5.679 1.5 1.505M427.57 46.983v8.322c0 .826-.667 1.504-1.492 1.504h-8.303a1.503 1.503 0 0 1-1.501-1.504v-8.322c0-.826.668-1.505 1.501-1.505h8.303c.825 0 1.493.679 1.493 1.505M449.123 46.983v8.322c0 .826-.668 1.504-1.492 1.504h-8.303a1.503 1.503 0 0 1-1.501-1.504v-8.322c0-.826.668-1.505 1.5-1.505h8.304c.824 0 1.492.679 1.492 1.505"/>
        <path fill="#FFF" d="M96.034 70.791c-12.147 0-22.03-9.904-22.03-22.078s9.883-22.078 22.03-22.078c12.147 0 22.03 9.904 22.03 22.078s-9.883 22.078-22.03 22.078zm-25.986 3.966h51.964V22.678H70.048v52.079z"/>
        <path fill="#E9646A" d="M157.859 207.283c0 3.278-2.68 5.948-5.959 5.948-3.287 0-5.959-2.67-5.959-5.948a5.962 5.962 0 0 1 5.96-5.955c3.279 0 5.958 2.67 5.958 5.955M193.973 170.308c0 3.302-2.692 6-6.004 6-3.305 0-6.004-2.698-6.004-6 0-3.31 2.7-6 6.004-6a6.007 6.007 0 0 1 6.004 6M227.225 188.77c0 3.301-2.692 6-6.004 6-3.312 0-6.004-2.699-6.004-6 0-3.31 2.692-6 6.004-6a6.007 6.007 0 0 1 6.004 6M234.614 157.385c0 3.31-2.691 6-6.003 6a6.007 6.007 0 0 1-6.004-6c0-3.303 2.692-6 6.004-6 3.312 0 6.003 2.697 6.003 6"/>
        <path fill="#FFF" d="M251.295 203.627c0 1.479-1.193 2.682-2.658 2.682h-6.98c-.63 0-1.14-.513-1.14-1.15V139.73c0-.628.51-1.15 1.14-1.15h6.98c1.465 0 2.658 1.204 2.658 2.682v62.365zm-2.658-69.045h-88.653c-3.653 0-6.623 2.995-6.623 6.68v27.743h26.87c.555-4.076 4.033-7.233 8.225-7.233 3.311 0 6.175 1.962 7.511 4.796l24.546-7.807a8.623 8.623 0 0 1-.152-1.609c0-4.62 3.73-8.381 8.31-8.381 4.579 0 8.308 3.761 8.308 8.381s-3.73 8.382-8.309 8.382c-3.228 0-6.038-1.87-7.412-4.597l-24.615 7.823c.084.452.122.919.122 1.394 0 1.05-.198 2.061-.555 2.988l18.357 10.887c1.519-1.938 3.873-3.187 6.508-3.187 4.58 0 8.309 3.762 8.309 8.382 0 4.62-3.729 8.381-8.309 8.381-4.58 0-8.308-3.761-8.308-8.381a8.41 8.41 0 0 1 .638-3.218l-18.288-10.849c-1.52 2.046-3.942 3.379-6.66 3.379-4.193 0-7.671-3.157-8.226-7.233h-26.566v6.022c8.521.46 16.807 3.18 23.445 7.715 6.47 4.413 10.647 10.03 11.453 15.408.417 2.82.736 5.118 1.002 7.04.144 1.05.273 1.977.395 2.82h58.677c3.653 0 6.622-2.996 6.622-6.68v-62.366c0-3.685-2.97-6.68-6.622-6.68z"/>
        <g>
            <g stroke="#008FFF" stroke-linejoin="round" stroke-width="2">
                <path d="M356.583 68.063V17.784a5.486 5.486 0 0 1 5.48-5.492h90.89c3.027 0 5.48 2.46 5.48 5.492V142.67a5.486 5.486 0 0 1-5.48 5.492h-90.89a5.486 5.486 0 0 1-5.48-5.492v-16.953M397.428 140.06h20.161M356.583 28.492h101.85M458.434 131.961H356.98"/>
                <path d="M379.331 57.577h-8.3a2.805 2.805 0 0 1-2.802-2.808V46.45a2.805 2.805 0 0 1 2.801-2.809h8.301a2.805 2.805 0 0 1 2.802 2.81v8.318a2.805 2.805 0 0 1-2.802 2.808zM400.883 57.577h-8.3a2.805 2.805 0 0 1-2.802-2.808V46.45a2.805 2.805 0 0 1 2.801-2.809h8.301a2.805 2.805 0 0 1 2.802 2.81v8.318a2.805 2.805 0 0 1-2.802 2.808zM422.435 57.577h-8.3a2.805 2.805 0 0 1-2.802-2.808V46.45a2.805 2.805 0 0 1 2.801-2.809h8.301a2.805 2.805 0 0 1 2.802 2.81v8.318a2.805 2.805 0 0 1-2.802 2.808zM443.987 57.577h-8.3a2.805 2.805 0 0 1-2.803-2.808V46.45a2.805 2.805 0 0 1 2.802-2.809h8.3a2.805 2.805 0 0 1 2.803 2.81v8.318a2.805 2.805 0 0 1-2.802 2.808zM370.816 73.259h8.729M392.851 73.259h8.64c1.211 0 2.193.984 2.193 2.2v9.536c0 1.214-.982 2.199-2.194 2.199h-9.515M422.435 87.194h-8.3a2.805 2.805 0 0 1-2.802-2.808v-8.319a2.804 2.804 0 0 1 2.801-2.808h8.301a2.805 2.805 0 0 1 2.802 2.808v8.32a2.805 2.805 0 0 1-2.802 2.807zM443.987 87.194h-8.3a2.805 2.805 0 0 1-2.803-2.808v-8.319a2.804 2.804 0 0 1 2.802-2.808h8.3a2.805 2.805 0 0 1 2.803 2.808v8.32a2.805 2.805 0 0 1-2.802 2.807zM400.883 116.811h-8.3a2.805 2.805 0 0 1-2.802-2.808v-8.319a2.804 2.804 0 0 1 2.801-2.808h8.301a2.805 2.805 0 0 1 2.802 2.808v8.32a2.805 2.805 0 0 1-2.802 2.807zM422.435 116.811h-8.3a2.805 2.805 0 0 1-2.802-2.808v-8.319a2.804 2.804 0 0 1 2.801-2.808h8.301a2.805 2.805 0 0 1 2.802 2.808v8.32a2.805 2.805 0 0 1-2.802 2.807zM443.987 116.811h-8.3a2.805 2.805 0 0 1-2.802-2.808v-8.319a2.804 2.804 0 0 1 2.801-2.808h8.301a2.805 2.805 0 0 1 2.802 2.808v8.32a2.805 2.805 0 0 1-2.802 2.807zM63.744 310.605H35.945v-20.38a11.798 11.798 0 0 0 7.464-7.48h20.335v27.86z"/>
                <path d="M42.36 304.175v-10.01a18.328 18.328 0 0 0 4.98-4.99h9.99v15H42.36zM18.16 281.983h7.567M18.16 296.167h7.567M18.16 310.351h7.567M35.439 328.156v-7.584M49.591 328.156v-7.584M63.744 328.156v-7.584M36.911 160.1l.078 12.903v17.218c0 76.724 62.281 139.142 138.835 139.142"/>
                <path stroke-dasharray="1.825710736788236,5.47713353083684" stroke-linecap="round" d="M78.09 318.57c27.107 20.764 60.983 33.098 97.734 33.098M14.689 158.11l.045 14.935v17.176c0 29.849 8.082 57.805 22.173 81.791M471.481 155.573v128.63c0 37.26-30.006 67.465-67.02 67.465-37.015 0-67.02-30.205-67.02-67.465l-.079-41.079v-52.306c0-89.164-72.122-161.447-161.09-161.447M149.309 31.623a161.805 161.805 0 0 1 26.963-2.251"/>
                <path d="M156.87 50.274c11.421-1.308 18.954-.691 18.954-.691 77.502 0 140.329 62.966 140.329 140.639v103.164M212.955 309.031h-.002"/>
                <path stroke-dasharray="1.825710736788236,5.47713353083684" stroke-linecap="round" d="M153.691 73.185a119.118 119.118 0 0 1 22.017-2.043c65.546 0 118.682 53.253 118.682 118.945v103.367"/>
                <path d="M175.708 309.031c-65.546 0-118.682-53.253-118.682-118.944 0-8.192.826-16.19 2.4-23.916M362.813 95.885l15.676-15.71a4.065 4.065 0 0 1 5.758 0 4.087 4.087 0 0 1 0 5.77l-20.392 20.437M357.055 90.113l4.462-4.472a4.065 4.065 0 0 1 5.759 0M351.296 84.342l2.556-2.56a4.065 4.065 0 0 1 5.758 0M321.84 111.69c5.418-5.2 5.998-6.644 5.998-6.644s1.063-1.583 2.201-3.809a81.176 81.176 0 0 1 13.343-18.821l2.412-2.458a4.066 4.066 0 0 1 5.759 0M373.843 101.555a4.82 4.82 0 0 1 3.772 1.403c1.702 1.706 1.635 3.578.97 4.82-.061.112-.126.224-.196.336-.738 1.195-1.873 2.082-3.17 2.62-2.309.956-6.686 3.24-10.512 8.24-2.215 2.893-5.403 4.884-8.982 5.544-2.27.42-4.906.836-7.466 1.081 0 0-5.68-.035-9.128 3.42M351.552 79.958l2.06 2.064M359.61 81.781l3.05 3.059M367.275 85.641l2.88 2.885"/>
                <path d="M316.945 110.058a2.302 2.302 0 0 1 3.265 0l20.54 20.585a2.304 2.304 0 0 1 0 3.263l-10.227 10.25M.434 140.343H130.15V10.338H.434zM74.903 10.337h10.82V3.222h-10.82zM54.964 10.337h10.82V3.222h-10.82zM98.1 10.337h16.263V3.222H98.1zM46.656 10.338V1.304M38.92 10.338V1.304M31.183 10.338V1.304"/>
                <path d="M10.91 131.6c0 .97-.785 1.757-1.753 1.757a1.756 1.756 0 0 1-1.753-1.757c0-.97.785-1.758 1.753-1.758.968 0 1.754.787 1.754 1.758zM27.224 131.6c0 .97-.785 1.757-1.753 1.757a1.756 1.756 0 0 1-1.754-1.757c0-.97.785-1.758 1.754-1.758.968 0 1.753.787 1.753 1.758z"/>
                <path d="M27.224 131.6c0 .97-.785 1.757-1.753 1.757a1.756 1.756 0 0 1-1.754-1.757c0-.97.785-1.758 1.754-1.758.968 0 1.753.787 1.753 1.758zM43.538 131.6c0 .97-.785 1.757-1.754 1.757a1.756 1.756 0 0 1-1.753-1.757c0-.97.785-1.758 1.753-1.758.969 0 1.754.787 1.754 1.758zM123.182 131.6c0 .97-.785 1.757-1.754 1.757a1.756 1.756 0 0 1-1.753-1.757c0-.97.785-1.758 1.753-1.758.969 0 1.754.787 1.754 1.758zM92.391 52.926a4.745 4.745 0 0 1 0-9.49 4.745 4.745 0 0 1 0 9.49zm-3.833-9.324c-1.264-1.865-2.112-3.135-3.16-4.205-1.235-1.26-3.452-.57-4.455.882-.898 1.3-1.46 2.72-1.783 3.725l9.398-.402zm-2.04 5.617c-2.244.165-3.765.266-5.214.64-1.706.442-2.219 2.712-1.466 4.307.676 1.43 1.622 2.628 2.329 3.41l4.351-8.357zm3.834 4.578c-.98 2.03-1.653 3.4-2.054 4.847-.471 1.7 1.233 3.281 2.989 3.425 1.573.13 3.082-.093 4.11-.316l-5.045-7.956zm5.872-1.037c1.266 1.865 2.112 3.135 3.161 4.205 1.235 1.26 3.453.57 4.455-.881.898-1.301 1.46-2.721 1.782-3.725l-9.398.401zm2.04-5.616c2.245-.165 3.766-.265 5.215-.641 1.706-.442 2.22-2.71 1.465-4.307-.675-1.43-1.62-2.628-2.328-3.41l-4.352 8.358zm-3.833-4.578c.98-2.031 1.654-3.401 2.054-4.847.472-1.701-1.233-3.281-2.99-3.426-1.572-.128-3.08.093-4.11.316l5.046 7.957zM38.945 20.838v82.152M51.875 20.838v82.152M25.47 20.93v80.03H8.13M16.8 20.93v80.03M113.12 112.475H65.108M113.12 101.611H65.108M113.12 90.747H65.108M65.108 75.525v47.814h48.012"/>
                <path d="M92.391 68.956c-11.448 0-20.728-9.3-20.728-20.775 0-11.473 9.28-20.775 20.728-20.775 11.45 0 20.73 9.302 20.73 20.775 0 11.474-9.28 20.775-20.73 20.775zm-27.283 6.569h54.567V20.838H65.108v54.687zM367.417 201.683H447.6M444.096 194.012a3.508 3.508 0 0 1 3.504-3.513v-4.327h-80.183v4.327a3.508 3.508 0 0 1 3.505 3.513 3.508 3.508 0 0 1-3.505 3.512v9.911h21.437v-5.752h9.268v5.752H447.6v-9.911a3.508 3.508 0 0 1-3.504-3.512zM377.49 190.422v7.179M386.067 190.422v7.179M394.643 190.422v7.179M403.22 190.422v7.179M411.797 190.422v7.179M420.373 190.422v7.179M428.95 190.422v7.179M437.527 190.422v7.179M367.417 308.47H447.6M444.096 300.799a3.508 3.508 0 0 1 3.504-3.513v-4.327h-80.183v4.327a3.508 3.508 0 0 1 3.505 3.513 3.508 3.508 0 0 1-3.505 3.512v9.911h21.437v-5.752h9.268v5.752H447.6v-9.911a3.508 3.508 0 0 1-3.504-3.512zM377.49 297.21v7.178M386.067 297.21v7.178M394.643 297.21v7.178M403.22 297.21v7.178M411.797 297.21v7.178M420.373 297.21v7.178M428.95 297.21v7.178M437.527 297.21v7.178M367.417 272.874H447.6M444.096 265.203a3.508 3.508 0 0 1 3.504-3.512v-4.328h-80.183v4.328a3.508 3.508 0 0 1 3.505 3.512 3.508 3.508 0 0 1-3.505 3.512v9.911h21.437v-5.752h9.268v5.752H447.6v-9.911a3.508 3.508 0 0 1-3.504-3.512zM377.49 261.614v7.178M386.067 261.614v7.178M394.643 261.614v7.178M403.22 261.614v7.178M411.797 261.614v7.178M420.373 261.614v7.178M428.95 261.614v7.178M437.527 261.614v7.178M367.417 237.279H447.6M444.096 229.607a3.508 3.508 0 0 1 3.504-3.512v-4.328h-80.183v4.328a3.508 3.508 0 0 1 3.505 3.512 3.508 3.508 0 0 1-3.505 3.512v9.912h21.437v-5.752h9.268v5.752H447.6v-9.912a3.508 3.508 0 0 1-3.504-3.512zM377.49 226.018v7.178M386.067 226.018v7.178M394.643 226.018v7.178M403.22 226.018v7.178M411.797 226.018v7.178M420.373 226.018v7.178M428.95 226.018v7.178M437.527 226.018v7.178M186.49 325.748h5.308v29.641M210.085 353.848v5.287M242.76 353.848v5.287M217.238 353.848v3.334M223.36 353.848v3.334M229.484 353.848v3.334M235.607 353.848v3.334M187.999 338.766v-6.483M187.999 350.278v-6.483M196.847 353.848h70.711v-28.1h-70.711z"/>
                <path d="M248.722 353.848c7.743 0 14.02-6.29 14.02-14.05 0-7.76-6.277-14.05-14.02-14.05"/>
                <path d="M247.938 336.618a3.18 3.18 0 0 1 0 6.36 3.18 3.18 0 0 1 0-6.36zm2.485 6.149c.82 1.21 1.369 2.032 2.048 2.726.801.816 2.239.37 2.889-.572.582-.843.946-1.764 1.155-2.415l-6.092.26zm1.322-3.641c1.455-.107 2.44-.173 3.38-.416 1.107-.286 1.439-1.757.95-2.792-.437-.927-1.05-1.704-1.508-2.21l-2.822 5.418zm-2.485-2.968c.635-1.317 1.072-2.205 1.332-3.143.305-1.102-.8-2.127-1.938-2.22-1.02-.084-1.998.06-2.665.204l3.271 5.159zm-3.807.671c-.82-1.209-1.37-2.032-2.05-2.726-.8-.816-2.237-.37-2.887.571-.582.844-.947 1.765-1.156 2.416l6.093-.26zm-1.323 3.641c-1.455.107-2.441.172-3.38.416-1.106.286-1.44 1.757-.95 2.792.437.927 1.05 1.703 1.509 2.21l2.821-5.418zm2.485 2.968c-.635 1.316-1.072 2.205-1.331 3.142-.306 1.104.799 2.128 1.938 2.221 1.02.084 1.997-.06 2.664-.205l-3.27-5.158zM186.49 278.005h5.308v29.641M210.085 306.105v5.287M242.76 306.105v5.287M217.238 306.105v3.334M223.36 306.105v3.334M229.484 306.105v3.334M235.607 306.105v3.334M187.999 291.023v-6.482M187.999 302.535v-6.483M196.847 306.105h70.711v-28.1h-70.711z"/>
                <path d="M247.937 295.235a3.18 3.18 0 0 1 0-6.36 3.18 3.18 0 0 1 0 6.36zm-2.485-6.149c-.82-1.21-1.369-2.032-2.048-2.726-.8-.816-2.239-.37-2.889.571-.582.844-.946 1.765-1.155 2.416l6.092-.26zm-1.322 3.641c-1.455.107-2.44.172-3.38.416-1.106.286-1.439 1.757-.95 2.792.437.927 1.05 1.703 1.509 2.21l2.821-5.418zm2.485 2.968c-.635 1.316-1.071 2.205-1.332 3.142-.305 1.103.8 2.127 1.939 2.221 1.019.084 1.997-.06 2.664-.205l-3.27-5.158zm3.807-.671c.82 1.208 1.37 2.032 2.05 2.726.8.816 2.237.37 2.887-.572.582-.843.947-1.764 1.156-2.415l-6.093.26zm1.323-3.641c1.455-.107 2.441-.172 3.38-.416 1.106-.286 1.44-1.757.95-2.792-.437-.927-1.05-1.704-1.509-2.21l-2.821 5.418zm-2.485-2.968c.635-1.317 1.072-2.205 1.331-3.143.306-1.103-.799-2.128-1.937-2.22-1.02-.084-1.998.06-2.665.204l3.27 5.159z"/>
                <path d="M248.722 306.105c7.743 0 14.02-6.29 14.02-14.05 0-7.76-6.277-14.05-14.02-14.05M267.558 339.798h8.454c4.99 0 9.037-4.055 9.037-9.058v-7.534a8.407 8.407 0 0 1 4.193-7.28 8.409 8.409 0 0 1-4.193-7.279v-7.534c0-5.003-4.047-9.058-9.037-9.058h-8.454"/>
            </g>
            <g fill="#008FFF">
                <path d="M303.578 324.898c-1.243 0-2.327-.161-3.253-.487-.926-.324-1.702-.777-2.327-1.358a5.7 5.7 0 0 1-1.424-2.079c-.324-.805-.5-1.69-.531-2.653h3.144c.053.62.204 1.157.451 1.61.249.455.563.83.944 1.13.38.297.818.517 1.309.658.492.141 1.016.212 1.572.212.526 0 1.006-.053 1.44-.16a3.755 3.755 0 0 0 1.115-.453c.31-.195.548-.433.715-.716.168-.283.252-.6.252-.951 0-.359-.083-.665-.246-.917-.165-.252-.43-.477-.794-.676-.367-.199-.847-.38-1.44-.545a32.984 32.984 0 0 0-2.197-.51c-.99-.221-1.844-.48-2.56-.773-.717-.293-1.306-.641-1.768-1.042a3.785 3.785 0 0 1-1.023-1.387c-.22-.523-.331-1.124-.331-1.805 0-.734.153-1.408.457-2.022a4.672 4.672 0 0 1 1.298-1.593c.56-.447 1.229-.796 2.006-1.049.778-.252 1.643-.378 2.596-.378.99 0 1.896.136 2.716.407.819.271 1.526.66 2.12 1.17a5.367 5.367 0 0 1 1.4 1.867c.34.737.521 1.572.544 2.504h-3.11c-.229-1.978-1.422-2.968-3.579-2.968-1.051 0-1.856.177-2.412.532-.557.356-.834.843-.834 1.461 0 .253.06.472.183.66.121.187.315.358.583.515.266.157.61.3 1.028.43.42.129.927.256 1.52.378.519.107 1.05.226 1.596.355.544.13 1.079.286 1.6.47a8.914 8.914 0 0 1 1.475.67c.462.264.868.583 1.219.957.35.374.626.816.828 1.324.202.507.303 1.101.303 1.781a4.92 4.92 0 0 1-.491 2.201 5.142 5.142 0 0 1-1.367 1.713c-.583.477-1.279.85-2.086 1.117-.808.267-1.689.4-2.641.4M326.274 324.624H315.08v-17.395h3.235v14.403h7.959zM330.015 324.623h3.224V307.23h-3.224zM208.216 343.935c-.64 0-1.226-.11-1.755-.33a3.88 3.88 0 0 1-1.355-.93c-.376-.4-.667-.88-.876-1.443a5.406 5.406 0 0 1-.311-1.879c0-.701.104-1.333.311-1.896.209-.563.5-1.042.876-1.438.375-.395.823-.7 1.347-.914a4.527 4.527 0 0 1 1.729-.322c.528 0 1.022.076 1.48.229.459.15.862.367 1.21.645.348.279.63.615.846 1.008.215.394.345.834.388 1.32h-1.697a1.904 1.904 0 0 0-.201-.726 1.626 1.626 0 0 0-.452-.541 2.043 2.043 0 0 0-.68-.34 3.091 3.091 0 0 0-.877-.116 2.63 2.63 0 0 0-1.052.204c-.317.137-.59.337-.817.6a2.807 2.807 0 0 0-.53.969c-.127.384-.19.824-.19 1.318 0 .487.063.923.19 1.306.126.384.303.71.53.976.228.267.5.472.82.614.318.143.67.213 1.054.213.553 0 1.024-.08 1.415-.243.39-.16.72-.414.988-.756v-.929h-2.192v-1.526h3.825v4.787h-1.271l-.21-.637a3.111 3.111 0 0 1-1.094.581c-.421.13-.905.196-1.449.196M216.324 338.938h1.848c.303 0 .562-.028.775-.085.215-.055.388-.139.523-.248a.97.97 0 0 0 .294-.403c.062-.16.094-.344.094-.555 0-.254-.047-.458-.141-.614a.997.997 0 0 0-.376-.365 1.571 1.571 0 0 0-.548-.176 4.803 4.803 0 0 0-.656-.043h-1.813v2.49zm-1.65-4.014h3.393c.303 0 .6.016.89.05.289.032.563.09.822.171.258.082.495.19.711.322.216.132.401.3.557.5.155.2.277.437.365.71.087.273.13.588.13.947 0 .942-.284 1.65-.854 2.124-.57.473-1.418.71-2.545.71h-1.82v3.337h-1.65v-8.871zM226.42 343.935c-.557 0-1.03-.056-1.424-.167a3.08 3.08 0 0 1-.982-.452 2.232 2.232 0 0 1-.621-.672 3.256 3.256 0 0 1-.344-.822 4.51 4.51 0 0 1-.145-.9c-.02-.31-.03-.614-.03-.914v-5.084h1.65v5.067c0 .502.042.912.125 1.23.085.317.207.564.368.742.162.177.36.298.595.362s.505.096.807.096c.308 0 .58-.033.817-.099s.435-.188.592-.365c.157-.178.276-.424.358-.74.082-.315.123-.724.123-1.226v-5.067h1.662v5.084c0 .616-.054 1.167-.16 1.654a2.977 2.977 0 0 1-.563 1.236c-.27.337-.63.594-1.088.771-.457.177-1.037.266-1.74.266M208.216 296.192c-.64 0-1.226-.11-1.755-.33a3.88 3.88 0 0 1-1.355-.929c-.376-.4-.667-.88-.876-1.443a5.406 5.406 0 0 1-.311-1.88c0-.701.104-1.333.311-1.896.209-.563.5-1.042.876-1.437.375-.396.823-.7 1.347-.915.523-.214 1.099-.321 1.729-.321.528 0 1.022.076 1.48.228.459.151.862.367 1.21.645.348.279.63.615.846 1.008.215.394.345.834.388 1.32h-1.697a1.904 1.904 0 0 0-.201-.726 1.626 1.626 0 0 0-.452-.541 2.043 2.043 0 0 0-.68-.34 3.091 3.091 0 0 0-.877-.116 2.63 2.63 0 0 0-1.052.204c-.317.137-.59.336-.817.6a2.807 2.807 0 0 0-.53.97c-.127.384-.19.823-.19 1.317 0 .487.063.923.19 1.307.126.383.303.71.53.975.228.267.5.472.82.614.318.143.67.213 1.054.213.553 0 1.024-.08 1.415-.242.39-.161.72-.414.988-.757v-.929h-2.192v-1.525h3.825v4.786h-1.271l-.21-.637a3.111 3.111 0 0 1-1.094.582c-.421.13-.905.195-1.449.195M216.324 291.195h1.848c.303 0 .562-.027.775-.084a1.38 1.38 0 0 0 .523-.249.964.964 0 0 0 .294-.403c.062-.16.094-.344.094-.555 0-.253-.047-.458-.141-.614a.997.997 0 0 0-.376-.365 1.571 1.571 0 0 0-.548-.176 4.803 4.803 0 0 0-.656-.043h-1.813v2.49zm-1.65-4.014h3.393c.303 0 .6.016.89.05.289.032.563.09.822.171.258.082.495.19.711.322.216.132.401.3.557.5.155.2.277.438.365.71.087.273.13.588.13.947 0 .942-.284 1.651-.854 2.124-.57.473-1.418.71-2.545.71h-1.82v3.337h-1.65v-8.871zM226.42 296.192c-.557 0-1.03-.055-1.424-.166a3.1 3.1 0 0 1-.982-.453 2.242 2.242 0 0 1-.621-.672 3.256 3.256 0 0 1-.344-.822 4.513 4.513 0 0 1-.145-.899c-.02-.31-.03-.615-.03-.915v-5.084h1.65v5.067c0 .502.042.912.125 1.23.085.317.207.565.368.742.162.177.36.298.595.362s.505.096.807.096c.308 0 .58-.033.817-.099s.435-.188.592-.365c.157-.177.276-.424.358-.74.082-.315.123-.724.123-1.226v-5.067h1.662v5.084c0 .616-.054 1.167-.16 1.654-.108.487-.295.9-.563 1.236-.27.337-.63.594-1.088.771-.457.177-1.037.266-1.74.266"/>
            </g>
            <g stroke="#008FFF" stroke-linejoin="round" stroke-width="2">
                <path d="M151.483 163.385v-21.696c0-4.331 3.413-7.843 7.623-7.843h7.156M166.262 133.846h80.953c4.264 0 7.72 3.484 7.72 7.78v61.979c0 4.297-3.456 7.78-7.72 7.78h-52.74"/>
                <path d="M229.867 211.385l4.747 12h-36.023M146.865 179.077c-.46.066-.925.139-1.394.217-5.414.904-10.82 2.507-15.352 5.633-10.52 7.254-16.173 22.543-10.67 40.324 3.093 9.993 9.987 20.71 7.873 31.843l-3 12.444M169.068 270.462c-.979-3.06-.912-6.856-.23-10.259a5.27 5.27 0 0 1 3.872-4.07 21.394 21.394 0 0 1 5.548-.641c1.927.031 3.856.324 5.776.145 4.413-.41 7.125-3.411 5.257-8.08-.98-2.249.05-3.684.76-4.97 2.093-3.786-.98-4.64-1.028-7.28-.02-1.177.924-2.111 2.084-2.236 1.68-.18 3.126-.906 4.028-1.833.783-.804.902-2.055.318-3.015-7.705-12.659-6.14-9.326-8.81-27.159-1.484-9.911-10.995-21.4-29.618-21.987M145.018 207.692c0 4.079 3.101 7.385 6.927 7.385 3.826 0 6.928-3.306 6.928-7.385s-3.102-7.384-6.928-7.384-6.927 3.305-6.927 7.384zM181.041 170.77c0 4.078 3.102 7.384 6.927 7.384 3.827 0 6.928-3.306 6.928-7.385s-3.101-7.384-6.928-7.384c-3.825 0-6.927 3.305-6.927 7.384zM213.37 189.231c0 4.079 3.102 7.384 6.927 7.384 3.826 0 6.928-3.305 6.928-7.384 0-4.078-3.102-7.385-6.928-7.385-3.825 0-6.927 3.307-6.927 7.385zM220.76 157.846c0 4.078 3.101 7.385 6.927 7.385 3.826 0 6.927-3.307 6.927-7.385 0-4.079-3.101-7.384-6.927-7.384-3.826 0-6.928 3.305-6.928 7.384z"/>
                <path d="M151.483 200.308v-29.539h28.634M220.76 159.692L193.972 168M214.294 185.538l-20.321-12M247.909 140.308c.818 0 1.484.678 1.484 1.512v61.591c0 .834-.666 1.512-1.484 1.512h-6.829v-64.615h6.829z"/>
            </g>
        </g>
    </g>
</svg>
