<svg width="42" height="42" fill="none" xmlns="http://www.w3.org/2000/svg"><path d="M21.165.107l.697 1.485a.186.186 0 00.138.103l1.572.24a.183.183 0 01.103.308L22.526 3.42a.186.186 0 00-.05.157l.27 1.654a.183.183 0 01-.268.19l-1.39-.77a.185.185 0 00-.176 0l-1.39.77a.183.183 0 01-.267-.19l.269-1.654a.186.186 0 00-.05-.157l-1.149-1.18a.183.183 0 01.103-.309L20 1.691a.186.186 0 00.138-.102l.697-1.485a.182.182 0 01.33.003zm0 36.546l.697 1.484a.186.186 0 00.138.103l1.572.24a.183.183 0 01.103.308l-1.149 1.178a.187.187 0 00-.05.157l.27 1.653a.183.183 0 01-.268.19l-1.389-.769a.185.185 0 00-.177 0l-1.388.768a.183.183 0 01-.268-.189l.27-1.653a.186.186 0 00-.05-.157l-1.151-1.18a.183.183 0 01.103-.31L20 38.238a.186.186 0 00.138-.103l.697-1.484a.182.182 0 01.33.003zm-8.9-34.075l.695 1.485a.185.185 0 00.138.103l1.572.24a.183.183 0 01.103.308l-1.147 1.18c-.04.042-.06.1-.05.158l.27 1.653a.183.183 0 01-.27.19l-1.388-.769a.185.185 0 00-.177 0l-1.388.768a.183.183 0 01-.27-.189l.268-1.656a.184.184 0 00-.049-.157L9.424 4.714a.183.183 0 01.104-.308l1.572-.24a.183.183 0 00.137-.103l.7-1.485a.183.183 0 01.328 0zm18.273 31.649l.695 1.489a.185.185 0 00.138.103l1.572.24a.182.182 0 01.103.308L31.9 37.543a.18.18 0 00-.05.156l.27 1.654a.182.182 0 01-.27.189l-1.388-.768a.181.181 0 00-.177 0l-1.389.768a.183.183 0 01-.269-.19l.27-1.653a.181.181 0 00-.049-.156l-1.15-1.178a.183.183 0 01.104-.308l1.572-.24a.183.183 0 00.138-.104l.696-1.484a.184.184 0 01.33-.002zM5.631 8.891l.697 1.485a.186.186 0 00.138.103l1.572.24a.183.183 0 01.103.308l-1.149 1.177a.186.186 0 00-.05.157l.27 1.654a.183.183 0 01-.268.19l-1.389-.77a.184.184 0 00-.177 0l-1.388.77a.183.183 0 01-.269-.19l.27-1.654a.186.186 0 00-.05-.157l-1.15-1.179a.183.183 0 01.103-.307l1.572-.24a.186.186 0 00.138-.102l.697-1.485a.182.182 0 01.33 0zm31.65 18.273l.697 1.484a.183.183 0 00.137.104l1.572.24a.183.183 0 01.104.308l-1.15 1.177a.184.184 0 00-.049.157l.27 1.654a.183.183 0 01-.269.189l-1.389-.768a.185.185 0 00-.176 0l-1.39.768a.183.183 0 01-.268-.19l.27-1.653a.183.183 0 00-.05-.157l-1.15-1.179a.182.182 0 01.103-.307l1.572-.24a.185.185 0 00.138-.103l.697-1.484a.183.183 0 01.331 0zM2.892 18.38l.697 1.484a.186.186 0 00.138.103l1.572.24a.183.183 0 01.103.308l-1.149 1.178a.186.186 0 00-.05.157l.27 1.653a.183.183 0 01-.268.19l-1.39-.768a.184.184 0 00-.176 0l-1.389.768a.183.183 0 01-.268-.19l.269-1.653a.186.186 0 00-.05-.157l-1.149-1.18a.183.183 0 01.103-.309l1.572-.24a.186.186 0 00.138-.103l.697-1.484a.182.182 0 01.33.003zm36.546 0l.697 1.484a.186.186 0 00.138.103l1.572.24a.183.183 0 01.103.309l-1.15 1.177a.186.186 0 00-.049.157l.27 1.653a.183.183 0 01-.268.19l-1.389-.768a.184.184 0 00-.177 0l-1.389.768a.183.183 0 01-.268-.19l.27-1.653a.186.186 0 00-.05-.157l-1.15-1.18a.183.183 0 01.103-.309l1.572-.24a.186.186 0 00.138-.103l.697-1.484a.182.182 0 01.33.003zM5.953 27.013l.697 1.484a.185.185 0 00.138.103l1.572.24a.183.183 0 01.103.308l-1.149 1.179a.18.18 0 00-.05.156l.27 1.653a.183.183 0 01-.269.19l-1.388-.768a.181.181 0 00-.177 0l-1.389.768a.183.183 0 01-.268-.192l.269-1.653a.181.181 0 00-.049-.157l-1.15-1.176a.183.183 0 01.103-.308l1.572-.24a.183.183 0 00.138-.103l.696-1.484a.184.184 0 01.331 0zM37.603 8.74l.696 1.484a.186.186 0 00.138.103l1.573.24a.183.183 0 01.103.309l-1.15 1.178a.184.184 0 00-.05.156l.27 1.653a.183.183 0 01-.268.19l-1.388-.768a.181.181 0 00-.177 0l-1.389.768a.183.183 0 01-.27-.192l.27-1.653a.182.182 0 00-.05-.156l-1.148-1.179a.183.183 0 01.102-.308l1.573-.24a.185.185 0 00.138-.103l.696-1.484a.183.183 0 01.33.002zm-25.66 24.584l.696 1.485a.185.185 0 00.138.103l1.572.24a.183.183 0 01.104.308l-1.15 1.177a.186.186 0 00-.05.157l.27 1.654a.183.183 0 01-.268.189l-1.388-.768a.185.185 0 00-.177 0l-1.39.77a.183.183 0 01-.269-.19l.27-1.652a.186.186 0 00-.05-.158l-1.149-1.18a.183.183 0 01.103-.308l1.573-.24a.186.186 0 00.138-.102l.696-1.485a.183.183 0 01.33 0zM30.215 1.675l.697 1.484a.185.185 0 00.138.104l1.572.24a.183.183 0 01.103.308l-1.149 1.177a.186.186 0 00-.05.157l.27 1.654a.183.183 0 01-.268.189l-1.391-.768a.185.185 0 00-.177 0l-1.388.77a.183.183 0 01-.268-.189l.27-1.653a.186.186 0 00-.05-.157l-1.149-1.18a.183.183 0 01.103-.309l1.572-.239a.186.186 0 00.139-.103l.696-1.485a.182.182 0 01.33 0z" fill="#C3C3C3"/><path d="M12.229 25.338H9.305a1.462 1.462 0 01-1.461-1.462v-5.848a1.46 1.46 0 011.461-1.461h2.924c.807 0 1.462.654 1.462 1.462a.731.731 0 01-1.462 0H9.305v5.847h2.924v-1.462h-.731a.731.731 0 010-1.462h1.462a.73.73 0 01.73.731v2.193c0 .807-.654 1.462-1.461 1.462zm5.116-.001h-2.192a.73.73 0 01-.731-.731v-7.31a.73.73 0 01.73-.73h2.193a2.924 2.924 0 012.924 2.923v2.924a2.924 2.924 0 01-2.924 2.924zm-1.461-1.462h1.461c.808 0 1.462-.655 1.462-1.462v-2.924c0-.807-.654-1.461-1.462-1.461h-1.461v5.847zm6.578 1.462a.73.73 0 01-.731-.731v-7.31a.731.731 0 011.462 0v7.31a.73.73 0 01-.731.73z" fill="#7C7C7C"/><path d="M25.385 22.413h-2.923a.73.73 0 01-.731-.73v-4.386a.73.73 0 01.73-.731h2.924c1.211 0 2.193.981 2.193 2.192v1.462a2.193 2.193 0 01-2.193 2.193zm-2.192-1.462h2.192a.73.73 0 00.731-.73v-1.462a.73.73 0 00-.73-.732h-2.193v2.924zm5.847 4.386a.73.73 0 01-.73-.731v-7.31a.73.73 0 111.461 0v7.31a.73.73 0 01-.731.73z" fill="#7C7C7C"/><path d="M31.964 22.413H29.04a.73.73 0 01-.73-.73v-4.386a.73.73 0 01.73-.731h2.924c1.21 0 2.192.981 2.192 2.192v1.462a2.193 2.193 0 01-2.192 2.193zm-2.193-1.462h2.193a.73.73 0 00.73-.73v-1.462a.731.731 0 00-.73-.732H29.77v2.924z" fill="#7C7C7C"/><path d="M33.425 25.337a.73.73 0 01-.73-.731v-1.462a.73.73 0 00-.732-.731h-2.192a.73.73 0 010-1.462h2.192c1.212 0 2.193.982 2.193 2.193v1.462a.73.73 0 01-.73.73z" fill="#7C7C7C"/></svg>