<svg xmlns="http://www.w3.org/2000/svg" width="60" height="60" viewBox="0 0 60 60">
    <g fill="none" fill-rule="nonzero">
        <rect width="60" height="60" fill="#E7F7FF" rx="6"/>
        <g stroke="#008FFF" stroke-linecap="round" stroke-width="1.5">
            <path d="M44.302 32.499c.866-.93 1.458-2.338 1.458-3.851 0-2.798-1.837-5.107-4.323-5.107h-5.89M31.156 25.243c.493 0 2.689-2.595 2.689-7.66 0-4.077-3.058-7.11-4.01-7.472-.952-.361-1.096.233-1.096.737v10.397c0 1.254.275 2.497.969 3.541M32.337 31.724c.128.89 1.69 3.755 5.58 6 3.532 2.039 7.454.839 8.244.196.79-.644.386-1.154-.05-1.406l-9.004-5.198a6.36 6.36 0 0 0-3.583-.84M26.559 30.07c-1.336-.128-4.018.187-7.19 2.018-3.53 2.038-4.452 6.037-4.29 7.042.163 1.005.806.911 1.242.658l9.005-5.198a6.368 6.368 0 0 0 2.519-2.683"/>
            <path d="M33.59 28.688a3.564 3.564 0 1 1-7.128 0 3.564 3.564 0 0 1 7.128 0zM29.59 34.605v15.32M33.845 49.924V38.86M21.961 39.955c1.124.698 2.35 1.23 3.646 1.571M18.453 41.32a18.488 18.488 0 0 0 8.386 4.163M26.27 12.059c-7.862 1.753-13.605 8.935-13.255 17.258.053 1.266.26 2.486.576 3.662M44.222 19.449a17.032 17.032 0 0 0-8.675-6.84M17.682 23.823a12.999 12.999 0 0 1 8.192-7.204"/>
        </g>
    </g>
</svg>
