<?xml version="1.0" encoding="UTF-8"?>
<svg width="455px" height="144px" viewBox="0 0 455 144" version="1.1" xmlns="http://www.w3.org/2000/svg" xmlns:xlink="http://www.w3.org/1999/xlink">
    <!-- Generator: Sketch 48.2 (47327) - http://www.bohemiancoding.com/sketch -->
    <title>ISBC</title>
    <desc>Created with Sketch.</desc>
    <defs>
        <polygon id="path-1" points="0.1228 0.602 22.6298 0.602 22.6298 27.7556 0.1228 27.7556"></polygon>
    </defs>
    <g id="Symbols" stroke="none" stroke-width="1" fill="none" fill-rule="evenodd">
        <g id="ISBC">
            <rect id="Rectangle" fill="#222222" x="177" y="12" width="3" height="120"></rect>
            <g id="IS-BL-blueblack">
                <path d="M71.3558396,143.997401 C32.1405706,143.667418 -0.510882647,111.054165 0.0060551029,71.0115089 C0.500492842,32.694098 31.9324455,-0.14120564 72.3317776,0.000456687191 C112.696797,0.141556862 144.354875,33.4799866 143.996562,72.0413715 C144.383562,110.696636 112.048234,144.340314 71.3558396,143.997401 Z" id="Fill-10" fill="#1676F3"></path>
                <path d="M47.5439427,94.7936956 C44.9479643,94.7936956 42.3519859,94.8021429 39.7560075,94.7886272 C38.9951947,94.7841219 38.2945053,94.9389893 37.7123769,95.4373807 C36.6593761,96.3395537 36.0991617,97.5114774 36.0064482,98.8850104 C35.9435154,99.8192831 36.3402168,100.306975 37.2415046,100.567152 C37.7781192,100.722019 38.329905,100.683162 38.8766338,100.683162 C50.3208529,100.685414 61.7656339,100.684851 73.2098529,100.684288 C73.5385645,100.684288 73.8678379,100.681472 74.1965495,100.673025 C75.5923093,100.638109 76.6284531,99.9690821 77.3819611,98.828695 C77.7471961,98.2756776 77.9826323,97.6624027 78.1523261,97.0175913 C81.0191403,86.1047903 83.8921355,75.1936789 86.7634449,64.2825674 C87.8451026,60.1732316 88.9228269,56.0627696 90.0050465,51.9534338 C90.5658228,49.8224585 91.9441637,48.2512585 94.6648839,48.3543157 C97.7322965,48.4708886 100.807014,48.3790945 103.87836,48.3807839 C104.507688,48.3813471 105.118473,48.3453052 105.642726,47.9246291 C106.701346,47.0765189 107.271674,45.9609106 107.424511,44.6318668 C107.511044,43.8778034 107.164913,43.4576904 106.39511,43.3608279 C105.925924,43.3016967 105.446623,43.3146493 104.971817,43.3146493 C96.4888116,43.3118335 88.0063679,43.3123967 79.5233623,43.3129598 C78.7923303,43.3129598 78.0607364,43.3230966 77.3297044,43.3191545 C76.3497506,43.3146493 75.5709571,43.7325096 74.9169054,44.4358892 C74.3033105,45.096469 73.9369516,45.8955847 73.6812871,46.7403159 C73.2351384,48.2124008 72.8210181,49.6946225 72.4091453,51.1768442 C70.3121342,58.7298676 68.2128755,66.2823277 66.1271023,73.83873 C64.6751525,79.1002791 63.2642214,84.3730913 61.7971003,89.6301352 C60.8851364,92.8969924 58.3706335,94.7768009 55.0026044,94.7903166 C52.5167584,94.7998902 50.0303506,94.7920061 47.5439427,94.7936956" id="Fill-11" fill="#FFFFFF"></path>
                <path d="M59.8011283,42.7540276 L59.8011283,42.7591063 C57.8715546,42.7591063 55.9419809,42.7523347 54.0124072,42.7619278 C52.6754723,42.7681351 51.7078873,43.3510572 51.2338882,44.6545906 C51.0212322,45.2403342 50.7845124,45.8198705 50.6132683,46.4180287 C49.9551539,48.7096517 49.3155069,51.0063535 48.6753003,53.3030552 C45.6415941,64.1861486 42.6118052,75.0709348 39.5741816,85.9528995 C39.393424,86.6007162 39.3408196,87.2536115 39.3956625,87.9149713 C39.4605785,88.7027343 39.8058648,89.1282167 40.552959,89.3251574 C40.8652276,89.4075453 41.2004407,89.4272958 41.5255805,89.4278601 C45.2028511,89.4346317 48.8801217,89.4205242 52.5573922,89.4374532 C53.8624287,89.4436605 54.7695746,88.8325234 55.4086619,87.7389096 C55.8188642,87.0374845 56.0790881,86.2728577 56.2967807,85.4941235 C56.8508056,83.5162513 57.3947574,81.5355577 57.9471035,79.556557 C60.6696603,69.8054498 63.398373,60.0554712 66.1114164,50.3015426 C66.5731038,48.6413714 67.1405596,47.0077224 67.4315626,45.3029715 C67.726483,43.576213 67.0734051,42.7692637 65.3715972,42.7568491 C63.5147742,42.7433059 61.6579513,42.7540276 59.8011283,42.7540276" id="Fill-12" fill="#FFFFFF"></path>
            </g>
            <g id="Page-1" transform="translate(215.000000, 34.000000)">
                <path d="M5.4448,16.2826 L5.4448,23.4166 L10.1098,23.4166 C11.3918,23.4166 12.3938,23.1106 13.1148,22.5006 C13.8348,21.8876 14.1938,21.0446 14.1938,19.9676 C14.1938,17.5476 12.9418,16.3196 10.4368,16.2826 L5.4448,16.2826 Z M5.4448,12.4346 L9.4748,12.4346 C12.2218,12.3866 13.5948,11.2916 13.5948,9.1496 C13.5948,7.9516 13.2468,7.0896 12.5508,6.5636 C11.8558,6.0366 10.7568,5.7736 9.2578,5.7736 L5.4448,5.7736 L5.4448,12.4346 Z M0.0008,27.7906 L0.0008,1.3626 L9.2578,1.3626 C12.4638,1.3626 14.8958,1.9766 16.5528,3.2046 C18.2118,4.4336 19.0408,6.2336 19.0408,8.6046 C19.0408,9.8996 18.7078,11.0406 18.0418,12.0256 C17.3768,13.0126 16.4508,13.7356 15.2648,14.1956 C16.6198,14.5346 17.6878,15.2186 18.4678,16.2466 C19.2498,17.2746 19.6388,18.5336 19.6388,20.0216 C19.6388,22.5626 18.8288,24.4866 17.2068,25.7946 C15.5858,27.1006 13.2748,27.7656 10.2728,27.7906 L0.0008,27.7906 Z" id="Fill-1" fill="#231F20"></path>
                <polygon id="Fill-3" fill="#231F20" points="30.2837 23.4164 41.8457 23.4164 41.8457 27.7904 24.8387 27.7904 24.8387 1.3624 30.2837 1.3624"></polygon>
                <g id="Group-7" transform="translate(44.000000, 0.398300)">
                    <mask id="mask-2" fill="white">
                        <use xlink:href="#path-1"></use>
                    </mask>
                    <g id="Clip-6"></g>
                    <path d="M17.1118,13.5796 C17.1118,10.8086 16.6148,8.7036 15.6238,7.2636 C14.6318,5.8226 13.2158,5.1026 11.3758,5.1026 C9.5498,5.1026 8.1388,5.8136 7.1468,7.2346 C6.1548,8.6576 5.6518,10.7416 5.6398,13.4886 L5.6398,14.7776 C5.6398,17.4756 6.1358,19.5686 7.1288,21.0576 C8.1208,22.5466 9.5498,23.2906 11.4128,23.2906 C13.2388,23.2906 14.6428,22.5736 15.6238,21.1396 C16.6028,19.7056 17.0998,17.6156 17.1118,14.8686 L17.1118,13.5796 Z M22.6298,14.7776 C22.6298,17.3796 22.1698,19.6596 21.2498,21.6206 C20.3308,23.5806 19.0138,25.0936 17.3018,26.1576 C15.5908,27.2226 13.6268,27.7556 11.4128,27.7556 C9.2218,27.7556 7.2668,27.2286 5.5488,26.1766 C3.8318,25.1236 2.5008,23.6196 1.5558,21.6666 C0.6128,19.7116 0.1338,17.4636 0.1228,14.9226 L0.1228,13.6156 C0.1228,11.0146 0.5908,8.7246 1.5288,6.7456 C2.4668,4.7666 3.7918,3.2486 5.5048,2.1886 C7.2158,1.1316 9.1738,0.6016 11.3758,0.6016 C13.5788,0.6016 15.5358,1.1316 17.2478,2.1886 C18.9598,3.2486 20.2848,4.7666 21.2228,6.7456 C22.1608,8.7246 22.6298,11.0086 22.6298,13.5976 L22.6298,14.7776 Z" id="Fill-5" fill="#231F20" mask="url(#mask-2)"></path>
                </g>
                <path d="M92.4478,18.9877 C92.2418,21.8307 91.1918,24.0697 89.2988,25.7037 C87.4048,27.3377 84.9088,28.1537 81.8108,28.1537 C78.4238,28.1537 75.7578,27.0127 73.8158,24.7317 C71.8738,22.4517 70.9028,19.3207 70.9028,15.3397 L70.9028,13.7237 C70.9028,11.1827 71.3498,8.9437 72.2458,7.0087 C73.1418,5.0717 74.4208,3.5877 76.0848,2.5507 C77.7488,1.5177 79.6808,1.0007 81.8848,1.0007 C84.9328,1.0007 87.3898,1.8167 89.2538,3.4507 C91.1168,5.0847 92.1938,7.3777 92.4838,10.3297 L87.0388,10.3297 C86.9058,8.6237 86.4298,7.3857 85.6148,6.6177 C84.7968,5.8487 83.5538,5.4657 81.8848,5.4657 C80.0688,5.4657 78.7108,6.1157 77.8088,7.4157 C76.9078,8.7167 76.4448,10.7347 76.4208,13.4687 L76.4208,15.4667 C76.4208,18.3227 76.8528,20.4097 77.7188,21.7277 C78.5838,23.0477 79.9478,23.7067 81.8108,23.7067 C83.4928,23.7067 84.7488,23.3227 85.5778,22.5537 C86.4068,21.7857 86.8818,20.5957 87.0028,18.9877 L92.4478,18.9877 Z" id="Fill-8" fill="#231F20"></path>
                <polygon id="Fill-10" fill="#231F20" points="105.4155 17.1908 102.5835 20.2398 102.5835 27.7908 97.1385 27.7908 97.1385 1.3628 102.5835 1.3628 102.5835 13.3418 104.9795 10.0568 111.7135 1.3628 118.4115 1.3628 109.0275 13.1068 118.6845 27.7908 112.2035 27.7908"></polygon>
                <path d="M142.0347,18.9877 C141.8287,21.8307 140.7787,24.0697 138.8857,25.7037 C136.9917,27.3377 134.4957,28.1537 131.3977,28.1537 C128.0107,28.1537 125.3447,27.0127 123.4027,24.7317 C121.4607,22.4517 120.4897,19.3207 120.4897,15.3397 L120.4897,13.7237 C120.4897,11.1827 120.9367,8.9437 121.8327,7.0087 C122.7277,5.0717 124.0077,3.5877 125.6717,2.5507 C127.3357,1.5177 129.2677,1.0007 131.4707,1.0007 C134.5197,1.0007 136.9767,1.8167 138.8397,3.4507 C140.7027,5.0847 141.7797,7.3777 142.0707,10.3297 L136.6257,10.3297 C136.4917,8.6237 136.0167,7.3857 135.2007,6.6177 C134.3837,5.8487 133.1397,5.4657 131.4707,5.4657 C129.6557,5.4657 128.2977,6.1157 127.3957,7.4157 C126.4937,8.7167 126.0317,10.7347 126.0077,13.4687 L126.0077,15.4667 C126.0077,18.3227 126.4397,20.4097 127.3047,21.7277 C128.1707,23.0477 129.5347,23.7067 131.3977,23.7067 C133.0797,23.7067 134.3357,23.3227 135.1647,22.5537 C135.9937,21.7857 136.4687,20.5957 136.5897,18.9877 L142.0347,18.9877 Z" id="Fill-12" fill="#231F20"></path>
                <polygon id="Fill-14" fill="#231F20" points="168.2339 27.7904 162.7889 27.7904 162.7889 16.4644 152.1709 16.4644 152.1709 27.7904 146.7249 27.7904 146.7249 1.3624 152.1709 1.3624 152.1709 12.0714 162.7889 12.0714 162.7889 1.3624 168.2339 1.3624"></polygon>
                <path d="M181.2739,17.935 L187.8809,17.935 L184.5589,8.042 L181.2739,17.935 Z M189.3509,22.345 L179.8039,22.345 L177.9889,27.79 L172.1989,27.79 L182.0369,1.363 L187.0829,1.363 L196.9749,27.79 L191.1839,27.79 L189.3509,22.345 Z" id="Fill-16" fill="#231F20"></path>
                <polygon id="Fill-18" fill="#231F20" points="200.903 27.7903 206.348 27.7903 206.348 1.3623 200.903 1.3623"></polygon>
                <polygon id="Fill-20" fill="#231F20" points="234.0005 27.7904 228.5555 27.7904 217.9545 10.4014 217.9545 27.7904 212.5095 27.7904 212.5095 1.3624 217.9545 1.3624 228.5725 18.7874 228.5725 1.3624 234.0005 1.3624"></polygon>
                <polygon id="Fill-21" fill="#231F20" points="5.4448 68.0238 17.0078 68.0238 17.0078 72.3978 0.0008 72.3978 0.0008 45.9708 5.4448 45.9708"></polygon>
                <path d="M28.4321,62.5424 L35.0381,62.5424 L31.7171,52.6494 L28.4321,62.5424 Z M36.5091,66.9534 L26.9611,66.9534 L25.1471,72.3974 L19.3571,72.3974 L29.1951,45.9714 L34.2411,45.9714 L44.1321,72.3974 L38.3421,72.3974 L36.5091,66.9534 Z" id="Fill-22" fill="#231F20"></path>
                <path d="M53.1616,60.891 L53.1616,68.024 L57.8266,68.024 C59.1086,68.024 60.1096,67.718 60.8306,67.108 C61.5506,66.496 61.9106,65.653 61.9106,64.576 C61.9106,62.155 60.6576,60.927 58.1526,60.891 L53.1616,60.891 Z M53.1616,57.042 L57.1906,57.042 C59.9376,56.995 61.3106,55.899 61.3106,53.757 C61.3106,52.559 60.9636,51.697 60.2666,51.171 C59.5716,50.644 58.4736,50.381 56.9736,50.381 L53.1616,50.381 L53.1616,57.042 Z M47.7166,72.398 L47.7166,45.971 L56.9736,45.971 C60.1796,45.971 62.6116,46.584 64.2696,47.813 C65.9286,49.041 66.7566,50.841 66.7566,53.213 C66.7566,54.508 66.4236,55.648 65.7586,56.634 C65.0936,57.62 64.1676,58.343 62.9806,58.803 C64.3366,59.142 65.4046,59.826 66.1836,60.854 C66.9656,61.882 67.3546,63.141 67.3546,64.629 C67.3546,67.171 66.5456,69.095 64.9236,70.402 C63.3016,71.708 60.9906,72.373 57.9896,72.398 L47.7166,72.398 Z" id="Fill-23" fill="#231F20"></path>
            </g>
        </g>
    </g>
</svg>