<svg xmlns="http://www.w3.org/2000/svg" width="85" height="42" viewBox="0 0 85 42">
    <g fill="#363537" fill-rule="evenodd">
        <path d="M52.127 3.5h1v35h-1zM21.302 0C33.19.041 42.513 9.765 42.408 21.012 42.522 32.287 32.998 42.1 21.015 42 9.465 41.903-.15 32.391.002 20.712.147 9.536 9.404-.041 21.302 0zm2.118 12.633c-.215 0-.43.003-.646.002-.289-.002-.518.12-.71.325-.181.193-.29.426-.364.673-.132.429-.254.861-.375 1.294-.618 2.203-1.236 4.405-1.85 6.61-.428 1.534-.843 3.072-1.275 4.605-.269.953-1.01 1.501-2.001 1.505-.733.003-1.465 0-2.197.001-.765 0-1.53.003-2.294-.001-.224-.002-.43.044-.601.189-.31.263-.476.605-.503 1.005-.018.273.098.415.364.491.158.045.32.034.481.034h10.112c.097 0 .193 0 .29-.003.411-.01.717-.205.938-.538.108-.161.177-.34.227-.528l2.536-9.548.955-3.596c.165-.621.571-1.08 1.372-1.05.904.034 1.81.008 2.714.008.185 0 .365-.01.52-.133.311-.247.48-.573.524-.96.026-.22-.076-.343-.303-.371-.138-.017-.28-.014-.42-.014H23.42zm-5.808-.163v.001c-.569 0-1.137-.002-1.705.001-.394.002-.679.172-.818.552-.063.171-.133.34-.183.515-.194.668-.382 1.338-.57 2.008l-2.681 9.523c-.053.189-.069.379-.053.572.02.23.121.354.341.411.092.024.19.03.287.03 1.082.002 2.165-.002 3.248.003.385.002.652-.177.84-.495.121-.205.198-.428.262-.655.163-.577.323-1.155.486-1.732.802-2.844 1.605-5.688 2.404-8.533.136-.484.303-.96.389-1.458.087-.503-.106-.739-.607-.742-.547-.004-1.093-.001-1.64-.001z"/>
        <path fill-rule="nonzero" d="M68.18 18.12a4.02 4.02 0 0 1-1.935-.465 3.47 3.47 0 0 1-1.36-1.29c-.33-.55-.495-1.172-.495-1.865 0-.693.165-1.315.495-1.865.33-.55.783-.98 1.36-1.29.577-.31 1.225-.465 1.945-.465a4.08 4.08 0 0 1 1.645.32c.49.213.902.52 1.235.92l-1.04.96c-.473-.547-1.06-.82-1.76-.82-.433 0-.82.095-1.16.285-.34.19-.605.455-.795.795-.19.34-.285.727-.285 1.16 0 .433.095.82.285 1.16.19.34.455.605.795.795.34.19.727.285 1.16.285.7 0 1.287-.277 1.76-.83l1.04.96a3.242 3.242 0 0 1-1.24.93 4.116 4.116 0 0 1-1.65.32zm8.39-.12l-1.69-2.43L73.22 18h-1.86l2.59-3.56L71.49 11h1.84l1.61 2.27L76.52 11h1.75l-2.44 3.38L78.44 18h-1.87zm-11.74 5h1.62v5.68h3.51V30h-5.13v-7zm10.65 5.5h-3.25l-.62 1.5h-1.66l3.12-7h1.6l3.13 7h-1.7l-.62-1.5zm-.51-1.23l-1.11-2.68-1.11 2.68h2.22zM81.95 23c.853 0 1.508.163 1.965.49.457.327.685.77.685 1.33 0 .34-.082.643-.245.91a1.716 1.716 0 0 1-.685.63c.4.127.713.338.94.635.227.297.34.662.34 1.095 0 .613-.238 1.085-.715 1.415-.477.33-1.172.495-2.085.495h-3.62v-7h3.42zm.08 4.05h-1.89v1.73h1.89c.427 0 .748-.07.965-.21.217-.14.325-.357.325-.65 0-.58-.43-.87-1.29-.87zm-1.89-2.83v1.65h1.61c.4 0 .703-.07.91-.21.207-.14.31-.347.31-.62s-.103-.478-.31-.615c-.207-.137-.51-.205-.91-.205h-1.61z"/>
    </g>
</svg>
