<svg xmlns="http://www.w3.org/2000/svg" width="335" height="335" viewBox="0 0 335 335">
    <g fill="#E5E5E5" fill-rule="evenodd">
        <circle cx="332.5" cy="332.5" r="2.5"/>
        <circle cx="302.5" cy="332.5" r="2.5"/>
        <circle cx="272.5" cy="332.5" r="2.5"/>
        <circle cx="242.5" cy="332.5" r="2.5"/>
        <circle cx="212.5" cy="332.5" r="2.5"/>
        <circle cx="182.5" cy="332.5" r="2.5"/>
        <circle cx="152.5" cy="332.5" r="2.5"/>
        <circle cx="122.5" cy="332.5" r="2.5"/>
        <circle cx="92.5" cy="332.5" r="2.5"/>
        <circle cx="62.5" cy="332.5" r="2.5"/>
        <circle cx="32.5" cy="332.5" r="2.5"/>
        <circle cx="2.5" cy="332.5" r="2.5"/>
        <circle cx="332.5" cy="302.5" r="2.5"/>
        <circle cx="302.5" cy="302.5" r="2.5"/>
        <circle cx="272.5" cy="302.5" r="2.5"/>
        <circle cx="242.5" cy="302.5" r="2.5"/>
        <circle cx="212.5" cy="302.5" r="2.5"/>
        <circle cx="182.5" cy="302.5" r="2.5"/>
        <circle cx="152.5" cy="302.5" r="2.5"/>
        <circle cx="122.5" cy="302.5" r="2.5"/>
        <circle cx="92.5" cy="302.5" r="2.5"/>
        <circle cx="62.5" cy="302.5" r="2.5"/>
        <circle cx="32.5" cy="302.5" r="2.5"/>
        <circle cx="2.5" cy="302.5" r="2.5"/>
        <circle cx="332.5" cy="272.5" r="2.5"/>
        <circle cx="302.5" cy="272.5" r="2.5"/>
        <circle cx="272.5" cy="272.5" r="2.5"/>
        <circle cx="242.5" cy="272.5" r="2.5"/>
        <circle cx="212.5" cy="272.5" r="2.5"/>
        <circle cx="182.5" cy="272.5" r="2.5"/>
        <circle cx="152.5" cy="272.5" r="2.5"/>
        <circle cx="122.5" cy="272.5" r="2.5"/>
        <circle cx="92.5" cy="272.5" r="2.5"/>
        <circle cx="62.5" cy="272.5" r="2.5"/>
        <circle cx="32.5" cy="272.5" r="2.5"/>
        <circle cx="2.5" cy="272.5" r="2.5"/>
        <circle cx="332.5" cy="242.5" r="2.5"/>
        <circle cx="302.5" cy="242.5" r="2.5"/>
        <circle cx="272.5" cy="242.5" r="2.5"/>
        <circle cx="242.5" cy="242.5" r="2.5"/>
        <circle cx="212.5" cy="242.5" r="2.5"/>
        <circle cx="182.5" cy="242.5" r="2.5"/>
        <circle cx="152.5" cy="242.5" r="2.5"/>
        <circle cx="122.5" cy="242.5" r="2.5"/>
        <circle cx="92.5" cy="242.5" r="2.5"/>
        <circle cx="62.5" cy="242.5" r="2.5"/>
        <circle cx="32.5" cy="242.5" r="2.5"/>
        <circle cx="2.5" cy="242.5" r="2.5"/>
        <circle cx="332.5" cy="212.5" r="2.5"/>
        <circle cx="302.5" cy="212.5" r="2.5"/>
        <circle cx="272.5" cy="212.5" r="2.5"/>
        <circle cx="242.5" cy="212.5" r="2.5"/>
        <circle cx="212.5" cy="212.5" r="2.5"/>
        <circle cx="182.5" cy="212.5" r="2.5"/>
        <circle cx="152.5" cy="212.5" r="2.5"/>
        <circle cx="122.5" cy="212.5" r="2.5"/>
        <circle cx="92.5" cy="212.5" r="2.5"/>
        <circle cx="62.5" cy="212.5" r="2.5"/>
        <circle cx="32.5" cy="212.5" r="2.5"/>
        <circle cx="2.5" cy="212.5" r="2.5"/>
        <circle cx="332.5" cy="182.5" r="2.5"/>
        <circle cx="302.5" cy="182.5" r="2.5"/>
        <circle cx="272.5" cy="182.5" r="2.5"/>
        <circle cx="242.5" cy="182.5" r="2.5"/>
        <circle cx="212.5" cy="182.5" r="2.5"/>
        <circle cx="182.5" cy="182.5" r="2.5"/>
        <circle cx="152.5" cy="182.5" r="2.5"/>
        <circle cx="122.5" cy="182.5" r="2.5"/>
        <circle cx="92.5" cy="182.5" r="2.5"/>
        <circle cx="62.5" cy="182.5" r="2.5"/>
        <circle cx="32.5" cy="182.5" r="2.5"/>
        <circle cx="2.5" cy="182.5" r="2.5"/>
        <circle cx="332.5" cy="152.5" r="2.5"/>
        <circle cx="302.5" cy="152.5" r="2.5"/>
        <circle cx="272.5" cy="152.5" r="2.5"/>
        <circle cx="242.5" cy="152.5" r="2.5"/>
        <circle cx="212.5" cy="152.5" r="2.5"/>
        <circle cx="182.5" cy="152.5" r="2.5"/>
        <circle cx="152.5" cy="152.5" r="2.5"/>
        <circle cx="122.5" cy="152.5" r="2.5"/>
        <circle cx="92.5" cy="152.5" r="2.5"/>
        <circle cx="62.5" cy="152.5" r="2.5"/>
        <circle cx="32.5" cy="152.5" r="2.5"/>
        <circle cx="2.5" cy="152.5" r="2.5"/>
        <circle cx="332.5" cy="122.5" r="2.5"/>
        <circle cx="302.5" cy="122.5" r="2.5"/>
        <circle cx="272.5" cy="122.5" r="2.5"/>
        <circle cx="242.5" cy="122.5" r="2.5"/>
        <circle cx="212.5" cy="122.5" r="2.5"/>
        <circle cx="182.5" cy="122.5" r="2.5"/>
        <circle cx="152.5" cy="122.5" r="2.5"/>
        <circle cx="122.5" cy="122.5" r="2.5"/>
        <circle cx="92.5" cy="122.5" r="2.5"/>
        <circle cx="62.5" cy="122.5" r="2.5"/>
        <circle cx="32.5" cy="122.5" r="2.5"/>
        <circle cx="2.5" cy="122.5" r="2.5"/>
        <circle cx="332.5" cy="92.5" r="2.5"/>
        <circle cx="302.5" cy="92.5" r="2.5"/>
        <circle cx="272.5" cy="92.5" r="2.5"/>
        <circle cx="242.5" cy="92.5" r="2.5"/>
        <circle cx="212.5" cy="92.5" r="2.5"/>
        <circle cx="182.5" cy="92.5" r="2.5"/>
        <circle cx="152.5" cy="92.5" r="2.5"/>
        <circle cx="122.5" cy="92.5" r="2.5"/>
        <circle cx="92.5" cy="92.5" r="2.5"/>
        <circle cx="62.5" cy="92.5" r="2.5"/>
        <circle cx="32.5" cy="92.5" r="2.5"/>
        <circle cx="2.5" cy="92.5" r="2.5"/>
        <circle cx="332.5" cy="62.5" r="2.5"/>
        <circle cx="302.5" cy="62.5" r="2.5"/>
        <circle cx="272.5" cy="62.5" r="2.5"/>
        <circle cx="242.5" cy="62.5" r="2.5"/>
        <circle cx="212.5" cy="62.5" r="2.5"/>
        <circle cx="182.5" cy="62.5" r="2.5"/>
        <circle cx="152.5" cy="62.5" r="2.5"/>
        <circle cx="122.5" cy="62.5" r="2.5"/>
        <circle cx="92.5" cy="62.5" r="2.5"/>
        <circle cx="62.5" cy="62.5" r="2.5"/>
        <circle cx="32.5" cy="62.5" r="2.5"/>
        <circle cx="2.5" cy="62.5" r="2.5"/>
        <circle cx="332.5" cy="32.5" r="2.5"/>
        <circle cx="302.5" cy="32.5" r="2.5"/>
        <circle cx="272.5" cy="32.5" r="2.5"/>
        <circle cx="242.5" cy="32.5" r="2.5"/>
        <circle cx="212.5" cy="32.5" r="2.5"/>
        <circle cx="182.5" cy="32.5" r="2.5"/>
        <circle cx="152.5" cy="32.5" r="2.5"/>
        <circle cx="122.5" cy="32.5" r="2.5"/>
        <circle cx="92.5" cy="32.5" r="2.5"/>
        <circle cx="62.5" cy="32.5" r="2.5"/>
        <circle cx="32.5" cy="32.5" r="2.5"/>
        <circle cx="2.5" cy="32.5" r="2.5"/>
        <circle cx="332.5" cy="2.5" r="2.5"/>
        <circle cx="302.5" cy="2.5" r="2.5"/>
        <circle cx="272.5" cy="2.5" r="2.5"/>
        <circle cx="242.5" cy="2.5" r="2.5"/>
        <circle cx="212.5" cy="2.5" r="2.5"/>
        <circle cx="182.5" cy="2.5" r="2.5"/>
        <circle cx="152.5" cy="2.5" r="2.5"/>
        <circle cx="122.5" cy="2.5" r="2.5"/>
        <circle cx="92.5" cy="2.5" r="2.5"/>
        <circle cx="62.5" cy="2.5" r="2.5"/>
        <circle cx="32.5" cy="2.5" r="2.5"/>
        <circle cx="2.5" cy="2.5" r="2.5"/>
    </g>
</svg>
