<svg xmlns="http://www.w3.org/2000/svg" width="60" height="60" viewBox="0 0 60 60">
    <g fill="none" fill-rule="nonzero">
        <rect width="60" height="60" fill="#E7F7FF" rx="6"/>
        <g stroke="#008FFF" stroke-linecap="round" stroke-width="1.5">
            <path d="M19.517 24.402a2.613 2.613 0 0 1-3.07 3.072 2.612 2.612 0 0 1 1.02-5.121 2.614 2.614 0 0 1 2.05 2.05zM28.26 24.913a2.609 2.609 0 1 1-5.216 0 2.609 2.609 0 0 1 5.217 0z"/>
            <path d="M31.74 28.393v4.346H10.87v-4.346L10 28.39v-6.087l.87.002v-1.74a3.48 3.48 0 0 1 3.478-3.48H28.26a3.48 3.48 0 0 1 3.478 3.48v1.738h.87v6.087l-.87.002zM21.304 17.087V11"/>
            <path d="M25.652 15.348V11.87H50v37.39H27.391M47.391 14.478h-1.739M43.913 14.478h-1.74M50 17.087H33.478"/>
            <path d="M23.043 32.74v3.477h17.392M37.19 34.149a3.102 3.102 0 1 1 .247 4.383M35.217 31.957a6.087 6.087 0 1 1 .087 8.607M16.957 38.826v10.435h8.695V38.826"/>
            <path d="M13.478 48.391V37.957c0-.961.779-1.74 1.74-1.74h4.347V32.74"/>
        </g>
    </g>
</svg>
