<svg xmlns="http://www.w3.org/2000/svg" width="60" height="60" viewBox="0 0 60 60">
    <g fill="none" fill-rule="nonzero">
        <rect width="60" height="60" fill="#E7F7FF" rx="6"/>
        <g stroke="#008FFF" stroke-linecap="round" stroke-width="1.5">
            <path d="M39.73 19.74a13.824 13.824 0 0 1 4.19 9.932M18.831 21.53a13.846 13.846 0 0 1 11.224-5.723c2.214 0 4.307.519 6.164 1.442M16.724 35.764a13.833 13.833 0 0 1-.852-4.797c0-2.253.537-4.38 1.49-6.261M22.656 23.85l.072-.089c1.71-2.085 4.356-3.423 7.327-3.423 3.866 0 6.702 2.058 8.398 5.347.888 1.723 1.335 3.638 1.405 5.575.095 2.606.014 6.122-.601 9.62M20.076 39.434c1.474-3.01 1.156-6.94.865-8.892a9.184 9.184 0 0 1-.037-2.44M35.104 35.908c-.13 2.222-.498 4.785-1.334 7.354"/>
            <path d="M23.776 42.284s3.02-3.956 1.786-9.484c0 0-1.243-5.797 2.696-7.377a4.65 4.65 0 0 1 2.072-.307c1.326.097 3.514.7 4.358 3.501.106.351.172.711.22 1.075.063.472.15 1.253.204 2.26M30.238 37.954c-.296 1.989-.89 4.088-1.982 6.031M29.985 29.227s.394 1.69.488 4.142"/>
            <path d="M49.503 29.897c0 10.829-8.777 19.606-19.606 19.606-10.828 0-19.611-8.777-19.611-19.606 0-10.828 8.783-19.611 19.61-19.611 10.83 0 19.607 8.783 19.607 19.611z"/>
        </g>
    </g>
</svg>
