<svg xmlns="http://www.w3.org/2000/svg" width="60" height="60" viewBox="0 0 60 60">
    <g fill="none" fill-rule="nonzero">
        <rect width="60" height="60" fill="#E7F7FF" rx="6"/>
        <g stroke="#008FFF" stroke-linecap="round" stroke-width="1.5">
            <path d="M39.394 30c0 5.563-4.53 10.073-10.118 10.073-5.587 0-10.117-4.51-10.117-10.073 0-5.563 4.53-10.073 10.117-10.073 5.588 0 10.118 4.51 10.118 10.073z"/>
            <path d="M34.78 21.444s-1.45-3.944-1.45-11.285h-8.106c0 7.341-1.45 11.285-1.45 11.285M34.78 38.556s-1.45 3.944-1.45 11.285h-8.106c0-7.341-1.45-11.285-1.45-11.285M39.315 31.26h.915a.733.733 0 0 0 .735-.732v-1.056a.733.733 0 0 0-.735-.731h-.915M32.725 28.599c0-1.063-.794-1.765-1.772-1.765-.779 0-1.438.5-1.677 1.195a1.771 1.771 0 0 0-1.676-1.195c-.979 0-1.773.702-1.772 1.765 0 0-.124 3.089 3.448 4.567 3.573-1.478 3.449-4.567 3.449-4.567z"/>
            <path d="M26.085 30H23.71l-1.22-2.62L21.207 30h-2.048"/>
            <path d="M19.16 30c0 5.563 4.529 10.073 10.117 10.073 5.587 0 10.117-4.51 10.117-10.073 0-5.563-4.53-10.073-10.117-10.073-5.588 0-10.118 4.51-10.118 10.073z"/>
            <path d="M32.468 30h2.375l1.22-2.62L37.346 30h2.048M24.705 42.643h9.143M34.78 38.556s-1.45 3.944-1.45 11.285h-8.106c0-7.341-1.45-11.285-1.45-11.285M24.705 17.357h9.143"/>
        </g>
    </g>
</svg>
