<svg xmlns="http://www.w3.org/2000/svg" width="60" height="60" viewBox="0 0 60 60">
    <g fill="none" fill-rule="nonzero">
        <rect width="60" height="60" fill="#E7F7FF" rx="6"/>
        <g stroke="#008FFF" stroke-linecap="round" stroke-width="1.5">
            <path d="M35.276 34.132c-.099-.478-.408-.839-.791-.924l-1.793-.396s-.984.66-2.133.817c-1.148-.157-2.132-.817-2.132-.817l-1.793.396c-.383.085-.692.446-.791.924l-.39 1.89H35.666l-.391-1.89zM32.823 29.06c0 1.375-1.013 2.489-2.264 2.489-1.25 0-2.264-1.114-2.264-2.488 0-1.375 1.014-2.489 2.264-2.489 1.25 0 2.264 1.114 2.264 2.489z"/>
            <path d="M36.655 39.297h-12.19c-1.275 0-2.309-1.048-2.309-2.341V23.048c0-1.293 1.034-2.342 2.308-2.342h12.19c1.275 0 2.308 1.049 2.308 2.342v13.908c0 1.293-1.033 2.341-2.307 2.341zM22.156 23.981h16.806M38.962 36.022H22.156"/>
            <path d="M34.959 10.159H26.16c0 4.874-1.06 10.547-1.06 10.547h10.919s-1.06-5.673-1.06-10.547zM34.959 49.845H26.16c0-4.874-1.06-10.548-1.06-10.548h10.919s-1.06 5.674-1.06 10.548z"/>
        </g>
    </g>
</svg>
