<svg xmlns="http://www.w3.org/2000/svg" width="60" height="60" viewBox="0 0 60 60">
    <g fill="none" fill-rule="evenodd">
        <rect width="60" height="60" fill="#E7F7FF" fill-rule="nonzero" rx="6"/>
        <path fill="#E7F7FF" d="M23.797 45.784l14.393-.087c-1.014-.653-1.702-1.583-1.917-2.615-.198-.945-.213-1.89-.2-2.446l-10.222.061c.021.555.017 1.5-.169 2.448-.203 1.036-.879 1.974-1.885 2.64"/>
        <path fill-rule="nonzero" stroke="#008FFF" stroke-linecap="round" stroke-width="1.5" d="M47.975 39.428l-35.897.219a1.793 1.793 0 0 1-1.796-1.789l-.13-21.676a1.792 1.792 0 0 1 1.775-1.81l35.897-.219a1.793 1.793 0 0 1 1.796 1.789l.13 21.676a1.793 1.793 0 0 1-1.775 1.81z"/>
        <path fill-rule="nonzero" stroke="#008FFF" stroke-linecap="round" stroke-width="1.5" d="M31.738 18.602l-3.518.021.021 3.545 3.518-.021zM38.587 18.56l-3.518.022.021 3.544 3.518-.02zM31.775 24.824l-3.517.021.02 3.546 3.519-.022zM38.624 24.782l-3.518.022.022 3.545 3.517-.022zM30.712 39.533l5.577-.034s-.124 1.436.166 2.845c.222 1.079 1.016 2.034 2.187 2.63.327.166.177.564-.214.566l-7.68.047-7.68.047c-.39.003-.545-.394-.22-.565 1.163-.61 1.946-1.573 2.155-2.656.272-1.411.132-2.846.132-2.846l5.577-.034zM13.874 35.66l32.413-.198M18.04 18.685l-3.517.022.02 3.545 3.519-.022zM24.89 18.644l-3.519.021.022 3.545 3.518-.021zM45.436 18.518l-3.518.022.021 3.545 3.518-.022zM18.078 24.907l-3.518.022.021 3.545 3.518-.022zM24.927 24.866l-3.518.021.021 3.545 3.518-.021zM45.473 24.74l-3.518.022.021 3.545 3.518-.022z"/>
    </g>
</svg>
