<svg xmlns="http://www.w3.org/2000/svg" width="60" height="60" viewBox="0 0 60 60">
    <g fill="none" fill-rule="nonzero">
        <rect width="60" height="60" fill="#E7F7FF" rx="6"/>
        <g stroke="#008FFF" stroke-linecap="round" stroke-width="1.5">
            <path d="M15.764 40.46h5.84v-1.027a2.08 2.08 0 0 0-1.78-2.059l-3.837-.559"/>
            <path d="M39.951 45.11v1.367a2.446 2.446 0 0 0 2.446 2.446h1.367a2.446 2.446 0 0 0 2.446-2.446V35.141l2.51-.917a.595.595 0 0 0 .39-.559v-2.001a.595.595 0 0 0-.594-.596h-2.837a2.208 2.208 0 0 1-1.938-1.15l-2.827-5.183a3.157 3.157 0 0 0-2.772-1.645H21.135c-1.156 0-2.219.63-2.772 1.645l-2.827 5.182a2.208 2.208 0 0 1-1.938 1.151H10.76a.595.595 0 0 0-.595.596v2.001c0 .25.156.473.39.559l2.511.917v11.336a2.446 2.446 0 0 0 2.446 2.446h1.367a2.446 2.446 0 0 0 2.446-2.446V45.11H39.95z"/>
            <path d="M26.36 31.116h14.624l-2.641-4.842a.864.864 0 0 0-.759-.45H21.693a.864.864 0 0 0-.759.45l-2.641 4.842h8.068zM43.29 36.815l-3.836.559a2.081 2.081 0 0 0-1.781 2.059v1.027h5.84M25.37 40.554h8.537M33.907 40.554l.39-3.38H24.98l.39 3.38M19.326 45.11h-2.559M39.951 45.11h2.559M32.11 10.166h-4.944a.998.998 0 0 0-.997.997v7.728c0 .55.446.997.997.997h4.945a.997.997 0 0 0 .997-.997v-7.728a.998.998 0 0 0-.997-.997zM44.486 24.146a5.255 5.255 0 0 0-5.258-5.258M40.1 15.485a7.768 7.768 0 0 1 7.773 7.772M14.79 24.146a5.255 5.255 0 0 1 5.258-5.258M19.176 15.485a7.768 7.768 0 0 0-7.772 7.772"/>
        </g>
    </g>
</svg>
