<svg xmlns="http://www.w3.org/2000/svg" width="60" height="60" viewBox="0 0 60 60">
    <g fill="none" fill-rule="nonzero">
        <rect width="60" height="60" fill="#E7F7FF" rx="6"/>
        <g stroke="#008FFF" stroke-linecap="round" stroke-width="1.5">
            <path d="M30.76 28.44l4.063-.271M29.556 22.987l-.478 3.718M23.851 21.632l3.931-.549M30.837 22.555a1.924 1.924 0 1 0-2.722-2.721 1.924 1.924 0 0 0 2.722 2.72zM30.382 29.862a1.924 1.924 0 1 0-2.721-2.722 1.924 1.924 0 0 0 2.721 2.722zM37.92 29.638a1.924 1.924 0 1 0-2.722-2.722 1.924 1.924 0 0 0 2.721 2.722zM23.513 22.993a1.924 1.924 0 1 0-2.721-2.722 1.924 1.924 0 0 0 2.721 2.722zM30.85 44.486l2.954.059M29.973 40.518l-.348 2.706M25.822 39.134h2.86M30.904 40.204a1.4 1.4 0 1 0-1.979-1.98 1.4 1.4 0 0 0 1.98 1.98zM30.574 45.52a1.4 1.4 0 1 0-1.98-1.98 1.4 1.4 0 0 0 1.98 1.98zM36.057 45.613a1.4 1.4 0 1 0-1.979-1.98 1.4 1.4 0 0 0 1.98 1.98zM25.576 40.123a1.4 1.4 0 1 0-1.979-1.98 1.4 1.4 0 0 0 1.98 1.98zM19.877 14.947h18.957"/>
            <path d="M17.497 34.633V13.406a2.944 2.944 0 0 1 2.945-2.944H38.27a2.944 2.944 0 0 1 2.944 2.944V34.1M27.006 12.708h4.7M39.225 36.76s3.68 1.348 10.529 1.348v7.529c-6.85 0-10.529 1.347-10.529 1.347M20.682 46.984s-3.679-1.347-10.528-1.347v-7.529c6.85 0 10.528-1.348 10.528-1.348"/>
            <path d="M38.971 36.59v10.564a2.666 2.666 0 0 1-2.665 2.666H23.348a2.666 2.666 0 0 1-2.665-2.666V36.59a2.665 2.665 0 0 1 2.665-2.666h12.958a2.666 2.666 0 0 1 2.665 2.666zM12.24 41.541c.197 0 .358.148.358.331 0 .183-.16.331-.359.331-.197 0-.358-.148-.358-.331 0-.183.16-.331.358-.331zM15.408 41.541c.197 0 .358.148.358.331 0 .183-.16.331-.358.331-.198 0-.359-.148-.359-.331 0-.183.16-.331.359-.331z"/>
        </g>
    </g>
</svg>
