<svg xmlns="http://www.w3.org/2000/svg" width="27" height="18" viewBox="0 0 27 18">
    <path fill="#363537" fill-rule="evenodd" d="M13.827 0c1.572.007 8.364.063 10.222.537 1.161.296 2.076 1.167 2.387 2.274C27 4.816 27 9 27 9s0 4.184-.564 6.19c-.31 1.106-1.226 1.977-2.387 2.273C21.943 18 13.5 18 13.5 18s-8.443 0-10.549-.537C1.79 17.167.875 16.296.564 15.189c-.5-1.776-.557-5.261-.563-6.035v-.308c.006-.774.063-4.26.563-6.035C.874 1.704 1.79.833 2.951.537 4.81.063 11.601.007 13.173.001zm-3.088 5.226v7.597l7.056-3.798-7.056-3.8z"/>
</svg>
